<svg xmlns="http://www.w3.org/2000/svg" width="606" height="1080" viewBox="0 0 606 1080" version="1.1">
	<path d="M 120 10 C 120 10.550, 120.450 11, 121 11 C 121.550 11, 122 10.550, 122 10 C 122 9.450, 121.550 9, 121 9 C 120.450 9, 120 9.450, 120 10 M 165 15.941 C 165 19.759, 165.450 23.160, 166 23.500 C 166.633 23.891, 167 21.344, 167 16.559 C 167 12.186, 166.578 9, 166 9 C 165.429 9, 165 11.980, 165 15.941 M 170 16.559 C 170 21.344, 170.367 23.891, 171 23.500 C 171.550 23.160, 172 19.759, 172 15.941 C 172 11.980, 171.571 9, 171 9 C 170.422 9, 170 12.186, 170 16.559 M 310.179 10.587 C 307.405 12.530, 306.723 16.400, 308.432 20.492 C 310.193 24.706, 313.968 25.312, 316.443 21.777 C 320.607 15.833, 315.560 6.818, 310.179 10.587 M 558.525 10.226 C 557.885 12.123, 557.750 13.997, 557.882 19.219 C 557.981 23.184, 558.266 23.835, 559.664 23.299 C 560.783 22.869, 561.091 23.043, 560.605 23.830 C 560.063 24.707, 563.960 24.960, 576.191 24.840 C 585.161 24.752, 591.038 24.498, 589.250 24.277 L 586 23.873 586 16.873 L 586 9.873 589.250 10.187 L 592.500 10.500 592.500 16.752 C 592.500 20.190, 592.837 23.003, 593.250 23.002 C 593.663 23.001, 594 22.100, 594 21 C 594 19.900, 594.536 19.113, 595.191 19.250 C 596.921 19.613, 597.458 15.825, 595.859 14.543 C 595.111 13.944, 594.002 12.564, 593.392 11.477 C 592.368 9.650, 591.024 9.479, 575.620 9.226 C 562.815 9.015, 558.856 9.247, 558.525 10.226 M 73 17 L 73 24 77 24 C 79.200 24, 81 23.550, 81 23 C 81 22.450, 79.650 22, 78 22 C 75.667 22, 75 21.556, 75 20 C 75 18.546, 75.667 18, 77.441 18 C 78.784 18, 80.160 17.550, 80.500 17 C 80.861 16.417, 79.844 16, 78.059 16 C 75.667 16, 75 15.564, 75 14 C 75 12.597, 75.672 11.995, 77.250 11.985 C 78.487 11.976, 80.175 11.533, 81 11 C 82.085 10.299, 81.185 10.026, 77.750 10.015 L 73 10 73 17 M 84.204 16.750 L 84.500 23.500 88.750 23.807 C 91.265 23.989, 93 23.683, 93 23.057 C 93 22.476, 91.425 22, 89.500 22 C 86.667 22, 86 21.619, 86 20 C 86 18.546, 86.667 18, 88.441 18 C 91.903 18, 92.591 16.200, 89.276 15.818 C 85.215 15.350, 84.857 12, 88.868 12 C 90.526 12, 92.160 11.550, 92.500 11 C 92.878 10.389, 91.328 10, 88.513 10 L 83.909 10 84.204 16.750 M 100.205 11.114 C 100.493 11.876, 101.477 15.088, 102.392 18.250 C 103.307 21.413, 104.435 24, 104.898 24 C 105.361 24, 106.314 21.950, 107.015 19.445 C 108.402 14.491, 109.364 14.618, 110.718 19.932 C 112.428 26.647, 114.363 24.435, 116.611 13.196 C 117.001 11.245, 116.846 10, 116.213 10 C 115.642 10, 114.872 11.798, 114.501 13.995 C 113.555 19.596, 112.423 19.735, 111.083 14.415 C 109.676 8.826, 107.967 9.067, 106.419 15.073 C 105.320 19.337, 105.240 19.408, 104.259 17 C 103.700 15.625, 103.075 13.637, 102.871 12.583 C 102.667 11.528, 101.866 10.455, 101.091 10.196 C 100.203 9.901, 99.875 10.240, 100.205 11.114 M 125 17.059 C 125 21.510, 125.369 23.890, 126 23.500 C 126.550 23.160, 127 21.784, 127 20.441 C 127 18.395, 127.486 18, 130 18 C 131.650 18, 133 17.550, 133 17 C 133 16.450, 131.619 16, 129.930 16 C 127.319 16, 126.909 15.664, 127.180 13.750 C 127.437 11.942, 128.040 11.563, 130.250 11.822 C 131.762 11.998, 133 11.661, 133 11.072 C 133 10.482, 131.200 10, 129 10 L 125 10 125 17.059 M 141.557 12.223 C 138.174 17.051, 141.049 24, 146.429 24 C 149.215 24, 153.032 20.844, 151.046 20.182 C 150.375 19.958, 149.324 20.276, 148.713 20.888 C 146.756 22.844, 143.995 22.116, 142.950 19.368 C 141.015 14.280, 144.837 9.649, 148.612 12.507 C 151.289 14.534, 152.247 14.331, 151 12 C 149.460 9.123, 143.632 9.260, 141.557 12.223 M 280.750 11.067 C 279.788 11.635, 279 12.547, 279 13.094 C 279 13.640, 279.788 13.955, 280.750 13.794 C 282.204 13.550, 282.511 14.299, 282.563 18.230 C 282.621 22.585, 283.391 24.942, 284.419 23.914 C 284.650 23.684, 284.958 20.572, 285.103 16.999 C 285.384 10.117, 284.470 8.871, 280.750 11.067 M 289.368 11.482 C 288.516 13.703, 289.646 14.539, 291.463 13.031 C 292.294 12.341, 293.768 12.085, 294.737 12.462 C 296.348 13.089, 296.306 13.307, 294.250 14.985 C 291.456 17.265, 291.413 18, 294.073 18 C 295.519 18, 296.037 18.530, 295.785 19.750 C 295.410 21.564, 293.854 21.775, 290.614 20.452 C 288.327 19.518, 288.759 21.815, 291.155 23.326 C 294.831 25.645, 300.540 21.208, 298.318 17.759 C 297.872 17.067, 297.506 15.150, 297.504 13.500 C 297.500 10.755, 297.181 10.474, 293.742 10.189 C 291.014 9.964, 289.815 10.318, 289.368 11.482 M 321 14.045 L 321 18.091 324.500 17.434 C 327.615 16.850, 328 17.013, 328 18.920 C 328 21.545, 325.512 22.669, 323.463 20.969 C 321.494 19.335, 320.343 20.503, 321.980 22.476 C 323.747 24.605, 327.350 24.375, 329.504 21.996 C 332.220 18.995, 330.184 15, 325.938 15 C 321.806 15, 322.561 12.608, 326.827 12.187 C 331.652 11.710, 330.614 10, 325.500 10 L 321 10 321 14.045 M 515 11 C 515 11.550, 516.350 12, 518 12 C 519.650 12, 521 12.240, 521 12.533 C 521 12.827, 519.875 15.287, 518.500 18 C 515.718 23.490, 515.586 24, 516.949 24 C 517.783 24, 524 12.190, 524 10.607 C 524 10.273, 521.975 10, 519.500 10 C 517.025 10, 515 10.450, 515 11 M 527.250 10.662 C 525.515 11.362, 525.681 16.490, 527.487 17.989 C 528.340 18.697, 530.046 18.954, 531.487 18.593 C 534.326 17.880, 534.786 19.102, 532.419 21.067 C 531.140 22.128, 530.451 22.138, 528.821 21.121 C 526.357 19.581, 525.252 20.394, 526.980 22.476 C 528.568 24.389, 532.381 24.451, 533.926 22.589 C 535.709 20.441, 536.357 14.536, 535.073 12.137 C 533.970 10.075, 530.382 9.399, 527.250 10.662 M 538.709 10.624 C 537.555 11.779, 537.899 14.671, 539.332 15.861 C 541.174 17.390, 544.336 14.991, 543.849 12.434 C 543.479 10.499, 540.044 9.289, 538.709 10.624 M 544 16.277 C 538.828 23.430, 538.512 24, 539.724 24 C 540.611 24, 550 11.765, 550 10.609 C 550 8.840, 548.034 10.697, 544 16.277 M 529.011 12.487 C 527.543 14.256, 528.355 17, 530.346 17 C 531.121 17, 532.276 16.373, 532.912 15.606 C 533.805 14.530, 533.703 13.846, 532.463 12.606 C 530.505 10.648, 530.536 10.649, 529.011 12.487 M 540 12.441 C 540 13.298, 540.450 14, 541 14 C 541.550 14, 542 13.577, 542 13.059 C 542 12.541, 541.550 11.840, 541 11.500 C 540.450 11.160, 540 11.584, 540 12.441 M 12 14 C 9.589 16.411, 9.513 17.370, 11.571 19.429 C 15.780 23.637, 22.352 18.257, 18.373 13.860 C 16.211 11.471, 14.491 11.509, 12 14 M 23.571 13.571 C 21.729 15.414, 21.629 16.438, 23.035 19.066 C 24.120 21.094, 28.432 21.728, 29.491 20.015 C 29.866 19.407, 28.970 19.256, 27.150 19.620 C 24.731 20.104, 24.079 19.823, 23.518 18.057 C 22.792 15.770, 24.604 12.637, 26.113 13.570 C 26.601 13.871, 27 13.641, 27 13.059 C 27 11.520, 25.381 11.762, 23.571 13.571 M 37 13.167 C 37 13.808, 37.301 14.032, 37.669 13.664 C 38.037 13.297, 39.274 13.784, 40.419 14.748 C 42.498 16.499, 42.498 16.498, 40.595 14.250 C 38.515 11.793, 37 11.337, 37 13.167 M 46.200 13.200 C 44.497 14.903, 44.701 19.948, 46.502 20.639 C 48.780 21.513, 52.700 20.225, 53.412 18.368 C 54.242 16.206, 51.444 12, 49.177 12 C 48.200 12, 46.860 12.540, 46.200 13.200 M 57.750 13.392 C 53.963 16.267, 56.766 21.778, 61.420 20.609 C 64.673 19.793, 65.690 16.420, 63.435 13.928 C 61.400 11.680, 60.160 11.563, 57.750 13.392 M 302 13.500 C 302 14.417, 302.484 15.005, 303.075 14.808 C 303.666 14.611, 304.150 14.022, 304.150 13.500 C 304.150 12.978, 303.666 12.389, 303.075 12.192 C 302.484 11.995, 302 12.583, 302 13.500 M 310.626 13.533 C 308.935 17.938, 311.027 22.837, 313.853 21.091 C 315.749 19.919, 314.944 12.601, 312.876 12.209 C 311.983 12.040, 310.970 12.636, 310.626 13.533 M 34 15 C 33.411 16.100, 33.155 17, 33.430 17 C 33.705 17, 34.411 16.100, 35 15 C 35.589 13.900, 35.845 13, 35.570 13 C 35.295 13, 34.589 13.900, 34 15 M 47.250 13.662 C 45.428 14.397, 45.720 18.955, 47.636 19.691 C 49.377 20.359, 52.148 19.057, 52.735 17.295 C 53.104 16.189, 50.364 12.941, 49.179 13.079 C 48.805 13.122, 47.938 13.385, 47.250 13.662 M 58.200 14.200 C 55.125 17.275, 59.201 21.738, 62.548 18.960 C 64.560 17.290, 64.362 15.264, 62.066 14.035 C 59.655 12.745, 59.655 12.745, 58.200 14.200 M 120 18.500 C 120 21.991, 120.379 23.884, 121 23.500 C 122.301 22.696, 122.301 14.304, 121 13.500 C 120.379 13.116, 120 15.009, 120 18.500 M 136.310 18.500 C 136.315 21.800, 136.502 23.029, 136.725 21.232 C 136.947 19.435, 136.943 16.735, 136.715 15.232 C 136.486 13.729, 136.304 15.200, 136.310 18.500 M 154.892 14.630 C 153.672 16.100, 153.869 16.188, 156.888 15.525 C 159.458 14.960, 160.134 15.098, 159.794 16.117 C 159.551 16.847, 158.260 17.703, 156.926 18.018 C 155.172 18.431, 154.500 19.271, 154.500 21.045 C 154.500 23.209, 154.944 23.504, 158.250 23.532 C 161.976 23.564, 162 23.538, 162 19.482 C 162 13.469, 158.078 10.792, 154.892 14.630 M 187.441 15.468 C 186.374 16.276, 185.725 16.982, 186 17.039 C 188.269 17.503, 199 17.472, 199 17.001 C 199 14, 190.818 12.914, 187.441 15.468 M 40.655 18.457 C 39.950 20.293, 36.886 20.486, 35.200 18.800 C 34.288 17.888, 34 17.884, 34 18.781 C 34 20.805, 38.982 21.446, 40.775 19.653 C 41.658 18.770, 42.126 17.792, 41.814 17.481 C 41.502 17.169, 40.981 17.608, 40.655 18.457 M 546.701 17.632 C 545.393 18.940, 545.992 23.060, 547.578 23.668 C 549.993 24.595, 552.736 21.391, 551.376 19.231 C 550.184 17.338, 547.808 16.525, 546.701 17.632 M 156.459 20.067 C 156.096 20.653, 156.050 21.384, 156.357 21.690 C 157.179 22.513, 160 21.229, 160 20.031 C 160 18.674, 157.303 18.701, 156.459 20.067 M 190.015 19.750 C 190.024 20.163, 190.461 21.175, 190.987 22 C 191.713 23.139, 192.357 23.242, 193.662 22.429 C 196.653 20.564, 196.389 19, 193.083 19 C 191.387 19, 190.007 19.337, 190.015 19.750 M 302.639 19.694 C 301.513 20.820, 301.954 22, 303.500 22 C 304.325 22, 305 21.577, 305 21.059 C 305 19.798, 303.438 18.895, 302.639 19.694 M 548 20.500 C 548 21.325, 548.450 22, 549 22 C 549.550 22, 550 21.325, 550 20.500 C 550 19.675, 549.550 19, 549 19 C 548.450 19, 548 19.675, 548 20.500 M 224.180 51.127 C 219.262 56.157, 218.709 63.704, 223.087 66.046 C 224.908 67.021, 224.996 66.829, 224.408 63.148 C 223.769 59.151, 225.308 52.546, 227.143 51.412 C 227.795 51.008, 228.030 56.368, 227.820 66.899 C 227.644 75.756, 227.805 83.002, 228.179 83.001 C 229.708 82.998, 231.958 79.733, 232.509 76.718 C 232.832 74.948, 232.962 67.875, 232.798 61 L 232.500 48.500 229.918 48.200 C 228.082 47.986, 226.423 48.832, 224.180 51.127 M 273.675 50.873 C 273.252 52.989, 272.417 53.944, 270.790 54.175 C 267.975 54.575, 267.720 57.497, 270.500 57.499 C 272.232 57.500, 272.540 58.267, 272.799 63.224 C 272.964 66.372, 272.584 69.909, 271.955 71.084 C 270.831 73.184, 270.781 73.169, 268.959 70.174 C 267.941 68.498, 266.177 66.630, 265.041 66.022 C 263.334 65.108, 263.164 64.562, 264.064 62.880 C 265.369 60.441, 264.631 58, 262.588 58 C 260.411 58, 257.970 62.032, 258.608 64.575 C 259.278 67.246, 254.481 75.415, 252.838 74.400 C 252.146 73.972, 251.934 71.415, 252.257 67.388 C 252.816 60.424, 251.833 58.599, 247.832 59.173 C 246.403 59.378, 244.712 60.990, 243.293 63.500 L 241.033 67.500 241.016 63.357 C 241.006 60.737, 240.484 59.016, 239.598 58.676 C 237.281 57.787, 237 58.912, 237 69.060 C 237 76.561, 237.326 78.911, 238.427 79.334 C 240.329 80.064, 241.349 78.490, 242.856 72.500 C 243.548 69.750, 244.876 66.375, 245.807 65 C 247.480 62.529, 247.506 62.590, 248 70.204 C 248.611 79.615, 249.889 81.378, 253.606 77.937 C 255.054 76.597, 257.342 73.771, 258.690 71.659 C 261.053 67.955, 261.210 67.880, 263.070 69.564 C 264.132 70.524, 265 72.367, 265 73.659 C 265 75.679, 264.561 75.972, 261.859 75.754 C 257.875 75.432, 256.939 77.646, 260.488 78.995 C 263.929 80.304, 267.439 79.374, 270.249 76.409 C 273.058 73.446, 273.425 73.442, 274.755 76.361 C 276.349 79.861, 279.603 80.320, 281.921 77.373 L 283.841 74.932 286.375 77.466 C 289.435 80.526, 290.008 80.568, 293.302 77.977 C 295.371 76.350, 296.034 76.218, 296.687 77.302 C 298.032 79.534, 300.637 79.943, 302.994 78.292 C 304.314 77.367, 305.478 77.123, 305.859 77.690 C 307.175 79.652, 310.311 80.026, 312.641 78.500 C 316.183 76.179, 315.487 77.689, 311.051 81.951 C 305.922 86.879, 304.877 90.672, 307.960 93.169 C 313.278 97.475, 318.136 93.266, 318.824 83.758 C 319.141 79.370, 320 76.447, 321.745 73.810 C 323.104 71.756, 324.955 68.623, 325.858 66.847 C 328.604 61.448, 330.341 61.887, 329.531 67.776 C 328.424 75.823, 333.404 82.453, 337.488 78.369 C 338.759 77.098, 339.265 77.128, 341.523 78.607 C 343.989 80.223, 344.237 80.201, 347.035 78.132 L 349.966 75.966 352.006 78.006 C 353.656 79.656, 354.436 79.837, 356.087 78.954 C 357.589 78.150, 358.504 78.173, 359.551 79.042 C 362.116 81.171, 363.997 79.387, 364.045 74.781 C 364.070 72.427, 364.684 69.150, 365.410 67.500 L 366.730 64.500 367.416 69.500 C 368.219 75.359, 369.200 77.500, 371.081 77.500 C 371.917 77.500, 372.742 75.758, 373.212 73 C 374.466 65.647, 375.269 65.080, 376.082 70.974 C 376.790 76.111, 379.378 80, 382.088 80 C 383.593 80, 386.186 75.175, 385.689 73.299 C 385.274 71.734, 385.118 71.793, 384.489 73.750 C 383.654 76.352, 381.492 76.724, 380.607 74.418 C 380.273 73.548, 380 69.964, 380 66.453 C 380 61.212, 379.661 59.889, 378.105 59.056 C 375.808 57.827, 374.614 59.023, 372.568 64.605 L 371.141 68.500 371.070 64.285 C 371.019 61.219, 370.483 59.794, 369.105 59.056 C 367.077 57.971, 366.061 58.726, 364.465 62.500 C 363.699 64.312, 363.584 64.242, 363.243 61.750 C 362.980 59.828, 362.285 59, 360.934 59 C 359.230 59, 358.998 59.743, 358.985 65.250 C 358.971 71.478, 357.400 76.389, 355.500 76.149 C 354.950 76.080, 354.275 72.314, 354 67.781 L 353.500 59.539 348.575 58.717 C 344.116 57.973, 343.421 58.125, 341.220 60.326 C 339.292 62.253, 338.679 64.132, 338.256 69.405 C 337.337 80.854, 333.751 79.161, 334.219 67.500 C 334.500 60.505, 334.498 60.500, 331.804 60.454 C 330.321 60.428, 328.286 59.664, 327.281 58.754 C 324.693 56.413, 322.548 57.990, 323.288 61.690 C 323.669 63.593, 323.129 66.108, 321.712 69.041 L 319.557 73.500 319.029 66.500 C 318.548 60.130, 318.302 59.497, 316.303 59.470 C 315.095 59.453, 313.783 59.116, 313.387 58.720 C 312.062 57.395, 308.327 57.981, 306.712 59.766 C 304.942 61.721, 302.638 70.606, 303.527 72.044 C 303.838 72.547, 303.590 73.897, 302.977 75.044 C 302.084 76.712, 301.575 76.892, 300.430 75.942 C 299.415 75.100, 299 72.507, 299 67.013 L 299 59.272 294.524 58.658 C 292.061 58.321, 289.450 58.274, 288.721 58.554 C 286.606 59.365, 284.307 64.110, 283.576 69.168 C 282.889 73.927, 280.921 76.687, 279.044 75.527 C 278.453 75.162, 278 71.245, 278 66.504 L 278 58.127 281.173 57.813 C 285.538 57.382, 285.924 55.264, 281.780 54.487 C 278.960 53.957, 278.437 53.436, 278.466 51.179 C 278.491 49.200, 277.948 48.421, 276.385 48.198 C 274.738 47.963, 274.139 48.555, 273.675 50.873 M 31.694 53.532 C 30.151 54.889, 27.838 56, 26.555 56 C 25.272 56, 23.159 56.860, 21.861 57.912 C 19.651 59.701, 19.500 60.496, 19.500 70.307 C 19.500 85.351, 19.034 85, 39 85 C 58.788 85, 58 85.613, 58 70.228 C 58 59.876, 57.847 59.007, 55.777 57.557 C 54.555 56.701, 52.618 56, 51.472 56 C 50.326 56, 47.864 54.875, 46 53.500 C 41.435 50.132, 35.544 50.145, 31.694 53.532 M 548 54.500 C 548 55.325, 548.337 56.015, 548.750 56.033 C 549.163 56.052, 552.315 58.639, 555.755 61.783 L 562.011 67.500 563.886 76.797 C 565.657 85.583, 566.458 87.881, 567.412 86.917 C 568.560 85.757, 586 54.888, 586 54.016 C 586 53.364, 579.197 53, 567 53 C 550.778 53, 548 53.219, 548 54.500 M 32.609 55.880 C 31.673 56.913, 29.178 58.036, 27.063 58.374 C 24.915 58.717, 22.950 59.689, 22.609 60.576 C 22.274 61.449, 22 66.145, 22 71.010 C 22 83.430, 21.690 83.223, 39.681 82.821 C 51.138 82.566, 54.270 82.194, 55.023 81 C 55.544 80.175, 55.976 75.393, 55.985 70.372 C 56.001 60.419, 55.538 59.458, 50.206 58.391 C 48.499 58.050, 46.334 56.922, 45.396 55.885 C 43.028 53.268, 34.975 53.265, 32.609 55.880 M 557.832 60.050 L 563.165 65.023 568.917 61.762 C 581.104 54.852, 581.215 55.107, 566 55.091 L 552.500 55.076 557.832 60.050 M 573.673 61.969 C 569.918 64.051, 566.373 66.227, 565.796 66.804 C 564.689 67.911, 566.607 81.041, 567.863 80.958 C 568.556 80.912, 581.191 58.852, 580.762 58.437 C 580.618 58.298, 577.428 59.887, 573.673 61.969 M 32.400 63.400 C 30.530 65.270, 29 67.767, 29 68.950 C 29 72.699, 31.998 77.101, 35.566 78.592 C 45.256 82.641, 52.969 69.829, 45.084 62.784 C 40.711 58.877, 36.730 59.070, 32.400 63.400 M 289.677 62.750 C 288.551 64.663, 287.905 70.290, 288.500 73 C 289.344 76.845, 292.630 77.103, 294.025 73.435 C 295.127 70.536, 295.299 65.942, 294.393 63.582 C 293.775 61.970, 290.478 61.389, 289.677 62.750 M 308.975 64.565 C 306.943 69.911, 308.036 76, 311.029 76 C 313.411 76, 315.411 70.004, 314.554 65.435 C 313.751 61.157, 310.466 60.645, 308.975 64.565 M 343.627 63.529 C 342.434 66.638, 342.959 74.721, 344.433 75.944 C 346.787 77.898, 349.181 73.187, 348.808 67.337 C 348.550 63.287, 348.154 62.451, 346.377 62.197 C 345.125 62.018, 343.997 62.565, 343.627 63.529 M 33.557 65.223 C 31.327 68.405, 31.635 72.309, 34.314 74.826 C 37.218 77.553, 39.987 77.585, 43.365 74.927 C 46.397 72.542, 46.832 68.632, 44.443 65.223 C 43.289 63.574, 41.883 63, 39 63 C 36.117 63, 34.711 63.574, 33.557 65.223 M 312.783 83.750 C 309.539 87.470, 308.695 90.124, 310.260 91.688 C 312.486 93.914, 315 90.859, 315 85.929 C 315 81.461, 314.882 81.344, 312.783 83.750 M 190.450 123.947 C 187.673 124.379, 184.523 125.216, 183.450 125.806 C 182.378 126.396, 180.251 127.143, 178.725 127.465 C 177.198 127.787, 175.159 128.827, 174.194 129.775 C 173.228 130.724, 170.765 132.280, 168.719 133.234 C 166.674 134.187, 165 135.620, 165 136.416 C 165 137.213, 164.213 138.143, 163.250 138.484 C 162.287 138.824, 160.492 140.382, 159.260 141.948 C 157.431 144.271, 157.287 144.896, 158.476 145.353 C 159.405 145.709, 160.944 144.483, 162.717 141.977 C 164.248 139.813, 166.015 138.033, 166.644 138.021 C 167.274 138.010, 169.234 136.650, 171 135 C 172.766 133.350, 174.697 132, 175.290 132 C 175.883 132, 178.198 131.151, 180.434 130.112 C 189.698 125.811, 199.322 124.988, 209.500 127.626 C 212.800 128.482, 216.849 129.433, 218.497 129.740 C 221.159 130.237, 221.345 130.120, 220.163 128.696 C 217.203 125.129, 200.257 122.421, 190.450 123.947 M 322.251 124.046 C 306.093 126.932, 292.784 136.912, 285.638 151.500 C 283.753 155.350, 281.715 160.300, 281.110 162.500 C 279.622 167.917, 279.775 177.260, 281.469 184.350 C 282.929 190.463, 284.648 193.704, 283.670 188.500 C 281.171 175.205, 282.317 164.997, 287.487 154.500 C 295.271 138.695, 307.595 129.632, 324.971 126.937 C 339.583 124.669, 355.341 130.265, 365.785 141.429 C 382.555 159.356, 384.304 182.840, 370.389 203.250 C 365.136 210.955, 360.827 214.675, 351.555 219.507 C 347.970 221.376, 345.460 223.167, 345.978 223.486 C 346.495 223.806, 347.724 223.673, 348.709 223.192 C 349.694 222.710, 352.737 221.232, 355.470 219.908 C 366.923 214.360, 375.719 204.136, 380.187 191.181 C 383.271 182.237, 383.268 166.223, 380.181 158.210 C 373.993 142.147, 363.800 131.946, 348.324 126.328 C 340.864 123.621, 329.970 122.667, 322.251 124.046 M 453.712 124.077 C 437.343 127.436, 421.702 140.490, 416.097 155.469 C 413.040 163.640, 411.963 174.534, 413.511 181.620 C 414.983 188.359, 415.266 187.512, 415.059 177 C 414.774 162.612, 420.158 149.823, 430.619 140.037 C 445.556 126.065, 466.028 122.549, 483.653 130.928 C 500.473 138.925, 510.436 153.377, 511.702 171.614 C 513.116 191.993, 502.376 210.295, 483.557 219.577 C 478.773 221.937, 476.310 223.629, 477.364 223.832 C 478.326 224.017, 482.470 222.574, 486.572 220.626 C 499.462 214.505, 508.866 203.507, 513.508 189.127 C 514.869 184.911, 515.150 181.344, 514.814 172.553 C 514.402 161.804, 514.216 161.011, 510.203 152.926 C 503.558 139.537, 493.352 130.474, 479.925 126.042 C 472.431 123.568, 460.537 122.676, 453.712 124.077 M 586.500 124.100 C 571.035 127.577, 558.161 137.019, 551.162 150.016 C 544.625 162.156, 543.405 175.184, 547.524 188.849 C 549.612 195.775, 550.367 195.064, 548.475 187.953 C 543.182 168.066, 553.284 144.245, 571.692 133.204 C 579.472 128.538, 587.128 126.571, 597.250 126.637 C 603.510 126.679, 606 126.347, 606 125.473 C 606 123.081, 594.601 122.279, 586.500 124.100 M 187.779 131.539 C 179.695 133.750, 173.726 137.267, 167.486 143.496 C 155.218 155.743, 151.247 171.867, 156.395 188.534 C 157.250 191.303, 158.861 194.547, 159.975 195.742 C 161.089 196.938, 162 198.385, 162 198.958 C 162 200.862, 166.151 200.034, 168.056 197.750 C 169.221 196.354, 169.946 196.015, 169.967 196.857 C 169.986 197.647, 170.627 197.974, 171.500 197.638 C 172.462 197.269, 173.028 197.679, 173.079 198.781 C 173.122 199.727, 173.375 199.968, 173.640 199.318 C 173.905 198.668, 173.419 196.777, 172.561 195.117 C 171.336 192.750, 171 188.635, 171 176.018 C 171 157.668, 171.724 154.839, 177.563 150.382 C 181.314 147.519, 181.444 147.498, 197.419 147.196 C 212.563 146.910, 213.761 147.027, 217.977 149.196 C 225.555 153.096, 226.502 155.854, 226.488 174 C 226.480 184.240, 226.029 190.776, 225.157 193.261 C 223.141 199.006, 218.437 201.999, 209.437 203.262 L 201.816 204.332 205.320 206.036 C 207.247 206.973, 210.508 209.572, 212.567 211.812 L 216.310 215.883 220.385 213.804 C 236.660 205.501, 246.602 185.094, 243.001 167.383 C 237.732 141.474, 212.156 124.872, 187.779 131.539 M 331 131 C 331 131.550, 331.450 132, 332 132 C 332.550 132, 333 131.550, 333 131 C 333 130.450, 332.550 130, 332 130 C 331.450 130, 331 130.450, 331 131 M 453 131.047 C 451.075 131.598, 447.336 133.028, 444.691 134.223 C 440.594 136.075, 439.966 136.728, 440.445 138.637 C 440.754 139.869, 440.556 141.157, 440.004 141.498 C 439.452 141.839, 439 141.416, 439 140.559 C 439 138.076, 436.693 138.737, 432.958 142.290 C 427.908 147.095, 424.434 152.586, 421.439 160.500 C 419.062 166.782, 418.840 168.474, 419.274 177 C 419.672 184.824, 420.297 187.683, 422.817 193.205 C 430.013 208.977, 446.996 220.165, 463.339 219.900 C 475.167 219.709, 476.300 218.541, 473.448 209.473 C 471.682 203.859, 469 200.198, 469 203.403 C 469 204.440, 467.868 205.276, 465.945 205.661 C 463.903 206.069, 463.065 206.728, 463.419 207.648 C 463.817 208.686, 463.277 208.882, 461.223 208.443 L 458.500 207.861 460.892 209.955 C 463.555 212.288, 463.039 214.091, 460.337 211.893 C 458.830 210.666, 458.704 210.709, 459.281 212.250 C 459.846 213.756, 459.305 214, 455.410 214 C 451.627 214, 449.967 213.302, 445.302 209.750 C 437.757 204.005, 429.838 195.718, 431.130 194.920 C 431.743 194.541, 431.162 193.486, 429.711 192.345 C 428.095 191.074, 427.338 189.570, 427.499 187.956 C 427.634 186.605, 427.802 184.701, 427.872 183.725 C 427.943 182.749, 429.012 181.487, 430.250 180.921 C 431.488 180.354, 434.075 179.037, 436 177.994 C 440.530 175.538, 443.253 175.441, 442.814 177.750 C 442.631 178.713, 440.273 180.625, 437.573 182 C 430.390 185.658, 429.918 186.995, 434.058 191.959 C 441.837 201.286, 448.646 207.350, 450.529 206.627 C 451.197 206.371, 453.903 205.837, 456.541 205.442 L 461.339 204.722 458.805 202.877 C 456.919 201.503, 456.394 200.388, 456.752 198.515 C 457.409 195.078, 458.988 195.358, 462.293 199.500 C 463.829 201.425, 465.516 203, 466.043 203 C 467.388 203, 467.238 200.265, 465.845 199.405 C 465.086 198.935, 464.941 199.172, 465.420 200.095 C 465.820 200.868, 465.435 200.620, 464.564 199.545 C 463.160 197.812, 463.151 197.495, 464.490 196.746 C 466.433 195.658, 466.439 194, 464.500 194 C 463.675 194, 463 193.550, 463 193 C 463 192.450, 463.675 192, 464.500 192 C 466.472 192, 466.402 191.014, 464.320 189.492 C 462.780 188.366, 462.823 188.165, 464.840 187.085 C 467.409 185.711, 469.156 186.431, 468.349 188.532 C 468.040 189.339, 468.247 190, 468.810 190 C 469.373 190, 469.999 189.502, 470.202 188.893 C 470.826 187.021, 488 187.717, 488 189.615 C 488 191.196, 484.620 194.791, 483.528 194.372 C 482.587 194.011, 481.979 195.396, 481.418 199.183 C 480.547 205.060, 480.724 207.332, 482.092 207.833 C 482.591 208.017, 483 208.804, 483 209.583 C 483 210.363, 483.724 211, 484.608 211 C 485.862 211, 486.065 210.396, 485.529 208.260 C 485.151 206.753, 484.534 205.291, 484.158 205.010 C 483.127 204.240, 483.076 198.929, 484.106 199.566 C 484.598 199.869, 485 199.593, 485 198.951 C 485 198.193, 485.912 198.012, 487.596 198.435 C 490.495 199.162, 493.151 197.558, 492.379 195.546 C 492.074 194.750, 493.075 193.821, 494.935 193.172 C 497.962 192.117, 498 192.147, 498.624 196.053 C 499.235 199.871, 500.274 200.984, 501.450 199.082 C 501.762 198.577, 501.338 195.557, 500.509 192.372 C 499.679 189.186, 499.052 184.987, 499.115 183.040 L 499.230 179.500 499.919 183 C 500.777 187.364, 503.230 193, 504.270 193 C 504.700 193, 504.352 191.647, 503.496 189.993 C 502.055 187.205, 502.123 186.105, 504.427 174.963 C 506.079 166.975, 506.626 162.195, 506.057 160.720 C 505.075 158.175, 504.720 158.803, 503.074 166 L 502.044 170.500 502.483 166 C 502.724 163.525, 503.224 159.925, 503.593 158 C 504.092 155.397, 503.971 154.772, 503.121 155.562 C 502.491 156.146, 501 162.671, 499.807 170.062 C 498.614 177.453, 497.045 184.388, 496.319 185.473 C 495.012 187.428, 495 187.427, 495 185.423 C 495 184.310, 495.450 182.950, 496 182.400 C 496.996 181.404, 495.219 176.025, 493.889 176.008 C 493.552 176.004, 493.492 174.875, 493.755 173.500 C 494.075 171.828, 493.780 170.989, 492.867 170.967 C 491.991 170.945, 492.279 170.283, 493.668 169.123 C 495.571 167.534, 495.923 165.898, 496.548 155.751 L 497.260 144.191 491.817 139.980 C 483.434 133.493, 476.272 130.888, 465.568 130.431 C 460.581 130.219, 454.925 130.496, 453 131.047 M 585.698 131.096 C 573.275 134.019, 562.040 143.070, 556.352 154.736 L 552.658 162.315 555.579 164.723 C 557.185 166.047, 559.497 167.534, 560.717 168.028 C 561.936 168.521, 564.298 170.809, 565.967 173.113 C 568.688 176.869, 569 178.055, 569 184.630 C 569 191.878, 566.798 200, 564.832 200 C 564.310 200, 564.136 200.412, 564.447 200.915 C 564.758 201.418, 564.472 202.009, 563.810 202.230 C 562.982 202.506, 563.316 203.776, 564.886 206.315 C 567.266 210.167, 568.401 210.778, 569.594 208.849 C 570.096 208.036, 570.659 208.181, 571.506 209.339 C 572.606 210.843, 572.859 210.814, 574.508 208.991 C 577.203 206.013, 579.642 206.461, 580.363 210.066 C 581.007 213.286, 583 213.244, 583 210.010 C 583 207.642, 586.667 201.544, 590.250 197.953 C 591.763 196.438, 593 194.730, 593 194.158 C 593 191.978, 595.184 191.907, 597.023 194.027 C 600.042 197.508, 601.867 195.999, 601.251 190.531 C 600.739 185.988, 600.773 185.920, 603.365 186.390 C 606.468 186.952, 606.929 185.430, 603.943 184.482 C 601.983 183.860, 600 180.376, 600 177.556 C 600 176.834, 601.367 175.676, 603.038 174.984 C 607.105 173.300, 606.348 171.847, 600.645 170.392 C 596.102 169.233, 595.949 169.264, 596.570 171.219 C 596.988 172.536, 596.838 173.018, 596.144 172.589 C 593.314 170.840, 591.964 158.335, 594.500 157.362 C 595.325 157.045, 596.052 155.822, 596.116 154.643 C 596.208 152.952, 596.328 152.869, 596.689 154.251 C 597.035 155.571, 597.770 155.845, 599.683 155.365 C 602.126 154.752, 602.189 154.852, 601.413 158.114 C 600.281 162.874, 600.321 167.248, 601.500 167.655 C 602.050 167.845, 602.577 166.762, 602.672 165.250 C 602.766 163.738, 603.161 160.137, 603.549 157.250 C 604.184 152.522, 604.067 152, 602.368 152 C 601.330 152, 599.919 151.100, 599.232 150 C 598.545 148.900, 597.312 148, 596.492 148 C 595.671 148, 595 147.151, 595 146.114 C 595 142.102, 601.293 133, 604.068 133 C 605.131 133, 606 132.606, 606 132.125 C 606 130.048, 592.960 129.387, 585.698 131.096 M 224 132.259 C 224 134.241, 228.020 136.380, 229.314 135.086 C 230.085 134.315, 229.838 133.588, 228.446 132.536 C 226.038 130.714, 224 130.588, 224 132.259 M 319.143 131.890 C 318.197 132.490, 318.122 132.957, 318.893 133.434 C 319.502 133.810, 320 134.991, 320 136.059 C 320 138.317, 320.817 138.455, 323.250 136.608 C 325.865 134.623, 325.540 130.996, 322.750 131.015 C 321.512 131.024, 319.889 131.417, 319.143 131.890 M 336.500 133.580 C 335.400 134.414, 333.713 134.891, 332.751 134.642 C 331.789 134.392, 330.739 134.614, 330.417 135.135 C 330.095 135.655, 328.970 135.808, 327.916 135.473 C 325.673 134.761, 325.287 136.513, 327.500 137.362 C 329.425 138.100, 329.404 139.453, 327.436 141.421 C 326.576 142.281, 326.200 143.515, 326.601 144.163 C 327.001 144.810, 327.367 147.626, 327.414 150.420 C 327.484 154.538, 327.810 155.449, 329.136 155.232 C 332.083 154.750, 332.137 157.810, 329.193 158.470 C 327.425 158.867, 325.399 160.751, 323.297 163.954 C 319.284 170.070, 316.338 170.173, 311.425 164.371 C 307.346 159.554, 305.658 153.477, 306.884 148.020 C 307.381 145.809, 307.498 143.993, 307.144 143.985 C 306.790 143.977, 307.607 143.410, 308.961 142.725 C 311.426 141.478, 313.788 135, 311.778 135 C 309.668 135, 305 139.254, 305 141.177 C 305 142.853, 304.555 143.105, 302.500 142.589 C 300.819 142.167, 299.997 142.378, 299.989 143.231 C 299.983 143.929, 298.342 146.075, 296.341 148 C 291.773 152.395, 288.451 159.555, 286.962 168.214 C 283.904 185.994, 293.686 205.995, 309.307 213.904 C 313.951 216.254, 314.089 216.265, 315.590 214.404 C 316.684 213.047, 317.275 212.859, 317.646 213.750 C 317.932 214.438, 319.077 215, 320.190 215 C 321.569 215, 322.032 215.473, 321.644 216.485 C 319.583 221.857, 340.734 220.747, 352.236 214.880 C 357.999 211.940, 367.154 202.971, 370.309 197.174 C 373.801 190.757, 376 181.967, 376 174.420 C 376 168.805, 373.497 158.489, 371.098 154.216 C 370.202 152.620, 370.084 152.632, 369.413 154.374 C 368.927 155.635, 369.232 156.550, 370.346 157.173 C 371.255 157.683, 372 158.779, 372 159.609 C 372 160.439, 371.551 160.840, 371.002 160.501 C 370.453 160.162, 369.021 160.572, 367.820 161.414 C 364.994 163.393, 362.765 161.786, 363.618 158.386 C 364.070 156.586, 363.807 156, 362.549 156 C 361.609 156, 361.173 155.529, 361.550 154.919 C 361.918 154.324, 363.294 154.108, 364.609 154.438 C 366.300 154.862, 367 154.617, 367 153.601 C 367 152.810, 367.301 151.378, 367.670 150.418 C 368.127 149.227, 367.968 148.902, 367.170 149.395 C 366.438 149.848, 366 149.426, 366 148.267 C 366 145.580, 358.421 138.606, 351.648 135.062 C 345.211 131.694, 339.700 131.154, 336.500 133.580 M 466.435 135.206 C 466.050 136.419, 466.132 137.551, 466.617 137.722 C 469.546 138.752, 470.165 140.086, 470.213 145.468 C 470.245 149.014, 469.790 151.512, 469.026 151.984 C 468.089 152.563, 468.073 152.927, 468.960 153.475 C 470.395 154.362, 470.358 154.414, 471.788 149.525 C 472.543 146.943, 472.609 145.209, 471.975 144.575 C 470.696 143.296, 470.715 141.706, 472 142.500 C 472.603 142.873, 473 141.522, 473 139.094 C 473 136.139, 472.486 134.795, 471.066 134.035 C 468.204 132.504, 467.213 132.754, 466.435 135.206 M 232 138.345 C 232 140.285, 235.670 143.322, 237.012 142.492 C 237.788 142.013, 237.435 141.027, 235.901 139.395 C 233.380 136.711, 232 136.340, 232 138.345 M 306.079 140.583 C 306.127 141.748, 306.364 141.985, 306.683 141.188 C 306.972 140.466, 306.936 139.603, 306.604 139.271 C 306.272 138.939, 306.036 139.529, 306.079 140.583 M 344.143 140.058 C 338.039 141.283, 337.116 142.313, 337.669 147.289 C 338.352 153.435, 340.589 159.032, 343.911 162.910 C 345.518 164.785, 347.431 167.436, 348.161 168.801 C 348.891 170.166, 350.617 172.514, 351.995 174.019 L 354.500 176.755 355.859 170.128 C 356.606 166.482, 357.281 160.952, 357.359 157.837 C 357.437 154.722, 357.837 151.835, 358.250 151.420 C 358.663 151.006, 359 149.569, 359 148.226 C 359 146.464, 358.582 145.947, 357.494 146.364 C 356.457 146.762, 355.444 145.783, 354.240 143.221 C 352.313 139.119, 350.951 138.692, 344.143 140.058 M 590.250 140.138 C 588.760 141.642, 588.576 143.380, 590 142.500 C 590.550 142.160, 591 142.359, 591 142.941 C 591 143.523, 590.612 144, 590.139 144 C 589.665 144, 589.503 145.181, 589.779 146.625 C 590.200 148.825, 590.430 148.984, 591.200 147.608 C 591.705 146.704, 591.979 144.371, 591.809 142.421 C 591.561 139.578, 591.253 139.126, 590.250 140.138 M 60.396 146.209 C 60.858 150.593, 60.752 152.045, 60.045 151 C 59.174 149.712, 59.028 149.747, 59.015 151.250 C 59.001 152.851, 58.834 152.834, 57.054 151.054 C 55.456 149.456, 54.534 149.273, 51.889 150.032 C 50.118 150.540, 47.619 150.691, 46.335 150.369 C 45.011 150.037, 44 150.233, 44 150.822 C 44 151.393, 42.987 152.006, 41.750 152.184 C 40.069 152.425, 39.563 153.089, 39.749 154.811 C 39.885 156.079, 39.586 156.862, 39.084 156.552 C 38.582 156.241, 37.943 156.553, 37.664 157.244 C 37.386 157.935, 37.122 157.093, 37.079 155.372 C 36.990 151.851, 35.387 150.119, 31.575 149.428 C 29.461 149.044, 28.766 149.473, 27.847 151.728 C 27.225 153.253, 25.844 156.486, 24.777 158.913 C 18.134 174.023, 21.880 193.782, 33.634 205.628 L 38.468 210.500 38.794 207.296 C 38.973 205.534, 38.651 203.217, 38.078 202.146 C 37.278 200.651, 37.383 200.067, 38.533 199.626 C 39.357 199.310, 40.480 197.869, 41.029 196.424 C 41.685 194.699, 42.538 193.993, 43.514 194.367 C 44.581 194.777, 45 194.242, 45 192.469 C 45 189.643, 43.282 189.232, 41.524 191.637 C 40.567 192.946, 40.281 190.843, 40.100 181.137 C 39.936 172.396, 40.201 169, 41.045 169 C 41.796 169, 41.991 169.898, 41.589 171.500 C 41.047 173.659, 41.297 174, 43.422 174 C 44.775 174, 46.160 173.550, 46.500 173 C 47.816 170.870, 49.001 172.165, 49.016 175.750 C 49.024 177.813, 49.683 182.200, 50.480 185.500 C 52.029 191.917, 52.277 201.934, 51.116 211.222 C 50.406 216.905, 50.421 216.951, 53.350 217.972 C 54.971 218.537, 57.570 219, 59.123 219 L 61.948 219 61.521 209.750 C 61.125 201.147, 61.162 200.920, 62.046 206.500 C 62.569 209.800, 63.118 214.075, 63.264 216 C 63.521 219.357, 63.706 219.513, 67.805 219.809 C 72.656 220.161, 82.009 217.737, 86.554 214.951 C 89.177 213.343, 89.552 212.599, 89.210 209.672 C 88.389 202.640, 94.255 195.970, 101.907 195.235 C 106.637 194.780, 106.964 194.556, 108.598 190.629 C 112.067 182.290, 111.327 160, 107.580 160 C 106.001 160, 100.809 153.524, 101.686 152.648 C 102.015 152.318, 101.710 151.355, 101.006 150.508 C 100.029 149.330, 98.606 149.116, 94.960 149.600 C 90.841 150.146, 90.126 149.978, 89.712 148.366 C 89.448 147.340, 89.180 148.188, 89.116 150.250 C 89.022 153.295, 88.624 154, 87 154 C 85.900 154, 84.948 153.438, 84.885 152.750 C 84.821 152.063, 84.709 150.825, 84.635 150 C 84.561 149.175, 83.453 148.352, 82.174 148.170 C 80.732 147.966, 80.040 147.338, 80.354 146.519 C 80.642 145.768, 80 144.972, 78.869 144.676 C 77.620 144.349, 76.993 143.474, 77.188 142.328 C 77.468 140.689, 76.583 140.470, 68.616 140.209 L 59.732 139.918 60.396 146.209 M 464.557 145.250 C 465.445 148.140, 465.648 148.335, 466.933 147.541 C 468.889 146.333, 468.154 143, 465.933 143 C 464.250 143, 463.994 143.419, 464.557 145.250 M 238.696 145.637 C 238.346 145.988, 239.001 147.597, 240.153 149.214 C 242.850 153.003, 245.174 151.441, 242.626 147.551 C 240.943 144.983, 239.872 144.461, 238.696 145.637 M 350 145.393 C 350 145.609, 350.675 146.045, 351.500 146.362 C 352.325 146.678, 353 146.501, 353 145.969 C 353 145.436, 352.325 145, 351.500 145 C 350.675 145, 350 145.177, 350 145.393 M 44 147 C 44 147.550, 44.450 148, 45 148 C 45.550 148, 46 147.550, 46 147 C 46 146.450, 45.550 146, 45 146 C 44.450 146, 44 146.450, 44 147 M 154.710 148.914 C 152.895 151.986, 152.514 154.004, 153.750 153.994 C 155.054 153.983, 158.125 147.725, 157.253 146.853 C 156.795 146.395, 155.650 147.322, 154.710 148.914 M 68.500 149 C 68.160 149.550, 68.359 150, 68.941 150 C 69.523 150, 70 149.550, 70 149 C 70 148.450, 69.802 148, 69.559 148 C 69.316 148, 68.840 148.450, 68.500 149 M 594.981 150.012 C 593.048 151.206, 594.043 151.915, 596.434 151.047 C 597.497 150.661, 597.926 150.072, 597.386 149.738 C 596.846 149.405, 595.764 149.528, 594.981 150.012 M 183.255 153.072 C 177.378 154.852, 176.499 157.577, 176.512 173.960 C 176.529 196.103, 177.265 196.811, 200.558 197.094 C 212.712 197.241, 214.462 197.047, 216.838 195.282 C 220.890 192.274, 222.197 185.731, 221.552 171.692 C 220.982 159.312, 220.561 157.724, 216.989 154.489 C 215.042 152.725, 213.194 152.477, 200.647 152.295 C 192.866 152.182, 185.040 152.531, 183.255 153.072 M 244 155.918 C 244 158.899, 245.078 161, 246.607 161 C 248.253 161, 248.344 160.036, 247.025 156.565 C 245.881 153.558, 244 153.155, 244 155.918 M 53 156.031 C 53 156.564, 53.675 157, 54.500 157 C 55.325 157, 56 156.823, 56 156.607 C 56 156.391, 55.325 155.955, 54.500 155.638 C 53.675 155.322, 53 155.499, 53 156.031 M 314.510 156.016 C 314.856 156.575, 315.557 156.774, 316.069 156.457 C 317.456 155.600, 317.198 155, 315.441 155 C 314.584 155, 314.165 155.457, 314.510 156.016 M 320.500 156 C 320.160 156.550, 320.161 157.451, 320.502 158.003 C 321.233 159.186, 325 157.479, 325 155.965 C 325 154.690, 321.292 154.719, 320.500 156 M 150.667 157.667 C 150.300 158.033, 150.018 159.721, 150.039 161.417 L 150.078 164.500 151.539 161.135 C 152.343 159.285, 153 157.597, 153 157.385 C 153 156.754, 151.385 156.948, 150.667 157.667 M 211.105 158.373 C 209.450 160.368, 210.839 163, 213.548 163 C 216.365 163, 217.346 161.666, 216.497 158.991 C 215.770 156.700, 212.778 156.357, 211.105 158.373 M 466.005 159.817 C 466.001 162.609, 465.702 163.040, 464.118 162.538 C 462.931 162.161, 462.020 162.505, 461.650 163.470 C 460.912 165.392, 458.276 165.409, 452.736 163.529 C 448.615 162.129, 439.060 162.607, 437.370 164.296 C 436.525 165.142, 439.265 170.954, 440.228 170.359 C 440.671 170.085, 440.774 169.443, 440.457 168.931 C 440.141 168.419, 440.359 168, 440.941 168 C 441.523 168, 442 168.450, 442 169 C 442 169.550, 443.750 170, 445.889 170 C 449.317 170, 450.498 170.721, 455.832 176.072 C 460.799 181.054, 462.389 182.086, 464.693 181.822 C 467.439 181.507, 467.496 181.373, 467.298 175.660 C 467.187 172.448, 466.553 169.167, 465.890 168.368 C 464.987 167.280, 464.971 166.629, 465.826 165.774 C 467.225 164.375, 466.961 164.032, 470.952 172.442 C 473.988 178.841, 474.354 179.237, 475.623 177.501 C 476.380 176.465, 477 174.081, 477 172.202 C 477 169.665, 477.365 168.926, 478.417 169.330 C 479.550 169.764, 481 168.193, 481 166.532 C 481 165.417, 473.582 162.998, 471.849 163.548 C 470.694 163.914, 469.988 163.828, 470.280 163.357 C 470.571 162.885, 469.730 161.149, 468.410 159.500 L 466.010 156.500 466.005 159.817 M 490 159 C 490 160.867, 490.267 161.133, 491.200 160.200 C 492.133 159.267, 492.133 158.733, 491.200 157.800 C 490.267 156.867, 490 157.133, 490 159 M 41 159.059 C 41 159.641, 41.450 159.840, 42 159.500 C 42.550 159.160, 43 158.684, 43 158.441 C 43 158.198, 42.550 158, 42 158 C 41.450 158, 41 158.477, 41 159.059 M 589.151 159.589 C 589.067 160.754, 587.894 162.183, 586.500 162.818 C 583.887 164.008, 583.300 165.450, 585 166.500 C 585.550 166.840, 586 166.641, 586 166.059 C 586 165.477, 586.742 165, 587.648 165 C 589.089 165, 589.221 165.977, 588.697 172.770 C 588.368 177.044, 588.477 181.153, 588.940 181.902 C 590.502 184.430, 590.885 179.919, 590.079 168.500 C 589.652 162.450, 589.234 158.440, 589.151 159.589 M 74.216 161.013 C 72.122 162.721, 71.899 163.853, 71.526 174.688 L 71.119 186.500 72.511 179.500 C 73.276 175.650, 74.654 169.966, 75.574 166.868 C 77.604 160.026, 77.258 158.533, 74.216 161.013 M 190.921 163.274 C 186.076 166.539, 183.452 173.249, 184.906 178.652 C 186.270 183.715, 190.089 187.647, 195.104 189.149 C 200.063 190.635, 207.019 188.187, 210.089 183.875 C 212.389 180.645, 213.598 174.476, 212.649 170.810 C 211.926 168.015, 208.303 163.739, 205.316 162.157 C 201.636 160.208, 194.670 160.748, 190.921 163.274 M 319.500 162 C 318.419 163.749, 320.022 165.227, 321.589 163.926 C 322.365 163.282, 323 162.360, 323 161.878 C 323 160.672, 320.262 160.768, 319.500 162 M 488.500 163 C 488.160 163.550, 488.561 164, 489.391 164 C 490.221 164, 491.359 164.787, 491.920 165.750 C 492.759 167.191, 492.945 167.226, 492.970 165.950 C 493.025 163.103, 489.766 160.952, 488.500 163 M 247 167.441 C 247 171.155, 248.637 173.109, 249.615 170.561 C 250.389 168.544, 249.257 164, 247.981 164 C 247.441 164, 247 165.548, 247 167.441 M 66.992 166.509 C 65.415 168.409, 64.119 184.068, 65.048 190 C 65.453 192.589, 65.800 191.157, 66.378 184.500 C 66.809 179.550, 67.621 173.615, 68.184 171.310 C 69.455 166.106, 68.965 164.132, 66.992 166.509 M 194.500 167.208 C 191.301 169.042, 190.066 171.241, 190.032 175.161 C 190.007 178.043, 190.655 179.373, 193.077 181.411 C 197.244 184.918, 201.350 184.803, 205.077 181.077 C 208.803 177.350, 208.918 173.244, 205.411 169.077 C 202.616 165.755, 198.317 165.019, 194.500 167.208 M 58.220 176.209 C 58.740 179.074, 58.904 182.732, 58.582 184.338 C 58.261 185.945, 58.558 190.238, 59.243 193.880 L 60.488 200.500 61.157 195.500 C 61.524 192.750, 61.864 186.725, 61.912 182.110 C 61.984 175.225, 61.686 173.482, 60.250 172.392 C 57.449 170.266, 57.219 170.700, 58.220 176.209 M 500.761 173.470 C 500.501 174.828, 500.620 175.735, 501.024 175.485 C 502.099 174.821, 502.950 171, 502.023 171 C 501.589 171, 501.021 172.111, 500.761 173.470 M 479.500 174 C 479.840 174.550, 480.316 175, 480.559 175 C 480.802 175, 481 174.550, 481 174 C 481 173.450, 480.523 173, 479.941 173 C 479.359 173, 479.160 173.450, 479.500 174 M 482.649 175.528 C 483.337 177.320, 486.471 179.196, 487.335 178.332 C 487.902 177.765, 483.808 174, 482.624 174 C 482.315 174, 482.327 174.688, 482.649 175.528 M 247.688 175.646 C 247.309 176.024, 247 177.608, 247 179.167 C 247 182.450, 249.909 183.219, 250.150 180 C 250.233 178.900, 250.345 177.475, 250.400 176.833 C 250.518 175.461, 248.678 174.655, 247.688 175.646 M 430.700 176.341 C 430.417 177.078, 430.531 178.241, 430.953 178.925 C 431.526 179.851, 431.885 179.743, 432.361 178.502 C 432.712 177.586, 433 176.423, 433 175.918 C 433 174.512, 431.280 174.827, 430.700 176.341 M 507.195 177.500 C 507.215 179.150, 507.439 179.704, 507.693 178.731 C 507.947 177.758, 507.930 176.408, 507.656 175.731 C 507.382 175.054, 507.175 175.850, 507.195 177.500 M 466.500 184 C 466.160 184.550, 466.359 185, 466.941 185 C 467.523 185, 468 184.550, 468 184 C 468 183.450, 467.802 183, 467.559 183 C 467.316 183, 466.840 183.450, 466.500 184 M 246.093 186.827 C 244.560 189.691, 244.733 192, 246.481 192 C 248.303 192, 249.641 187.241, 248.219 185.819 C 247.507 185.107, 246.845 185.421, 246.093 186.827 M 415.079 189.583 C 415.127 190.748, 415.364 190.985, 415.683 190.188 C 415.972 189.466, 415.936 188.603, 415.604 188.271 C 415.272 187.939, 415.036 188.529, 415.079 189.583 M 491.954 190.840 C 490.583 192.402, 488.828 193.891, 488.054 194.149 C 487.161 194.446, 486.949 195.109, 487.475 195.960 C 488.106 196.980, 488.931 196.535, 490.913 194.107 C 492.347 192.350, 494.505 190.838, 495.709 190.747 C 497.377 190.621, 497.643 190.275, 496.827 189.291 C 495.310 187.464, 494.763 187.638, 491.954 190.840 M 341.239 189.733 C 339.013 190.512, 337.721 193.959, 339.053 195.564 C 340.726 197.580, 346.895 197.437, 347.691 195.364 C 348.848 192.348, 344.532 188.581, 341.239 189.733 M 482 192 C 482 192.550, 482.450 193, 483 193 C 483.550 193, 484 192.550, 484 192 C 484 191.450, 483.550 191, 483 191 C 482.450 191, 482 191.450, 482 192 M 284 192.941 C 284 193.459, 284.445 194.157, 284.989 194.493 C 285.555 194.843, 285.723 194.442, 285.382 193.552 C 284.717 191.820, 284 191.503, 284 192.941 M 69 194 C 67.778 194.790, 67.901 194.972, 69.667 194.985 C 70.858 194.993, 72.060 195.563, 72.338 196.250 C 72.615 196.938, 72.878 196.488, 72.921 195.250 C 73.004 192.872, 71.491 192.390, 69 194 M 241.573 197.528 C 239.964 199.984, 240.172 202, 242.033 202 C 243.247 202, 246.096 196.430, 245.293 195.627 C 244.164 194.497, 243.255 194.962, 241.573 197.528 M 100.619 198.108 C 87.550 201.686, 90.649 219.983, 104.327 219.996 C 110.744 220.003, 116.189 212.874, 114.601 206.547 C 113.101 200.568, 106.402 196.525, 100.619 198.108 M 332.425 201.443 C 332.072 202.849, 332.077 205.169, 332.435 206.597 C 332.993 208.821, 333.477 209.104, 335.794 208.567 C 337.565 208.156, 338.032 208.252, 337.143 208.845 C 335.221 210.127, 337.460 211.352, 340.385 210.618 C 343.133 209.929, 345.846 205, 343.479 205 C 342.665 205, 342 204.314, 342 203.475 C 342 202.043, 340.606 201.234, 335.283 199.577 C 333.470 199.012, 332.950 199.352, 332.425 201.443 M 334.473 202.044 C 334.148 202.570, 334.809 203, 335.941 203 C 338.356 203, 338.599 202.444, 336.532 201.651 C 335.725 201.341, 334.798 201.518, 334.473 202.044 M 574.651 202.468 C 574.341 203.275, 574.518 204.202, 575.044 204.527 C 575.570 204.852, 576 204.191, 576 203.059 C 576 200.644, 575.444 200.401, 574.651 202.468 M 102 205.117 C 102 207.885, 101.726 208.181, 99.550 207.765 C 98.054 207.479, 96.898 207.822, 96.581 208.648 C 96.093 209.920, 97.701 210.471, 100.750 210.075 C 101.512 209.976, 102 211.101, 102 212.956 C 102 214.995, 102.495 216, 103.500 216 C 104.500 216, 105 215, 105 213 C 105 210.333, 105.333 210, 108 210 C 109.650 210, 111 209.550, 111 209 C 111 208.450, 109.650 208, 108 208 C 105.333 208, 105 207.667, 105 205 C 105 203, 104.500 202, 103.500 202 C 102.488 202, 102 203.013, 102 205.117 M 235.697 206.540 C 233.177 210.001, 234.583 211.740, 237.605 208.901 C 238.922 207.664, 240 206.055, 240 205.326 C 240 203.193, 237.650 203.857, 235.697 206.540 M 335.509 206.015 C 335.844 206.557, 337.516 207, 339.226 207 C 343.003 207, 342.622 206.501, 338.200 205.659 C 336.139 205.266, 335.129 205.400, 335.509 206.015 M 317 210.059 C 317 210.641, 317.450 210.840, 318 210.500 C 318.550 210.160, 319 209.684, 319 209.441 C 319 209.198, 318.550 209, 318 209 C 317.450 209, 317 209.477, 317 210.059 M 227.861 213.914 C 226.562 214.967, 225.863 216.192, 226.307 216.637 C 227.269 217.603, 232.164 215.031, 232.753 213.250 C 233.377 211.364, 230.530 211.750, 227.861 213.914 M 580.638 215.500 C 580.322 216.325, 580.451 217, 580.924 217 C 581.398 217, 582.045 216.325, 582.362 215.500 C 582.678 214.675, 582.549 214, 582.076 214 C 581.602 214, 580.955 214.675, 580.638 215.500 M 219.250 219.031 C 218.012 219.529, 217 220.673, 217 221.575 C 217 222.744, 217.502 223.007, 218.750 222.494 C 219.713 222.097, 221.287 221.547, 222.250 221.270 C 224.236 220.699, 224.662 217.966, 222.750 218.063 C 222.063 218.098, 220.488 218.534, 219.250 219.031 M 208.750 222.689 C 207.787 222.941, 207 223.592, 207 224.137 C 207 225.563, 213.267 224.741, 213.756 223.250 C 214.164 222.007, 212.201 221.787, 208.750 222.689 M 188 223.954 C 188.825 224.513, 190.363 224.976, 191.417 224.985 C 193.975 225.005, 193.177 224.433, 189.500 223.610 C 187.309 223.120, 186.905 223.213, 188 223.954 M 339.500 224 C 337.870 224.701, 337.812 224.872, 339.191 224.930 C 340.121 224.968, 341.160 224.550, 341.500 224 C 342.211 222.850, 342.176 222.850, 339.500 224 M 197 225 C 197 225.550, 198.575 226, 200.500 226 C 202.425 226, 204 225.550, 204 225 C 204 224.450, 202.425 224, 200.500 224 C 198.575 224, 197 224.450, 197 225 M 21.022 238.250 C 21.034 238.938, 21.924 240.625, 23 242 C 24.076 243.375, 24.966 245.963, 24.978 247.750 C 24.990 249.537, 25.450 251, 26 251 C 26.550 251, 27 249.591, 27 247.868 C 27 246.145, 27.951 243.197, 29.114 241.315 C 31.824 236.931, 30.927 235.890, 27.991 240.013 L 25.764 243.141 23.897 240.070 C 21.909 236.802, 20.986 236.217, 21.022 238.250 M 177.743 237.590 C 176.651 238.683, 176.836 251, 177.945 251 C 178.465 251, 179.028 248.863, 179.195 246.250 L 179.500 241.500 182.920 246.250 C 184.800 248.863, 186.713 251, 187.170 251 C 187.626 251, 188 247.823, 188 243.941 C 188 239.490, 187.631 237.110, 187 237.500 C 186.450 237.840, 185.986 240.004, 185.968 242.309 L 185.937 246.500 183.718 243.967 C 182.498 242.574, 180.822 240.402, 179.993 239.141 C 179.164 237.879, 178.152 237.181, 177.743 237.590 M 218 241.441 C 218 243.948, 218.450 246, 219 246 C 219.550 246, 220 244.227, 220 242.059 C 220 239.891, 219.550 237.840, 219 237.500 C 218.389 237.122, 218 238.656, 218 241.441 M 78.266 239.946 C 77.640 240.947, 77.523 242.132, 78 242.622 C 78.472 243.105, 79.002 245.040, 79.179 246.923 C 79.355 248.806, 80.034 250.521, 80.687 250.735 C 81.598 251.034, 81.604 250.410, 80.709 248.041 C 79.852 245.769, 79.838 244.490, 80.656 243.179 C 81.479 241.862, 81.459 240.980, 80.577 239.775 C 79.489 238.286, 79.294 238.300, 78.266 239.946 M 33.200 242.200 C 32.540 242.860, 32 244.570, 32 246 C 32 249.144, 33.670 251, 36.500 251 C 39.330 251, 41 249.144, 41 246 C 41 242.856, 39.330 241, 36.500 241 C 35.345 241, 33.860 241.540, 33.200 242.200 M 44.386 245.500 L 44.500 250.500 48.250 250.650 L 52 250.800 52 245.900 C 52 243.205, 51.550 241, 51 241 C 50.450 241, 50 242.773, 50 244.941 C 50 251.829, 45.492 251.177, 44.692 244.174 C 44.403 241.654, 44.307 242.070, 44.386 245.500 M 55 246.059 C 55 249.177, 55.384 250.881, 56 250.500 C 56.550 250.160, 57 248.496, 57 246.801 C 57 245.040, 57.750 243.152, 58.750 242.392 C 60.341 241.184, 60.250 241.061, 57.750 241.032 C 55.108 241.001, 55 241.199, 55 246.059 M 68.380 242.452 C 67.625 244.419, 68.705 245.937, 71.657 247.060 C 74.839 248.269, 73.684 250.210, 70.290 249.358 C 68.475 248.902, 67.913 249.051, 68.410 249.854 C 69.394 251.447, 73.515 251.289, 74.912 249.606 C 75.805 248.530, 75.703 247.846, 74.463 246.606 C 73.580 245.723, 72.177 245, 71.345 245 C 70.514 245, 70.033 244.438, 70.277 243.750 C 70.521 243.063, 71.710 242.612, 72.918 242.749 C 74.176 242.891, 74.852 242.570, 74.499 241.999 C 73.556 240.473, 69.010 240.810, 68.380 242.452 M 85.571 242.571 C 83.732 244.411, 83.672 245.006, 84.975 248.435 C 86.404 252.193, 91.634 252.092, 93.084 248.278 C 95.242 242.603, 89.728 238.415, 85.571 242.571 M 96 246.125 C 96 248.806, 96.450 251, 97 251 C 97.550 251, 98 249.362, 98 247.360 C 98 245.098, 98.639 243.253, 99.689 242.485 C 101.184 241.392, 101.069 241.250, 98.689 241.250 C 96.138 241.250, 96 241.500, 96 246.125 M 103.001 241.167 C 103.001 241.350, 103.892 243.845, 104.982 246.711 C 106.781 251.445, 106.815 252.004, 105.353 252.823 C 104.390 253.361, 104.151 253.975, 104.758 254.351 C 106.183 255.231, 107.498 253.356, 109.911 247 C 112.326 240.640, 112.252 241, 111.136 241 C 110.660 241, 109.602 242.688, 108.785 244.750 L 107.298 248.500 106.353 245.068 C 105.833 243.180, 104.866 241.455, 104.204 241.235 C 103.542 241.014, 103 240.983, 103.001 241.167 M 192.200 242.200 C 191.540 242.860, 191 244.570, 191 246 C 191 247.430, 191.540 249.140, 192.200 249.800 C 193.735 251.335, 197.664 251.353, 198.605 249.830 C 199.101 249.027, 198.767 248.875, 197.537 249.347 C 195.578 250.099, 192.691 248.308, 193.570 246.887 C 193.871 246.399, 195.441 246, 197.059 246 C 198.805 246, 200 245.472, 200 244.700 C 200 242.753, 197.869 241, 195.500 241 C 194.345 241, 192.860 241.540, 192.200 242.200 M 202.006 242.191 C 202.016 244.744, 204.107 251, 204.949 251 C 205.420 251, 206.345 249.537, 207.007 247.750 L 208.209 244.500 209.626 247.796 C 211.311 251.715, 212.556 251.260, 213.957 246.214 C 215.215 241.684, 215.240 241, 214.145 241 C 213.674 241, 212.838 242.463, 212.285 244.250 C 211.296 247.453, 211.111 247.349, 209.627 242.750 C 208.707 239.897, 207.266 240.742, 206.217 244.750 L 205.236 248.500 204.489 245.229 C 203.732 241.914, 201.995 239.790, 202.006 242.191 M 34.701 242.632 C 33.476 243.858, 33.946 248.765, 35.341 249.300 C 37.612 250.172, 39.176 248.424, 38.830 245.400 C 38.515 242.651, 36.221 241.112, 34.701 242.632 M 87.200 243.200 C 85.681 244.719, 85.660 247.260, 87.153 248.753 C 88.694 250.294, 92 248.528, 92 246.165 C 92 244.459, 90.229 242, 89 242 C 88.670 242, 87.860 242.540, 87.200 243.200 M 193.701 242.632 C 192.295 244.038, 193.059 245, 195.583 245 C 197.205 245, 198.012 244.535, 197.750 243.750 C 197.269 242.304, 194.730 241.603, 193.701 242.632 M 218 250 C 218 250.550, 218.450 251, 219 251 C 219.550 251, 220 250.550, 220 250 C 220 249.450, 219.550 249, 219 249 C 218.450 249, 218 249.450, 218 250 M 33.692 290.428 C 29.365 291.591, 22 297.078, 22 299.139 C 22 299.549, 23.913 300.023, 26.250 300.193 L 30.500 300.500 31 306.701 C 31.275 310.111, 32.063 313.464, 32.750 314.151 C 33.750 315.150, 34 314.984, 34 313.322 C 34 312.179, 35.013 310.538, 36.250 309.674 C 38.139 308.357, 38.219 308.096, 36.750 308.052 C 34.543 307.986, 34.571 307.116, 36.879 304.114 C 38.168 302.438, 38.935 302.085, 39.456 302.929 C 40.006 303.819, 40.690 303.685, 42.099 302.410 C 43.897 300.783, 44.104 300.784, 45.933 302.439 C 48.077 304.380, 47.720 306.650, 45.165 307.327 C 43.730 307.707, 43.720 307.784, 45.089 307.884 C 48.287 308.117, 50.014 315.236, 47.853 319.274 C 44.860 324.867, 40.837 325.789, 36.609 321.850 C 34.610 319.988, 34.549 319.987, 33.867 321.830 C 33.212 323.601, 28.970 324.884, 22.250 325.346 C 19.450 325.538, 19.456 325.735, 22.386 330.047 C 23.698 331.978, 27.186 334.888, 30.136 336.515 C 37.874 340.780, 46.316 340.739, 53.968 336.399 C 56.975 334.693, 60.341 332.084, 61.449 330.601 C 63.897 327.322, 63.101 326.597, 55.250 324.956 C 49.423 323.738, 49.205 323.259, 51.294 316.276 C 53.123 310.162, 51.951 297.171, 49.401 295.296 C 47.715 294.056, 48.123 293.962, 53 294.460 L 58.500 295.023 56.155 293.025 C 54.866 291.925, 51.965 290.529, 49.709 289.922 C 46.246 288.989, 45.424 289.067, 44.435 290.420 C 43.393 291.845, 43.125 291.855, 42.009 290.511 C 40.534 288.733, 40.013 288.728, 33.692 290.428 M 39.500 291 C 39.160 291.550, 39.359 292, 39.941 292 C 40.523 292, 41 291.550, 41 291 C 41 290.450, 40.802 290, 40.559 290 C 40.316 290, 39.840 290.450, 39.500 291 M 59.612 298.531 C 60.525 299.923, 61.466 300.867, 61.705 300.629 C 62.298 300.035, 59.710 296, 58.736 296 C 58.306 296, 58.700 297.139, 59.612 298.531 M 560.701 312.632 C 559.127 314.207, 560.061 316.130, 562.250 315.820 C 563.487 315.644, 564.500 314.831, 564.500 314.014 C 564.500 312.425, 561.866 311.467, 560.701 312.632 M 568 313.893 C 568 316.128, 570.312 317.288, 571.800 315.800 C 573.288 314.312, 572.128 312, 569.893 312 C 568.702 312, 568 312.702, 568 313.893 M 576.323 313.601 C 575.470 315.823, 578.134 317.294, 579.868 315.560 C 580.621 314.807, 580.932 313.699, 580.559 313.096 C 579.553 311.468, 577.026 311.769, 576.323 313.601 M 36.636 326.506 C 36.268 327.465, 36.604 327.705, 37.715 327.279 C 38.789 326.867, 39.087 327.051, 38.605 327.830 C 37.513 329.598, 42.250 329.294, 44.559 327.448 C 46.459 325.929, 46.455 325.909, 44.382 326.474 C 43.217 326.791, 41.118 326.615, 39.717 326.083 C 37.786 325.348, 37.041 325.451, 36.636 326.506 M -0 560.032 L -0 762.063 198.802 761.963 C 308.143 761.908, 398.098 761.556, 398.701 761.181 C 399.305 760.807, 399.956 759.375, 400.149 758 C 400.342 756.625, 401.175 755.458, 402 755.406 C 402.825 755.354, 404.850 754.740, 406.500 754.041 C 410.247 752.454, 418.532 749.983, 422.500 749.270 C 424.150 748.973, 425.860 748.116, 426.300 747.365 C 426.740 746.614, 428.625 746, 430.491 746 C 432.356 746, 434.160 745.550, 434.500 745 C 434.840 744.450, 436.576 744, 438.359 744 C 440.142 744, 442.106 743.494, 442.725 742.875 C 443.344 742.256, 445.796 741.689, 448.175 741.615 C 450.554 741.540, 453.060 741.121, 453.745 740.684 C 455.076 739.833, 459.042 739.451, 476.625 738.480 C 487.691 737.869, 487.753 737.878, 488.339 740.213 C 488.663 741.504, 488.667 743.559, 488.347 744.780 C 487.975 746.203, 488.218 747, 489.023 747 C 491.414 747, 483.268 751.750, 477.895 753.489 C 474.928 754.450, 471.825 755.922, 471 756.760 C 469.663 758.119, 469.717 758.206, 471.500 757.562 C 476.294 755.832, 488.775 753.029, 491.750 753.015 C 493.538 753.007, 495 753.450, 495 754 C 495 754.550, 494.438 755.007, 493.750 755.015 C 492.777 755.027, 492.784 755.211, 493.784 755.845 C 495.414 756.879, 494.356 759.766, 492.165 760.265 C 488.984 760.990, 553.653 762.132, 580 761.817 L 606.500 761.500 606.752 559.189 C 606.909 434.054, 606.649 357.099, 606.071 357.456 C 605.557 357.774, 557.769 358.022, 499.874 358.009 L 394.611 357.985 397.131 360.743 C 399.699 363.553, 400.285 365.074, 404.548 380 C 407.484 390.282, 407.552 394.230, 405.036 408.604 C 400.649 433.675, 390.929 450.023, 376.478 456.639 C 370.491 459.380, 365.211 459.880, 354.367 458.732 C 345.361 457.780, 341.247 456.354, 340.473 453.916 C 340.139 452.862, 339.460 452, 338.964 452 C 338.468 452, 338.345 452.736, 338.691 453.636 C 339.125 454.768, 338.883 455.120, 337.909 454.776 C 337.124 454.499, 336.605 453.221, 336.737 451.890 C 336.943 449.815, 336.838 449.731, 335.938 451.250 C 334.493 453.688, 332.635 453.551, 333.945 451.102 C 334.773 449.556, 334.478 448.888, 332.355 447.497 C 330.200 446.085, 329.590 446.024, 328.833 447.145 C 328.148 448.158, 327.990 448.005, 328.208 446.536 C 328.389 445.317, 327.838 444.436, 326.754 444.214 C 325.464 443.949, 325.177 444.298, 325.657 445.549 C 326.232 447.046, 326.057 447.029, 324.154 445.400 C 321.609 443.220, 321.475 442.861, 323.500 443.638 C 326.351 444.733, 324.923 442.488, 320.719 439.269 C 314.041 434.156, 306.543 427.123, 307.137 426.530 C 307.435 426.232, 308.496 426.890, 309.494 427.994 C 310.493 429.097, 311.686 430, 312.145 430 C 312.928 430, 312.277 429.084, 307.650 423.666 C 306.633 422.475, 304.214 419.119, 302.275 416.208 C 298.765 410.939, 296.800 409.718, 298.986 414.164 C 300.091 416.412, 300.057 416.405, 298.089 414 C 295.829 411.237, 295.354 409.483, 297.170 410.605 C 297.985 411.109, 298.121 410.748, 297.619 409.414 C 295.813 404.621, 293.432 400.049, 292.730 400.026 C 292.306 400.012, 292.900 401.844, 294.049 404.097 C 295.199 406.350, 295.894 408.440, 295.593 408.740 C 295.293 409.040, 294.724 408.434, 294.329 407.393 C 293.935 406.352, 293.024 404.905, 292.306 404.179 C 291.588 403.452, 291 402.214, 291 401.429 C 291 400.643, 290.550 400, 290 400 C 289.450 400, 288.984 399.212, 288.965 398.250 C 288.923 396.191, 286.088 390.898, 286.035 392.782 C 286.016 393.487, 286.681 395.694, 287.513 397.686 C 288.345 399.677, 288.871 401.462, 288.681 401.652 C 288.271 402.062, 286.673 398.963, 284.552 393.646 C 283.150 390.129, 283.156 389.846, 284.619 390.407 C 285.927 390.909, 286.101 390.538, 285.563 388.395 C 285.200 386.949, 284.644 384.469, 284.327 382.883 C 284.010 381.298, 283.307 380, 282.767 380 C 281.836 380, 282.177 382.552, 283.655 386.657 C 284.044 387.737, 283.942 388.161, 283.409 387.680 C 282.909 387.230, 281.982 384.980, 281.348 382.680 C 280.391 379.207, 280.180 378.964, 280.098 381.241 C 280.044 382.749, 281.161 387.345, 282.581 391.456 C 284 395.566, 284.903 399.348, 284.587 399.860 C 284.270 400.372, 284.683 401.048, 285.505 401.363 C 286.326 401.679, 288.125 404.400, 289.502 407.411 C 290.880 410.422, 292.455 413.163, 293.003 413.502 C 294.607 414.493, 294.150 415.790, 292.250 415.639 C 288.384 415.332, 280.659 400.424, 276.974 386.157 C 275.291 379.646, 274.893 375.640, 275.159 367.906 L 275.500 357.998 137.750 357.999 L 0 358 -0 560.032 M 0.490 560 C 0.490 671.375, 0.607 716.938, 0.750 661.250 C 0.893 605.562, 0.893 514.437, 0.750 458.750 C 0.607 403.062, 0.490 448.625, 0.490 560 M 280.985 359.750 C 280.972 361.246, 280.828 361.282, 280 360 C 279.146 358.678, 279.029 358.684, 279.015 360.050 C 279.007 360.903, 279.423 362.028, 279.940 362.550 C 280.457 363.072, 281.051 365.750, 281.260 368.500 C 281.548 372.297, 281.683 371.635, 281.820 365.750 C 281.919 361.488, 281.775 358, 281.500 358 C 281.225 358, 280.993 358.788, 280.985 359.750 M 285.558 359.212 C 285.149 360.154, 285.066 363.384, 285.372 366.391 C 285.759 370.191, 285.559 372.007, 284.714 372.350 C 284.031 372.627, 284.265 372.877, 285.250 372.921 C 286.212 372.964, 287 373.708, 287 374.573 C 287 379.054, 291.749 394.476, 295.293 401.500 C 303.157 417.089, 310.246 426.243, 320.500 434.050 C 323.250 436.143, 327.822 439.651, 330.661 441.845 C 336.029 445.995, 339.294 448, 340.681 448 C 341.128 448, 339.245 446.426, 336.497 444.502 C 321.074 433.705, 310.288 423.500, 304.261 414 C 299.193 406.013, 290.971 389.212, 291.082 387.073 C 291.146 385.840, 293.970 390.767, 294.480 393 C 295.016 395.348, 305.573 414.007, 309.708 419.917 C 309.869 420.146, 310.246 420.087, 310.547 419.786 C 310.848 419.486, 309.792 417.273, 308.200 414.870 C 306.608 412.466, 304.450 408.925, 303.403 407 C 302.356 405.075, 301.274 403.275, 300.998 403 C 300.050 402.054, 298.047 397.489, 295.954 391.500 C 294.801 388.200, 293.479 384.600, 293.016 383.500 C 292.150 381.444, 290.196 369.411, 289.647 362.753 C 289.477 360.691, 289.037 358.704, 288.669 358.336 C 287.768 357.435, 287.878 362.108, 288.943 370 C 289.425 373.575, 290.078 378.525, 290.393 381 L 290.966 385.500 289.915 381.500 C 289.337 379.300, 288.287 373, 287.582 367.500 C 286.789 361.310, 286.018 358.152, 285.558 359.212 M 307.543 358.931 C 307.226 359.443, 307.425 360.144, 307.984 360.490 C 308.543 360.835, 309 360.416, 309 359.559 C 309 357.802, 308.400 357.544, 307.543 358.931 M 300 361 C 300 362.867, 300.267 363.133, 301.200 362.200 C 302.133 361.267, 302.133 360.733, 301.200 359.800 C 300.267 358.867, 300 359.133, 300 361 M 311 360.941 C 311 361.459, 311.450 362.160, 312 362.500 C 312.550 362.840, 313 362.416, 313 361.559 C 313 360.702, 312.550 360, 312 360 C 311.450 360, 311 360.423, 311 360.941 M 319 361.059 C 319 361.641, 319.450 361.840, 320 361.500 C 320.550 361.160, 321 360.684, 321 360.441 C 321 360.198, 320.550 360, 320 360 C 319.450 360, 319 360.477, 319 361.059 M 303.694 362.639 C 302.895 363.438, 303.798 365, 305.059 365 C 305.577 365, 306 364.325, 306 363.500 C 306 361.954, 304.820 361.513, 303.694 362.639 M 278.799 363.750 C 278.624 364.163, 278.745 367.425, 279.068 371 L 279.655 377.500 279.827 370.250 C 279.984 363.666, 279.672 361.695, 278.799 363.750 M 297 365.382 C 297 366.207, 297.450 367.160, 298 367.500 C 298.550 367.840, 299 367.443, 299 366.618 C 299 365.793, 298.550 364.840, 298 364.500 C 297.450 364.160, 297 364.557, 297 365.382 M 309.079 366.583 C 309.127 367.748, 309.364 367.985, 309.683 367.188 C 309.972 366.466, 309.936 365.603, 309.604 365.271 C 309.272 364.939, 309.036 365.529, 309.079 366.583 M 300.707 367.989 C 300.993 369.083, 301.648 369.718, 302.162 369.400 C 302.714 369.059, 302.617 368.244, 301.926 367.411 C 300.349 365.510, 300.091 365.632, 300.707 367.989 M 320 367 C 320 367.550, 320.450 368, 321 368 C 321.550 368, 322 367.550, 322 367 C 322 366.450, 321.550 366, 321 366 C 320.450 366, 320 366.450, 320 367 M 313 369 C 313 369.550, 313.450 370, 314 370 C 314.550 370, 315 369.550, 315 369 C 315 368.450, 314.550 368, 314 368 C 313.450 368, 313 368.450, 313 369 M 295.015 370.691 C 295.024 371.686, 295.467 373.175, 296 374 C 296.758 375.173, 296.973 374.914, 296.985 372.809 C 296.993 371.329, 296.550 369.840, 296 369.500 C 295.450 369.160, 295.007 369.696, 295.015 370.691 M 305.639 369.694 C 304.513 370.820, 304.954 372, 306.500 372 C 307.325 372, 308 371.577, 308 371.059 C 308 369.798, 306.438 368.895, 305.639 369.694 M 317 370.941 C 317 371.459, 317.450 372.160, 318 372.500 C 318.550 372.840, 319 372.416, 319 371.559 C 319 370.702, 318.550 370, 318 370 C 317.450 370, 317 370.423, 317 370.941 M 299.031 373.500 C 299.031 374.600, 299.467 376.175, 300 377 C 300.803 378.242, 300.969 378.156, 300.969 376.500 C 300.969 375.400, 300.533 373.825, 300 373 C 299.197 371.758, 299.031 371.844, 299.031 373.500 M 310 373.441 C 310 374.298, 310.450 375, 311 375 C 311.550 375, 312 374.577, 312 374.059 C 312 373.541, 311.550 372.840, 311 372.500 C 310.450 372.160, 310 372.584, 310 373.441 M 302.657 374.746 C 302.331 375.274, 302.710 376.559, 303.500 377.603 C 304.605 379.062, 304.940 379.154, 304.953 378 C 304.976 375.864, 303.372 373.590, 302.657 374.746 M 281.638 376.500 C 281.955 377.325, 282.391 378, 282.607 378 C 282.823 378, 283 377.325, 283 376.500 C 283 375.675, 282.564 375, 282.031 375 C 281.499 375, 281.322 375.675, 281.638 376.500 M 297.127 377 C 296.938 380.649, 301.490 394.843, 302.519 393.814 C 302.740 393.593, 302.078 390.957, 301.047 387.956 C 300.017 384.955, 298.730 380.925, 298.189 379 C 297.647 377.075, 297.169 376.175, 297.127 377 M 307 377.941 C 307 378.459, 307.450 379.160, 308 379.500 C 308.550 379.840, 309 379.416, 309 378.559 C 309 377.702, 308.550 377, 308 377 C 307.450 377, 307 377.423, 307 377.941 M 312 380.441 C 312 381.298, 312.450 382, 313 382 C 313.550 382, 314 381.577, 314 381.059 C 314 380.541, 313.550 379.840, 313 379.500 C 312.450 379.160, 312 379.584, 312 380.441 M 326 386 C 326 386.550, 326.477 387, 327.059 387 C 327.641 387, 327.840 386.550, 327.500 386 C 327.160 385.450, 326.684 385, 326.441 385 C 326.198 385, 326 385.450, 326 386 M 334 386 C 334 386.550, 334.477 387, 335.059 387 C 335.641 387, 335.840 386.550, 335.500 386 C 335.160 385.450, 334.684 385, 334.441 385 C 334.198 385, 334 385.450, 334 386 M 297.070 388.691 C 297.109 389.136, 297.527 390.400, 298 391.500 C 298.829 393.428, 298.862 393.421, 298.930 391.309 C 298.968 390.104, 298.550 388.840, 298 388.500 C 297.450 388.160, 297.032 388.246, 297.070 388.691 M 323 388.882 C 323 389.432, 323.450 390.160, 324 390.500 C 324.550 390.840, 325 390.668, 325 390.118 C 325 389.568, 324.550 388.840, 324 388.500 C 323.450 388.160, 323 388.332, 323 388.882 M 320 391.408 C 320 392.334, 325.329 402.004, 325.658 401.675 C 326.222 401.111, 321.586 391.050, 320.750 391.024 C 320.337 391.011, 320 391.183, 320 391.408 M 328 392 C 328 392.550, 328.450 393, 329 393 C 329.550 393, 330 392.550, 330 392 C 330 391.450, 329.550 391, 329 391 C 328.450 391, 328 391.450, 328 392 M 325.556 393.953 C 325.945 395.303, 326.879 397.022, 327.632 397.775 C 329.686 399.828, 329.266 397.904, 326.917 394.500 C 325.050 391.792, 324.917 391.739, 325.556 393.953 M 299 395.282 C 299 396.861, 308.078 412.256, 308.664 411.670 C 309.120 411.214, 305.898 403.823, 304.884 403 C 304.546 402.725, 303.299 400.587, 302.114 398.250 C 299.903 393.890, 299 393.028, 299 395.282 M 306 394.511 C 306 395.696, 310.295 404.039, 310.698 403.636 C 311.201 403.132, 307.200 394, 306.475 394 C 306.214 394, 306 394.230, 306 394.511 M 314 395.250 C 314 396.598, 320.251 407.603, 322.066 409.450 C 323.829 411.244, 323.039 407.420, 321.237 405.439 C 320.267 404.372, 318.614 401.566, 317.563 399.202 C 315.551 394.674, 314 392.954, 314 395.250 M 317.022 394.750 C 317.034 395.163, 317.924 396.625, 319 398 C 320.076 399.375, 320.966 400.879, 320.978 401.342 C 321.006 402.406, 325 407.539, 325 406.512 C 325 405.147, 318.558 394, 317.769 394 C 317.346 394, 317.010 394.337, 317.022 394.750 M 303 395.897 C 303 396.455, 304.350 399.202, 306 402 C 307.650 404.798, 309 407.430, 309 407.847 C 309 409.657, 318.638 421.696, 319.442 420.891 C 319.697 420.636, 318.602 419.032, 317.008 417.327 C 314.251 414.377, 305 398.669, 305 396.937 C 305 396.487, 304.550 395.840, 304 395.500 C 303.450 395.160, 303 395.339, 303 395.897 M 311.059 397.842 C 311.026 398.581, 311.900 400.329, 313 401.727 C 314.100 403.126, 315 404.847, 315 405.552 C 315 406.257, 315.346 406.983, 315.768 407.167 C 316.191 407.350, 317.541 408.798, 318.768 410.385 C 319.996 411.972, 321 412.999, 321 412.669 C 321 412.154, 319.311 409.375, 312.309 398.372 C 311.547 397.176, 311.096 396.984, 311.059 397.842 M 332 397.878 C 332 398.495, 332.417 399, 332.927 399 C 333.436 399, 334.059 399.788, 334.311 400.750 C 334.697 402.226, 334.786 402.246, 334.884 400.872 C 334.948 399.977, 334.325 398.685, 333.500 398 C 332.464 397.140, 332 397.102, 332 397.878 M 329.032 400.750 C 329.073 401.730, 331.562 405, 332.266 405 C 332.566 405, 332.292 403.879, 331.656 402.508 C 330.570 400.167, 328.961 399.089, 329.032 400.750 M 289.702 404.967 C 289.985 406.049, 290.831 407.444, 291.582 408.068 C 292.614 408.924, 292.569 408.444, 291.400 406.100 C 289.632 402.556, 288.953 402.103, 289.702 404.967 M 326.606 404.416 C 326.941 405.287, 327.653 406, 328.190 406 C 329.505 406, 328.682 403.727, 327.187 403.229 C 326.456 402.985, 326.233 403.443, 326.606 404.416 M 595.250 412.163 C 587.813 416.270, 586.835 417.692, 589.571 420.429 C 591.675 422.532, 593.178 422.412, 597.693 419.781 C 603.066 416.649, 604.046 415.491, 604.692 411.510 C 605.426 406.989, 604.507 407.052, 595.250 412.163 M 315.344 411.492 C 316.430 413.833, 318.039 414.911, 317.968 413.250 C 317.927 412.270, 315.438 409, 314.734 409 C 314.434 409, 314.708 410.121, 315.344 411.492 M 535.451 418.378 C 527.724 422.295, 513.549 429.276, 503.951 433.891 C 487.390 441.854, 465.326 452.713, 461.339 454.864 C 460.328 455.409, 454.325 458.390, 448 461.487 C 441.675 464.584, 435.825 467.523, 435 468.017 C 434.175 468.511, 428.325 471.451, 422 474.551 C 415.675 477.651, 407.350 481.905, 403.500 484.006 C 399.650 486.106, 395.825 488.140, 395 488.525 C 394.175 488.910, 390.800 490.588, 387.500 492.254 C 384.200 493.920, 376.550 497.716, 370.500 500.689 C 364.450 503.662, 357.925 506.925, 356 507.940 C 354.075 508.954, 346.200 513.031, 338.500 516.998 C 330.800 520.966, 323.790 524.839, 322.921 525.606 C 322.053 526.373, 320.835 527, 320.216 527 C 319.262 527, 312.576 531.090, 311.073 532.593 C 309.258 534.408, 439.143 469.987, 471.500 453.024 C 483.516 446.724, 493.327 441.741, 512.500 432.199 C 521.300 427.819, 532.100 422.333, 536.500 420.007 C 540.900 417.681, 545.948 415.040, 547.717 414.139 C 550.604 412.668, 552.176 410.799, 550.250 411.128 C 549.837 411.198, 543.178 414.461, 535.451 418.378 M 318.500 416 C 318.840 416.550, 319.316 417, 319.559 417 C 319.802 417, 320 416.550, 320 416 C 320 415.450, 319.523 415, 318.941 415 C 318.359 415, 318.160 415.450, 318.500 416 M 333 415.500 C 333 415.775, 333.900 416.900, 335 418 C 336.100 419.100, 337 419.582, 337 419.071 C 337 418.561, 336.293 417.436, 335.429 416.571 C 333.826 414.969, 333 414.605, 333 415.500 M 311.879 417.750 C 313.154 420.101, 319.007 425.619, 318.973 424.437 C 318.944 423.431, 312.319 416, 311.451 416 C 311.164 416, 311.357 416.788, 311.879 417.750 M 338 416.378 C 338 416.585, 338.675 417.315, 339.500 418 C 340.729 419.020, 341 418.951, 341 417.622 C 341 416.730, 340.325 416, 339.500 416 C 338.675 416, 338 416.170, 338 416.378 M 343.500 417 C 343.840 417.550, 344.568 418, 345.118 418 C 345.668 418, 345.840 417.550, 345.500 417 C 345.160 416.450, 344.432 416, 343.882 416 C 343.332 416, 343.160 416.450, 343.500 417 M 300 418 C 300 418.550, 300.477 419, 301.059 419 C 301.641 419, 301.840 418.550, 301.500 418 C 301.160 417.450, 300.684 417, 300.441 417 C 300.198 417, 300 417.450, 300 418 M 330 417.554 C 330 418.343, 335.668 424, 336.458 424 C 336.795 424, 336.623 423.164, 336.076 422.142 C 335.074 420.269, 330 416.438, 330 417.554 M 330.958 423.331 C 334.494 427.034, 335.022 428, 333.508 428 C 331.988 428, 331.853 428.253, 332.842 429.242 C 333.830 430.230, 334.275 430.180, 335.026 428.992 C 336.462 426.721, 336.343 426.514, 331.250 422.452 L 326.500 418.663 330.958 423.331 M 555 420.005 C 551.848 421.617, 541.411 426.340, 539.500 427.021 C 534.215 428.902, 530.455 430.655, 524.333 434.094 C 522.466 435.142, 520.079 436, 519.029 436 C 517.978 436, 516.876 436.391, 516.580 436.870 C 516.285 437.348, 513.671 438.881, 510.771 440.275 C 500.221 445.348, 492.109 449, 491.392 449 C 490.988 449, 489.947 449.604, 489.079 450.342 C 488.210 451.080, 483.788 453.156, 479.250 454.955 C 474.712 456.753, 471 458.552, 471 458.952 C 471 459.352, 469.194 460.276, 466.986 461.005 C 464.778 461.733, 462.473 462.930, 461.863 463.665 C 461.254 464.399, 459.953 465, 458.974 465 C 457.994 465, 454.561 466.466, 451.346 468.258 C 448.131 470.050, 443.250 472.575, 440.500 473.868 C 437.750 475.161, 434.600 476.715, 433.500 477.322 C 426.721 481.062, 414.409 487, 413.432 487 C 412.796 487, 410.615 488.319, 408.586 489.932 C 406.557 491.544, 403.601 493.148, 402.017 493.496 C 400.434 493.844, 398.602 494.775, 397.947 495.564 C 397.291 496.354, 396.190 497, 395.500 497 C 394.810 497, 393.745 497.602, 393.134 498.338 C 392.524 499.074, 390.218 500.217, 388.012 500.878 C 385.805 501.539, 384 502.512, 384 503.040 C 384 503.568, 383.529 504, 382.953 504 C 381.696 504, 366.717 511.215, 365.990 512.171 C 365.709 512.540, 364.247 513.151, 362.740 513.529 C 361.233 513.907, 360 514.870, 360 515.667 C 360 516.465, 359.607 516.875, 359.126 516.578 C 358.180 515.993, 342.354 523.619, 341.438 525.100 C 341.132 525.595, 340.009 526, 338.941 526 C 337.873 526, 337 526.473, 337 527.051 C 337 527.629, 335.425 528.760, 333.500 529.564 C 331.575 530.369, 330 531.453, 330 531.973 C 330 532.494, 328.200 533.459, 326 534.118 C 323.800 534.777, 322 535.889, 322 536.589 C 322 537.288, 320.988 538.005, 319.750 538.180 C 318.512 538.356, 317.500 539.175, 317.500 540 C 317.500 541.382, 314.720 543.237, 313.419 542.722 C 313.111 542.600, 312.436 543.256, 311.920 544.179 C 311.403 545.103, 308.542 547.093, 305.561 548.602 C 302.581 550.111, 299.929 552.162, 299.668 553.161 C 299.407 554.159, 297.986 555.435, 296.510 555.996 C 295.035 556.557, 292.089 558.772, 289.965 560.917 C 287.840 563.063, 284.729 565.120, 283.051 565.489 C 281.373 565.857, 279.999 566.686, 279.998 567.329 C 279.996 567.973, 276.869 570.259, 273.047 572.408 C 266.811 575.915, 266.208 576.521, 267.166 578.310 C 268.065 579.990, 267.968 580.202, 266.544 579.655 C 264.470 578.859, 261.143 580.548, 258.721 583.627 C 257.722 584.897, 255.689 586.517, 254.202 587.226 C 252.413 588.079, 251.393 589.441, 251.184 591.257 C 251.010 592.766, 250.420 594, 249.875 594 C 249.329 594, 249.131 593.597, 249.435 593.105 C 249.740 592.612, 249.316 591.952, 248.494 591.636 C 247.570 591.282, 247 591.646, 247 592.590 C 247 593.431, 246.590 593.864, 246.088 593.554 C 244.929 592.838, 243.099 605.177, 244.177 606.440 C 244.665 607.011, 246.457 606.668, 248.740 605.568 C 250.808 604.571, 254.880 602.929, 257.789 601.918 C 260.697 600.908, 264.367 599.163, 265.943 598.041 C 267.519 596.918, 269.265 596, 269.823 596 C 270.763 596, 279.429 592.083, 298 583.264 C 302.125 581.305, 308.650 578.244, 312.500 576.462 C 327.642 569.451, 343.810 561.681, 392 538.255 C 401.625 533.576, 412.650 528.286, 416.500 526.499 C 436.019 517.437, 462.874 504.522, 503 484.899 C 521.975 475.620, 538.175 467.560, 539 466.988 C 539.825 466.416, 543.650 464.396, 547.500 462.500 C 551.350 460.603, 558.775 456.752, 564 453.941 C 569.225 451.131, 576.842 447.069, 580.926 444.916 C 585.010 442.762, 587.837 441, 587.207 441 C 586.578 441, 586.281 440.430, 586.548 439.734 C 586.816 439.038, 584.551 436.055, 581.517 433.106 C 578.483 430.157, 576 427.380, 576 426.935 C 576 425.685, 563.930 420.232, 560 419.707 C 558.075 419.449, 555.825 419.584, 555 420.005 M 354 421 C 354 421.550, 354.477 422, 355.059 422 C 355.641 422, 355.840 421.550, 355.500 421 C 355.160 420.450, 354.684 420, 354.441 420 C 354.198 420, 354 420.450, 354 421 M 344.500 422 C 344.840 422.550, 345.316 423, 345.559 423 C 345.802 423, 346 422.550, 346 422 C 346 421.450, 345.523 421, 344.941 421 C 344.359 421, 344.160 421.450, 344.500 422 M 349.500 422 C 349.840 422.550, 350.568 423, 351.118 423 C 351.668 423, 351.840 422.550, 351.500 422 C 351.160 421.450, 350.432 421, 349.882 421 C 349.332 421, 349.160 421.450, 349.500 422 M 314.500 425 C 314.840 425.550, 315.316 426, 315.559 426 C 315.802 426, 316 425.550, 316 425 C 316 424.450, 315.523 424, 314.941 424 C 314.359 424, 314.160 424.450, 314.500 425 M 338.813 425.683 C 339.534 425.972, 340.397 425.936, 340.729 425.604 C 341.061 425.272, 340.471 425.036, 339.417 425.079 C 338.252 425.127, 338.015 425.364, 338.813 425.683 M 344.500 426 C 344.840 426.550, 345.316 427, 345.559 427 C 345.802 427, 346 426.550, 346 426 C 346 425.450, 345.523 425, 344.941 425 C 344.359 425, 344.160 425.450, 344.500 426 M 338 429.500 C 338.685 430.325, 339.695 431, 340.245 431 C 340.803 431, 340.694 430.337, 340 429.500 C 339.315 428.675, 338.305 428, 337.755 428 C 337.197 428, 337.306 428.663, 338 429.500 M 355 429 C 355 429.550, 355.477 430, 356.059 430 C 356.641 430, 356.840 429.550, 356.500 429 C 356.160 428.450, 355.684 428, 355.441 428 C 355.198 428, 355 428.450, 355 429 M 320 430 C 320 430.550, 320.450 431, 321 431 C 321.550 431, 322 430.550, 322 430 C 322 429.450, 321.550 429, 321 429 C 320.450 429, 320 429.450, 320 430 M 343.500 430 C 343.840 430.550, 344.541 431, 345.059 431 C 345.577 431, 346 430.550, 346 430 C 346 429.450, 345.298 429, 344.441 429 C 343.584 429, 343.160 429.450, 343.500 430 M 325.615 434.216 C 327.202 435.434, 328.725 436.695, 329 437.018 C 330.198 438.426, 336.772 443, 337.594 442.999 C 338.732 442.997, 333.820 438.706, 328.320 434.896 C 323.415 431.498, 321.425 430.998, 325.615 434.216 M 334 432.409 C 334 432.599, 334.675 433.315, 335.500 434 C 336.365 434.718, 337 434.815, 337 434.229 C 337 433.671, 336.325 432.955, 335.500 432.638 C 334.675 432.322, 334 432.219, 334 432.409 M 340 434 C 340 434.550, 340.477 435, 341.059 435 C 341.641 435, 341.840 434.550, 341.500 434 C 341.160 433.450, 340.684 433, 340.441 433 C 340.198 433, 340 433.450, 340 434 M 349.813 433.683 C 350.534 433.972, 351.397 433.936, 351.729 433.604 C 352.061 433.272, 351.471 433.036, 350.417 433.079 C 349.252 433.127, 349.015 433.364, 349.813 433.683 M 600.813 442.683 C 601.534 442.972, 602.397 442.936, 602.729 442.604 C 603.061 442.272, 602.471 442.036, 601.417 442.079 C 600.252 442.127, 600.015 442.364, 600.813 442.683 M 339 444 C 339 444.550, 339.477 445, 340.059 445 C 340.641 445, 340.840 444.550, 340.500 444 C 340.160 443.450, 339.684 443, 339.441 443 C 339.198 443, 339 443.450, 339 444 M 342.500 446 C 342.840 446.550, 343.316 447, 343.559 447 C 343.802 447, 344 446.550, 344 446 C 344 445.450, 343.523 445, 342.941 445 C 342.359 445, 342.160 445.450, 342.500 446 M 601.250 445.662 C 600.563 445.940, 600 447.007, 600 448.034 C 600 449.060, 599.262 450.313, 598.361 450.818 C 596.843 451.668, 596.844 451.980, 598.375 455.050 C 599.682 457.669, 599.763 458.540, 598.764 459.200 C 597.794 459.842, 597.902 460.273, 599.229 461.056 C 600.180 461.617, 601.254 462.020, 601.617 461.952 C 601.980 461.885, 602.657 462.430, 603.123 463.165 C 604.270 464.974, 604.363 463.890, 604.125 451.500 C 604.002 445.120, 603.769 444.646, 601.250 445.662 M 331 449 C 331 449.550, 331.477 450, 332.059 450 C 332.641 450, 332.840 449.550, 332.500 449 C 332.160 448.450, 331.684 448, 331.441 448 C 331.198 448, 331 448.450, 331 449 M 253.997 471.250 C 253.992 476.529, 251.048 491.804, 249.066 496.837 C 246.344 503.748, 242.660 517.993, 243.402 518.735 C 244.795 520.129, 247.038 516.153, 248.064 510.471 C 248.657 507.187, 250.217 500.900, 251.531 496.500 C 252.845 492.100, 254.388 484.687, 254.960 480.026 C 256.251 469.510, 256.256 468, 255 468 C 254.450 468, 253.999 469.462, 253.997 471.250 M 556.250 494.491 C 553.024 495.893, 552.006 498.268, 554.081 499.550 C 555.156 500.214, 561 495.368, 561 493.813 C 561 492.703, 560.053 492.838, 556.250 494.491 M 541 500.500 C 541 502.183, 541.863 502.373, 543.834 501.124 C 544.898 500.449, 544.831 500.149, 543.502 499.639 C 541.175 498.746, 541 498.807, 541 500.500 M 557.015 510.695 C 557.024 511.688, 557.442 513.149, 557.944 513.943 C 558.726 515.180, 559.261 515.190, 561.678 514.015 C 563.230 513.260, 564.950 512.611, 565.500 512.571 C 566.050 512.532, 566.500 511.825, 566.500 511 C 566.500 509.920, 565.170 509.415, 561.750 509.195 C 557.721 508.937, 557.002 509.164, 557.015 510.695 M 584 512.942 C 584 513.461, 580.737 514.920, 576.750 516.185 C 572.763 517.449, 569.006 519.119, 568.402 519.895 C 567.798 520.671, 566.839 521.019, 566.272 520.668 C 565.705 520.317, 563.184 521.124, 560.670 522.461 C 558.156 523.797, 554.401 525.209, 552.325 525.599 C 550.249 525.988, 547.944 526.913, 547.204 527.653 C 546.463 528.394, 545.171 529, 544.333 529 C 543.495 529, 541.614 529.665, 540.154 530.479 C 538.694 531.292, 533.543 533.561, 528.707 535.520 C 523.871 537.479, 518.440 539.910, 516.639 540.922 C 514.838 541.933, 511.938 543.074, 510.194 543.457 C 508.450 543.840, 506.766 544.569, 506.452 545.077 C 506.139 545.585, 505.190 546, 504.345 546 C 503.500 546, 501.405 547, 499.689 548.221 C 497.973 549.443, 495.794 550.561, 494.845 550.706 C 493.897 550.851, 491.406 551.837, 489.311 552.898 C 487.215 553.959, 481.450 556.531, 476.500 558.615 C 471.550 560.699, 467.350 562.763, 467.167 563.202 C 466.983 563.641, 466.196 564, 465.417 564 C 464.637 564, 464 564.477, 464 565.059 C 464 565.641, 463.579 565.858, 463.064 565.540 C 461.894 564.816, 444 573.944, 444 575.265 C 444 575.798, 443.100 575.998, 442 575.710 C 440.900 575.423, 440 575.546, 440 575.985 C 440 576.424, 438.979 577.040, 437.730 577.353 C 436.482 577.666, 434.475 578.840, 433.272 579.961 C 432.068 581.083, 430.539 582, 429.873 582 C 427.919 582, 417.678 588.020, 415.500 590.449 C 414.400 591.676, 412.208 592.999, 410.629 593.389 C 409.050 593.780, 407.106 594.752, 406.308 595.549 C 405.510 596.347, 403.791 597, 402.488 597 C 399.426 597, 398.460 598.591, 400.729 599.895 C 402.052 600.656, 401.509 600.758, 398.582 600.299 C 395.254 599.776, 394.758 599.926, 395.281 601.291 C 395.928 602.975, 395.304 603.298, 389 604.541 C 384.517 605.425, 382.135 607.165, 384.329 607.953 C 385.639 608.424, 385.658 608.763, 384.468 610.383 C 383.266 612.020, 382.559 612.131, 379.037 611.237 C 374.850 610.175, 372.369 611.353, 375.122 613.096 C 376.048 613.683, 375.188 613.997, 372.500 614.055 C 370.300 614.102, 367.600 614.512, 366.500 614.966 C 364.694 615.712, 364.833 615.936, 367.941 617.286 C 370.789 618.523, 371.047 618.865, 369.441 619.274 C 367.850 619.679, 367.938 619.789, 369.929 619.884 C 371.265 619.948, 373.965 619.486, 375.929 618.859 C 377.893 618.231, 380.162 617.532, 380.972 617.305 C 382.133 616.979, 382.172 616.724, 381.154 616.095 C 379.761 615.234, 382.924 613.643, 388.500 612.400 C 390.150 612.032, 392.175 611.197, 393 610.543 C 393.825 609.890, 396.460 608.738, 398.856 607.983 C 401.252 607.228, 403.438 606.023, 403.713 605.305 C 403.989 604.587, 405.297 604, 406.621 604 C 407.944 604, 409.809 603.560, 410.764 603.022 C 412.994 601.765, 424.916 598, 426.665 598 C 427.399 598, 428 597.550, 428 597 C 428 596.450, 428.663 596, 429.473 596 C 430.284 596, 432.871 595.153, 435.223 594.118 C 450.422 587.431, 454.233 585.833, 460.500 583.519 C 464.350 582.098, 468.175 580.513, 469 579.997 C 472.022 578.107, 482.815 573, 483.786 573 C 484.336 573, 485.027 572.372, 485.322 571.604 C 485.616 570.836, 488.252 569.428, 491.179 568.476 C 494.105 567.523, 497.175 566.179, 498 565.490 C 498.825 564.801, 500.512 563.928, 501.750 563.551 C 502.988 563.174, 504 562.503, 504 562.060 C 504 561.618, 505.751 560.976, 507.891 560.633 C 510.031 560.291, 512.042 559.334, 512.359 558.506 C 512.677 557.678, 513.865 557, 515 557 C 516.135 557, 517.322 556.325, 517.638 555.500 C 517.955 554.675, 519.066 554, 520.107 554 C 521.148 554, 522 553.550, 522 553 C 522 552.450, 522.862 552, 523.917 552 C 524.971 552, 525.983 551.663, 526.167 551.250 C 526.863 549.683, 532.932 547, 535.782 547 C 537.417 547, 539.343 546.292, 540.061 545.427 C 540.779 544.562, 543.196 542.926, 545.433 541.793 C 547.670 540.659, 549.725 539.419, 550 539.037 C 550.275 538.655, 553.943 536.720, 558.151 534.736 C 562.358 532.753, 566.098 530.651, 566.460 530.065 C 566.822 529.479, 567.991 529, 569.059 529 C 570.127 529, 571.890 528.110, 572.977 527.023 C 574.187 525.813, 575.609 525.297, 576.641 525.693 C 577.797 526.136, 578.095 525.963, 577.589 525.144 C 577.111 524.371, 577.937 523.569, 579.925 522.876 C 581.616 522.287, 583 521.173, 583 520.402 C 583 519.631, 583.675 519, 584.500 519 C 585.325 519, 586 518.347, 586 517.550 C 586 516.752, 586.738 515.686, 587.640 515.181 C 588.543 514.676, 588.966 513.754, 588.581 513.132 C 587.738 511.767, 584 511.612, 584 512.942 M 305 535 C 304.099 535.582, 303.975 535.975, 304.691 535.985 C 305.346 535.993, 306.160 535.550, 306.500 535 C 307.267 533.758, 306.921 533.758, 305 535 M 597.079 545.583 C 597.127 546.748, 597.364 546.985, 597.683 546.188 C 597.972 545.466, 597.936 544.603, 597.604 544.271 C 597.272 543.939, 597.036 544.529, 597.079 545.583 M 599.638 549 C 599.301 550.375, 599.120 552.175, 599.236 553 C 599.352 553.825, 599.081 556.852, 598.633 559.726 C 597.984 563.894, 598.246 566.325, 599.929 571.726 C 602.355 579.516, 603.404 581.486, 604.697 580.687 C 605.403 580.251, 605.713 564.500, 605.016 564.500 C 604.931 564.500, 603.825 560.450, 602.557 555.500 C 600.766 548.511, 600.114 547.059, 599.638 549 M 591.500 567 C 591.160 567.550, 591.359 568, 591.941 568 C 592.523 568, 593 567.550, 593 567 C 593 566.450, 592.802 566, 592.559 566 C 592.316 566, 591.840 566.450, 591.500 567 M 388.190 574.977 C 385.895 576.640, 383.676 578.008, 383.259 578.017 C 382.841 578.027, 381.402 579.192, 380.060 580.606 C 378.164 582.604, 377.669 584.106, 377.841 587.339 C 378.159 593.317, 379.879 598, 381.755 598 C 382.634 598, 387.140 596.167, 391.767 593.928 C 399.765 590.057, 400.148 589.723, 399.512 587.178 C 399.145 585.705, 398.192 583.776, 397.394 582.890 C 396.596 582.005, 395.612 579.340, 395.208 576.969 C 394.803 574.597, 393.997 572.499, 393.417 572.306 C 392.837 572.112, 390.485 573.315, 388.190 574.977 M 368.190 591.750 C 368.474 595.181, 368.755 595.500, 371.500 595.500 C 375.747 595.500, 376.122 592.094, 372.134 589.738 C 368.088 587.348, 367.836 587.477, 368.190 591.750 M 349 610.417 C 349 611.288, 349.712 612, 350.583 612 C 352.349 612, 352.042 609.847, 350.188 609.229 C 349.534 609.011, 349 609.546, 349 610.417 M 421.505 613.145 C 420.945 614.587, 422.023 620.291, 423.662 624.563 C 424.007 625.461, 423.584 626, 422.534 626 C 421.476 626, 420.977 626.644, 421.188 627.739 C 421.602 629.885, 425 630.734, 425 628.690 C 425 627.889, 425.868 627.006, 426.928 626.729 C 428.154 626.409, 428.728 625.546, 428.505 624.362 C 428.311 623.338, 428.119 621.495, 428.077 620.266 C 428.034 619.037, 426.682 616.562, 425.071 614.766 C 422.634 612.048, 422.036 611.776, 421.505 613.145 M 401.250 615.662 C 399.904 616.206, 399.490 620, 400.777 620 C 401.205 620, 402.563 619.294, 403.794 618.432 C 407.066 616.140, 405.172 614.080, 401.250 615.662 M 301.176 617.224 C 299.431 618.969, 299.667 619.600, 303.500 623.433 C 305.425 625.358, 307 626.525, 307 626.026 C 307 625.526, 306.550 624.840, 306 624.500 C 305.450 624.160, 305 622.614, 305 621.063 C 305 617.610, 302.899 615.501, 301.176 617.224 M 356 623 C 356 623.550, 355.355 624, 354.567 624 C 353.779 624, 352.881 624.801, 352.570 625.780 C 352.259 626.759, 350.541 628.182, 348.752 628.943 L 345.500 630.327 348.255 630.730 C 351.201 631.162, 354 629.168, 354 626.638 C 354 625.620, 354.733 625.265, 356.264 625.543 C 357.509 625.769, 359.871 625.553, 361.514 625.063 C 363.987 624.325, 364.113 624.157, 362.250 624.086 C 361.012 624.039, 360 623.550, 360 623 C 360 622.450, 359.100 622, 358 622 C 356.900 622, 356 622.450, 356 623 M 366 623 C 366 623.550, 366.450 624, 367 624 C 367.550 624, 368 623.550, 368 623 C 368 622.450, 367.550 622, 367 622 C 366.450 622, 366 622.450, 366 623 M 397.235 627.750 C 399.262 632.429, 401.170 635, 402.615 635 C 404.463 635, 404.368 634.138, 401.977 629.188 C 400.624 626.389, 399.305 625, 397.998 625 C 396.243 625, 396.165 625.281, 397.235 627.750 M 280.706 629.983 C 281.008 631.137, 281.760 631.913, 282.377 631.708 C 284.108 631.131, 283.706 628.567, 281.828 628.205 C 280.569 627.963, 280.292 628.402, 280.706 629.983 M 341.559 631.532 C 340.005 632.707, 339.931 633, 341.186 633 C 342.049 633, 343.315 632.325, 344 631.500 C 345.584 629.592, 344.098 629.611, 341.559 631.532 M 336 635 C 336 636.253, 337.061 636.253, 339 635 C 340.213 634.216, 340.069 634.028, 338.250 634.015 C 337.012 634.007, 336 634.450, 336 635 M 413.438 638.100 C 413.064 638.705, 413.692 640.392, 414.834 641.850 C 415.975 643.307, 418.617 647.068, 420.704 650.207 C 424.645 656.132, 427 657.513, 427 653.901 C 427 650.656, 423.997 645.082, 419.967 640.845 C 416.187 636.872, 414.608 636.207, 413.438 638.100 M 400 641.375 C 400 642.368, 399.045 643.953, 397.878 644.897 C 396.158 646.291, 395.892 647.232, 396.473 649.875 C 396.866 651.668, 397.821 653.378, 398.594 653.675 C 399.367 653.971, 400 655.011, 400 655.985 C 400 657.987, 402.340 660.326, 403.342 659.325 C 404.306 658.361, 404.145 654.208, 403.119 653.574 C 401.639 652.659, 401.146 647.775, 402.281 645.282 C 403.136 643.407, 403.012 642.584, 401.677 641.249 C 400.108 639.679, 400 639.687, 400 641.375 M 447.624 655.539 C 446.659 658.053, 446.943 658.702, 448.122 656.675 C 448.706 655.671, 448.973 654.639, 448.715 654.382 C 448.458 654.124, 447.966 654.645, 447.624 655.539 M 395.015 664.691 C 395.007 665.896, 395.450 667.160, 396 667.500 C 397.273 668.287, 397.273 665.970, 396 664 C 395.212 662.781, 395.028 662.910, 395.015 664.691 M 354.250 694.689 C 355.212 694.941, 356.788 694.941, 357.750 694.689 C 358.712 694.438, 357.925 694.232, 356 694.232 C 354.075 694.232, 353.288 694.438, 354.250 694.689 M 246.046 696.802 C 244.696 697.736, 242.313 699.664, 240.751 701.087 L 237.910 703.675 241.705 707.598 C 243.792 709.756, 246.973 713.204, 248.774 715.260 C 252.524 719.543, 254.006 719.769, 260.241 717.012 C 264.888 714.956, 267.443 712.707, 266.845 711.200 C 266.421 710.135, 249.696 695.014, 249 695.067 C 248.725 695.088, 247.396 695.869, 246.046 696.802 M 554.667 782.667 C 553.792 783.541, 553.797 815, 554.672 815 C 555.042 815, 558 812.691, 561.245 809.868 L 567.145 804.736 571.306 808.618 C 573.594 810.753, 575.625 812.843, 575.820 813.261 C 576.015 813.680, 577.035 814.484, 578.087 815.047 C 579.936 816.036, 580 815.502, 580 799.035 L 580 782 567.667 782 C 560.883 782, 555.033 782.300, 554.667 782.667 M 25.241 784.325 C 19.778 787.359, 17.923 795.900, 21.530 801.406 C 23.993 805.165, 36.953 816, 38.986 816 C 41.211 816, 54.771 804.344, 56.551 800.902 C 58.481 797.169, 58.385 791.461, 56.335 787.990 C 53.397 783.017, 47.508 781.652, 41.779 784.614 C 38.906 786.100, 38.439 786.100, 35.924 784.614 C 32.686 782.701, 28.376 782.585, 25.241 784.325 M 98 784.791 C 88.304 790.089, 86.207 802.796, 93.666 811.052 C 98.318 816.201, 103.272 817.742, 110.101 816.166 C 112.878 815.525, 116.941 815.287, 119.129 815.637 L 123.107 816.273 122.341 813.386 C 121.493 810.185, 121.520 808.656, 122.544 801.818 C 123.406 796.061, 120.482 789.192, 115.730 785.807 C 111.391 782.718, 102.705 782.220, 98 784.791 M 156 783.981 C 156 784.521, 158.813 787.946, 162.250 791.592 C 168.551 798.276, 169.580 800.481, 171.454 811.312 C 171.927 814.044, 172.559 815.036, 173.684 814.812 C 175.182 814.514, 194 785.925, 194 783.948 C 194 783.384, 186.308 783, 175 783 C 163.242 783, 156 783.374, 156 783.981 M 27.041 785.292 C 23.361 787.127, 20.660 792.405, 21.420 796.275 C 22.351 801.014, 35.412 814, 39.249 814 C 40.097 814, 44.214 810.737, 48.398 806.750 C 55.580 799.904, 56.004 799.259, 56.002 795.184 C 55.999 789.797, 54.774 787.451, 50.920 785.459 C 47.489 783.684, 44.589 784.233, 41.250 787.289 L 39 789.349 36.750 787.306 C 33.753 784.584, 30.016 783.809, 27.041 785.292 M 102.309 784.668 C 101.104 784.919, 98.223 786.805, 95.908 788.860 C 92.075 792.261, 91.656 793.107, 91.224 798.310 C 90.817 803.217, 91.109 804.566, 93.286 807.856 C 96.754 813.097, 101.921 815.445, 107.892 814.494 C 110.426 814.090, 114.170 813.723, 116.212 813.677 C 119.789 813.598, 119.923 813.466, 119.884 810.047 C 119.863 808.096, 120.145 804.025, 120.512 801 C 121.090 796.230, 120.868 795.048, 118.839 792.092 C 114.699 786.059, 108.663 783.349, 102.309 784.668 M 159 784.719 C 159 785.114, 161.333 787.800, 164.185 790.688 L 169.370 795.938 179.180 790.719 C 184.575 787.849, 188.992 785.163, 188.995 784.750 C 188.998 784.337, 182.250 784, 174 784 C 165.750 784, 159 784.323, 159 784.719 M 556 798.137 L 556 812.274 560.957 807.637 C 565.596 803.298, 568.362 801.991, 569.184 803.750 C 569.376 804.163, 571.439 806.279, 573.767 808.453 L 578 812.406 578 798.203 L 578 784 567 784 L 556 784 556 798.137 M 180.971 791.616 C 176.312 794.096, 172.002 796.659, 171.394 797.313 C 170.583 798.183, 170.687 800.303, 171.783 805.250 C 172.605 808.962, 173.621 812, 174.040 812 C 174.918 812, 190.331 787.998, 189.796 787.463 C 189.601 787.268, 185.629 789.137, 180.971 791.616 M 89 857.500 C 89 858.325, 89.450 859, 90 859 C 90.550 859, 91 858.325, 91 857.500 C 91 856.675, 90.550 856, 90 856 C 89.450 856, 89 856.675, 89 857.500 M 94.639 856.694 C 94.288 857.046, 94 860.858, 94 865.167 C 94 871.463, 94.294 873, 95.500 873 C 96.333 873, 97 872.111, 97 871 C 97 869.900, 97.446 869, 97.992 869 C 98.537 869, 99.545 869.900, 100.232 871 C 100.919 872.100, 102.306 873, 103.313 873 C 105.028 873, 105.013 872.832, 103.073 870.365 C 100.615 867.241, 100.472 865.683, 102.489 864.009 C 103.308 863.329, 103.710 862.341, 103.383 861.811 C 103.053 861.277, 101.808 861.771, 100.580 862.925 C 97.498 865.820, 97 865.561, 97 861.059 C 97 857.261, 95.972 855.361, 94.639 856.694 M 54.231 858.550 C 53.004 859.410, 52 860.853, 52 861.757 C 52 863.035, 52.267 863.133, 53.200 862.200 C 55.421 859.979, 56 860.972, 56 867 C 56 871.739, 56.324 873, 57.542 873 C 58.823 873, 59.035 871.700, 58.792 865.330 C 58.631 861.112, 58.042 857.509, 57.481 857.324 C 56.921 857.139, 55.459 857.691, 54.231 858.550 M 64.750 858.080 C 63.788 858.641, 63 859.752, 63 860.550 C 63 862.303, 63.467 862.350, 65.881 860.842 C 67.798 859.645, 71 860.261, 71 861.828 C 71 862.318, 69.200 864.763, 67 867.263 C 64.800 869.762, 63 872.075, 63 872.403 C 63 872.732, 65.475 873, 68.500 873 C 71.525 873, 74 872.550, 74 872 C 74 871.450, 72.650 871, 71 871 C 67.371 871, 67.230 870.072, 70.406 867.088 C 73.524 864.159, 74.131 861.632, 72.333 859.065 C 70.780 856.848, 67.579 856.432, 64.750 858.080 M 82.875 859 C 82.439 865.972, 83.004 873, 84 873 C 84.583 873, 85 869.667, 85 865 C 85 860.333, 84.583 857, 84 857 C 83.450 857, 82.944 857.900, 82.875 859 M 26.994 861.011 C 25.453 863.891, 25.789 865.596, 28.544 868.870 C 32.462 873.526, 34.632 873.749, 38.600 869.903 C 42.149 866.464, 43.123 862.106, 40.750 860.287 C 40.063 859.760, 36.910 859.289, 33.744 859.241 C 29.103 859.170, 27.796 859.513, 26.994 861.011 M 89 867 C 89 870.333, 89.444 873, 90 873 C 90.556 873, 91 870.333, 91 867 C 91 863.667, 90.556 861, 90 861 C 89.444 861, 89 863.667, 89 867 M 108 863 C 106.900 864.100, 106.006 865.563, 106.014 866.250 C 106.074 871.758, 109.855 874.766, 114.500 873 C 118.193 871.596, 117.535 870.027, 113.359 870.280 C 111.174 870.412, 109.541 870, 109.276 869.250 C 108.968 868.382, 110.081 868, 112.917 868 C 116.283 868, 117 867.661, 117 866.071 C 117 863.595, 114.405 861, 111.929 861 C 110.868 861, 109.100 861.900, 108 863 M 121.835 861.673 C 118.489 862.559, 118.947 867.969, 122.372 868.015 C 124.381 868.043, 126.275 869.747, 125.567 870.891 C 125.066 871.703, 124.323 871.708, 122.832 870.910 C 121.396 870.141, 120.470 870.130, 119.730 870.870 C 118.054 872.546, 123.863 874.383, 126.722 873.081 C 130.267 871.466, 129.642 868.166, 125.460 866.419 C 121.213 864.644, 121.774 862.807, 126.289 863.701 C 129.200 864.278, 129.372 864.181, 128.128 862.669 C 126.785 861.037, 125.190 860.784, 121.835 861.673 M 109.951 864.559 C 108.962 865.751, 109.208 866, 111.378 866 C 114.188 866, 114.922 864.568, 112.573 863.666 C 111.788 863.365, 110.608 863.767, 109.951 864.559 M 290.096 1025.210 C 285.921 1027.451, 284.007 1031.114, 283.353 1038.124 C 282.399 1048.343, 283.641 1055.567, 286.999 1059.325 L 289.836 1062.500 303 1062.500 L 316.164 1062.500 318.994 1059.333 C 322.292 1055.641, 323.708 1046.826, 322.525 1037.353 C 321.083 1025.811, 319.474 1024.672, 304 1024.241 C 295.976 1024.018, 291.774 1024.311, 290.096 1025.210 M 170.999 1028.250 C 161.349 1034.837, 162.125 1049.510, 172.381 1054.377 C 176.826 1056.486, 183.436 1056.446, 187.088 1054.289 C 189.983 1052.579, 189.985 1052.580, 193.992 1056.492 C 199.019 1061.401, 199.310 1059.926, 194.322 1054.818 C 190.729 1051.138, 190.686 1051.004, 192.468 1049.036 C 195.183 1046.035, 195.564 1038.307, 193.210 1034 C 190.310 1028.696, 185.691 1026, 179.500 1026 C 175.746 1026, 173.377 1026.627, 170.999 1028.250 M 288.543 1028.366 C 285.659 1031.250, 284.438 1039.206, 285.415 1048.746 C 286.584 1060.158, 287.868 1061.011, 303.815 1060.978 C 316.210 1060.952, 318.548 1059.867, 320.036 1053.450 C 321.269 1048.135, 321.227 1037.356, 319.956 1032.779 C 318.298 1026.810, 316.241 1026, 302.732 1026 C 291.633 1026, 290.764 1026.145, 288.543 1028.366 M 539.299 1027.503 C 536.398 1029.535, 534.666 1034.991, 535.895 1038.225 C 537.311 1041.948, 541.743 1045, 545.734 1045 C 550.437 1045, 555 1040.232, 555 1035.317 C 555 1030.328, 550.494 1026, 545.299 1026 C 543.180 1026, 540.479 1026.676, 539.299 1027.503 M 174.500 1028.364 C 169.451 1030.688, 166.757 1034.419, 166.301 1039.717 C 165.067 1054.033, 182.720 1060.092, 190.730 1048.102 C 197.797 1037.524, 185.936 1023.100, 174.500 1028.364 M 412 1028.273 C 410.625 1028.956, 408.654 1031.244, 407.621 1033.356 C 404.796 1039.128, 406.460 1043.428, 414.271 1050.545 C 423.487 1058.941, 423.968 1059.056, 429.698 1054.226 C 439.769 1045.736, 441.500 1043.360, 441.500 1038.025 C 441.500 1034.262, 440.955 1032.581, 439.090 1030.596 C 435.718 1027.006, 430.585 1026.194, 427.167 1028.709 C 424.569 1030.621, 424.423 1030.624, 421.500 1028.841 C 417.994 1026.702, 415.463 1026.551, 412 1028.273 M 542 1028.294 C 540.625 1028.989, 538.897 1030.816, 538.160 1032.354 C 534.415 1040.163, 545.578 1047.166, 550.927 1040.365 C 554.404 1035.945, 553.549 1030.852, 548.928 1028.463 C 545.513 1026.697, 545.174 1026.688, 542 1028.294 M 51.134 1036.422 L 42.913 1044.845 43.207 1052.672 L 43.500 1060.500 49.407 1060.805 C 56.304 1061.160, 56.963 1060.550, 56.985 1053.785 C 56.997 1050.040, 57.429 1048.841, 59.083 1047.955 C 62.597 1046.075, 65 1049.202, 65 1055.655 L 65 1061 71.393 1061 C 78.821 1061, 79 1060.783, 79 1051.789 L 79 1045.742 70.319 1036.871 C 65.545 1031.992, 61.124 1028, 60.496 1028 C 59.869 1028, 55.655 1031.790, 51.134 1036.422 M 410.923 1031.923 C 405.818 1037.028, 407.228 1041.683, 416.392 1049.977 C 423.171 1056.113, 423.764 1056.385, 426.479 1054.606 C 427.795 1053.744, 431.376 1050.593, 434.436 1047.606 C 439.250 1042.906, 440 1041.663, 440 1038.391 C 440 1035.650, 439.261 1033.838, 437.313 1031.805 C 434.083 1028.433, 430.318 1028.175, 426.635 1031.073 L 424 1033.145 421.365 1031.073 C 417.714 1028.201, 414.374 1028.473, 410.923 1031.923 M 301.810 1038.750 C 301.522 1042.230, 301.267 1042.504, 298.274 1042.559 C 293.432 1042.649, 293.018 1044, 297.833 1044 L 302 1044 302 1048 C 302 1050.200, 302.450 1052, 303 1052 C 303.550 1052, 304 1050.200, 304 1048 L 304 1044 308.250 1043.858 L 312.500 1043.716 308.500 1043.108 C 304.727 1042.535, 304.482 1042.287, 304.190 1038.750 C 304.019 1036.688, 303.484 1035, 303 1035 C 302.516 1035, 301.981 1036.688, 301.810 1038.750 M 532.465 1048.952 C 529.636 1050.098, 528.119 1052.155, 527.381 1055.845 C 526.972 1057.889, 527.146 1059, 527.875 1059 C 528.494 1059, 529 1058.080, 529 1056.955 C 529 1055.830, 530.105 1053.805, 531.455 1052.455 C 533.772 1050.138, 534.543 1050, 545.232 1050 C 558.185 1050, 561 1051.081, 561 1056.057 C 561 1057.676, 561.450 1059, 562 1059 C 564.960 1059, 561.903 1050.732, 558.343 1049.110 C 555.548 1047.837, 535.519 1047.714, 532.465 1048.952 " stroke="none" fill="black" fill-rule="evenodd"/>
</svg>