<svg xmlns="http://www.w3.org/2000/svg" width="1807" height="1080" viewBox="0 0 1807 1080" version="1.1">
	<path d="M 0 540.001 L 0 1080.001 903.750 1079.751 L 1807.500 1079.500 1807.751 539.750 L 1808.002 -0 904.001 -0 L 0 0 0 540.001 M 0.496 540.500 C 0.496 837.500, 0.610 958.851, 0.750 810.168 C 0.890 661.485, 0.890 418.485, 0.750 270.168 C 0.610 121.851, 0.496 243.500, 0.496 540.500 M 424 543.500 L 424 955 914.500 955 L 1405 955 1405 543.500 L 1405 132 914.500 132 L 424 132 424 543.500 M 1288.330 230.581 C 1287.923 231.642, 1289.614 234.073, 1293.469 237.969 L 1299.214 243.775 1293.607 249.610 C 1287.519 255.947, 1287.594 255.810, 1288.981 258 C 1289.756 259.224, 1291.003 258.440, 1295.744 253.750 C 1298.942 250.588, 1302.010 248, 1302.563 248 C 1303.116 248, 1305.976 250.438, 1308.918 253.417 C 1314.025 258.588, 1317 259.652, 1317 256.306 C 1317 255.492, 1314.485 252.331, 1311.410 249.281 L 1305.820 243.735 1311.922 237.579 C 1316.699 232.759, 1317.760 231.160, 1316.811 230.211 C 1315.025 228.425, 1314.844 228.521, 1308.720 234.500 C 1305.622 237.525, 1302.922 240, 1302.720 240 C 1302.518 240, 1299.818 237.525, 1296.720 234.500 C 1290.774 228.695, 1289.316 228.013, 1288.330 230.581 M 512.709 230.624 C 512.319 231.014, 512 236.658, 512 243.167 L 512 255 515 255 C 517.715 255, 518.001 254.691, 518.015 251.750 C 518.024 249.963, 518.474 247.825, 519.015 247 C 520.108 245.336, 519.910 245.151, 524.100 251.750 C 525.657 254.203, 526.879 255, 529.082 255 C 530.687 255, 532 254.652, 532 254.227 C 532 253.802, 530.462 251.119, 528.582 248.265 C 526.703 245.411, 524.908 242.661, 524.595 242.153 C 524.281 241.646, 525.819 238.977, 528.012 236.222 C 530.206 233.467, 532 230.941, 532 230.607 C 532 230.273, 530.680 230, 529.067 230 C 526.786 230, 525.285 231.039, 522.317 234.671 L 518.500 239.342 518 234.921 C 517.606 231.435, 517.068 230.438, 515.459 230.208 C 514.336 230.047, 513.099 230.235, 512.709 230.624 M 538 242.500 L 538 255 540.430 255 C 543.413 255, 543.606 253.966, 543.186 240.250 C 542.876 230.142, 542.838 230, 540.436 230 L 538 230 538 242.500 M 551.709 230.624 C 551.319 231.014, 551 236.658, 551 243.167 L 551 255 559.070 255 C 566.866 255, 567.128 254.924, 566.820 252.750 C 566.572 251.010, 565.820 250.482, 563.500 250.421 C 556.704 250.242, 557.097 250.837, 556.786 240.250 C 556.524 231.307, 556.331 230.476, 554.459 230.208 C 553.336 230.047, 552.099 230.235, 551.709 230.624 M 573 242.500 L 573 255 581 255 C 588.333 255, 589 254.833, 589 253 C 589 251.900, 588.663 250.958, 588.250 250.906 C 587.837 250.854, 585.925 250.690, 584 250.542 C 582.075 250.394, 579.938 250.211, 579.250 250.136 C 578.342 250.037, 578 247.261, 578 240 L 578 230 575.500 230 L 573 230 573 242.500 M 607.460 231.244 C 607.168 232.006, 607.057 237.550, 607.214 243.564 L 607.500 254.500 615.750 254.790 C 621.977 255.010, 623.996 254.764, 623.985 253.790 C 623.957 251.473, 622.547 250.230, 620 250.280 C 612.722 250.420, 613.100 250.946, 612.786 240.250 C 612.515 230.995, 612.386 230.484, 610.246 230.180 C 608.998 230.003, 607.754 230.478, 607.460 231.244 M 630 242.430 L 630 255 632.531 255 L 635.062 255 634.781 242.750 C 634.509 230.905, 634.426 230.489, 632.250 230.180 C 630.019 229.864, 630 229.967, 630 242.430 M 646.500 231.195 C 643.799 232.727, 643.033 234.023, 643.015 237.095 C 642.997 240.281, 645.070 242.244, 651.250 244.893 C 656.217 247.022, 656.788 247.812, 654.800 249.800 C 653.005 251.595, 650.195 251.251, 648.268 249 C 646.220 246.608, 642 246.302, 642 248.545 C 642 249.395, 643.105 251.195, 644.455 252.545 C 646.412 254.503, 647.931 255, 651.955 255 C 657.870 255, 661 252.631, 661 248.155 C 661 244.719, 659.032 242.800, 652.750 240.107 C 647.783 237.978, 647.212 237.188, 649.200 235.200 C 651.015 233.385, 653.833 233.759, 655.232 236 C 656.882 238.642, 661 238.694, 661 236.073 C 661 231.422, 651.648 228.276, 646.500 231.195 M 666.700 230.633 C 665.178 232.156, 666.119 234, 668.418 234 C 673.751 234, 674 234.495, 674 245.107 C 674 254.955, 674.011 255, 676.465 255 C 678.906 255, 678.933 254.901, 679.215 244.750 L 679.500 234.500 683.311 234.186 C 686.256 233.943, 687.049 233.489, 686.799 232.186 C 686.528 230.770, 684.951 230.455, 676.939 230.216 C 671.693 230.060, 667.086 230.248, 666.700 230.633 M 1279 391.935 C 1269.933 394.703, 1264.488 399.876, 1261.527 408.536 C 1257.235 421.090, 1265.041 434.894, 1278.490 438.535 C 1283.455 439.879, 1288.416 440.118, 1305.535 439.840 C 1325.581 439.515, 1326.668 439.396, 1330.332 437.118 C 1344.389 428.379, 1347.298 411.437, 1336.792 399.501 C 1330.240 392.058, 1325.762 390.984, 1301.712 391.086 C 1290.596 391.133, 1280.375 391.515, 1279 391.935 M 1313.442 396.948 C 1305.846 400.330, 1300.415 409.264, 1301.402 416.753 C 1303.077 429.465, 1313.657 436.975, 1326.497 434.567 C 1330.833 433.753, 1337.755 427.816, 1339.653 423.282 C 1342.341 416.862, 1340.730 406.734, 1336.212 401.645 C 1333.646 398.755, 1324.972 395.011, 1321 395.080 C 1319.075 395.114, 1315.674 395.954, 1313.442 396.948 M 486.446 402.281 C 486.166 403.010, 486.064 409.432, 486.219 416.553 L 486.500 429.500 492.326 429.802 C 497.907 430.092, 498.139 430.007, 497.826 427.802 C 497.574 426.020, 496.765 425.429, 494.250 425.187 C 491.065 424.880, 491 424.775, 491 419.937 L 491 415 505.500 415 L 520 415 520 417.500 C 520 419.510, 520.497 420, 522.538 420 L 525.075 420 524.788 410.750 L 524.500 401.500 505.727 401.228 C 490.871 401.012, 486.848 401.232, 486.446 402.281 M 1123 415.500 C 1123 423.167, 1123.387 428, 1124 428 C 1124.613 428, 1125 423.167, 1125 415.500 C 1125 407.833, 1124.613 403, 1124 403 C 1123.387 403, 1123 407.833, 1123 415.500 M 1130.497 404.147 C 1129.514 406.708, 1130.418 427.520, 1131.500 427.254 C 1132.846 426.923, 1133.373 404.973, 1132.067 403.667 C 1131.398 402.998, 1130.877 403.158, 1130.497 404.147 M 1219.457 404.251 C 1219.166 405.009, 1219.057 410.550, 1219.214 416.564 C 1219.532 428.741, 1221.192 431.076, 1222 420.483 C 1222.477 414.232, 1223.649 412.031, 1226.500 412.031 C 1229.064 412.031, 1229.917 413.991, 1230.199 420.528 C 1230.575 429.244, 1232.397 429.681, 1232.800 421.151 C 1233.212 412.450, 1231.371 409.553, 1225.900 410.287 C 1222.040 410.804, 1222 410.776, 1222 407.464 C 1222 403.956, 1220.364 401.888, 1219.457 404.251 M 1104.954 409.546 C 1101.992 412.546, 1099.215 415, 1098.784 415 C 1098.353 415, 1098 412.750, 1098 410 C 1098 407.250, 1097.550 405, 1097 405 C 1096.391 405, 1096 409.500, 1096 416.500 C 1096 423.500, 1096.391 428, 1097 428 C 1097.550 428, 1098 426.232, 1098 424.071 C 1098 421.714, 1098.677 419.466, 1099.693 418.450 C 1101.283 416.860, 1101.500 416.901, 1103.284 419.129 C 1107.330 424.183, 1111.091 428, 1112.024 428 C 1113.662 428, 1113.175 427.079, 1108.500 421.341 C 1106.025 418.303, 1104 415.312, 1104 414.696 C 1104 414.080, 1105.842 411.699, 1108.094 409.405 C 1110.345 407.111, 1111.772 404.977, 1111.264 404.663 C 1110.756 404.349, 1107.917 406.547, 1104.954 409.546 M 1116.639 404.694 C 1115.513 405.820, 1115.954 407, 1117.500 407 C 1118.325 407, 1119 406.577, 1119 406.059 C 1119 404.798, 1117.438 403.895, 1116.639 404.694 M 1186 405.500 C 1186 406.325, 1186.450 407, 1187 407 C 1187.550 407, 1188 406.325, 1188 405.500 C 1188 404.675, 1187.550 404, 1187 404 C 1186.450 404, 1186 404.675, 1186 405.500 M 490.387 408.250 C 490.498 410.463, 490.741 410.505, 505.250 410.777 L 520 411.053 520 408.527 L 520 406 505.137 406 C 490.356 406, 490.274 406.012, 490.387 408.250 M 591 409.437 C 591 412.816, 590.929 412.874, 586.807 412.817 C 583.631 412.773, 582.175 413.300, 580.807 414.990 C 578.540 417.790, 578.448 424.228, 580.629 427.556 C 582.059 429.740, 582.912 430.021, 587.629 429.867 L 593 429.691 593 417.846 C 593 410.615, 592.610 406, 592 406 C 591.450 406, 591 407.547, 591 409.437 M 609 409.975 C 609 413.802, 608.907 413.915, 606.500 413 C 603.409 411.825, 599.523 413.154, 598.061 415.886 C 596.501 418.800, 596.769 425.226, 598.557 427.777 C 599.841 429.611, 601.065 430, 605.557 430 L 611 430 611 418 C 611 410.667, 610.611 406, 610 406 C 609.450 406, 609 407.789, 609 409.975 M 823.432 407.318 C 822.352 410.131, 823.481 429.331, 824.750 429.752 C 825.704 430.068, 826 427.304, 826 418.083 C 826 410.449, 825.620 406, 824.969 406 C 824.401 406, 823.710 406.593, 823.432 407.318 M 831 418 C 831 425.333, 831.389 430, 832 430 C 832.611 430, 833 425.333, 833 418 C 833 410.667, 832.611 406, 832 406 C 831.389 406, 831 410.667, 831 418 M 1193.305 407.687 C 1192.930 408.684, 1191.921 410.048, 1191.062 410.718 C 1189.666 411.807, 1189.686 411.940, 1191.250 411.968 C 1192.742 411.995, 1193 413.003, 1193 418.800 C 1193 425.828, 1193.991 428, 1197.200 428 C 1199.382 428, 1199.580 426.437, 1197.500 425.638 C 1196.379 425.208, 1196 423.415, 1196 418.531 C 1196 413.392, 1196.320 412, 1197.500 412 C 1198.325 412, 1199 411.550, 1199 411 C 1199 410.450, 1198.325 410, 1197.500 410 C 1196.675 410, 1196 409.352, 1196 408.559 C 1196 406.301, 1194.061 405.674, 1193.305 407.687 M 564.677 410.750 C 562.348 416.118, 558 428.079, 558 429.119 C 558 431.217, 560.194 429.741, 561.150 427 C 562.122 424.211, 562.544 424, 567.150 424 C 571.755 424, 572.178 424.211, 573.150 427 C 573.725 428.650, 574.875 430, 575.705 430 C 576.750 430, 576.992 429.462, 576.494 428.250 C 576.098 427.288, 574.456 422.947, 572.844 418.605 C 567.950 405.414, 567.274 404.764, 564.677 410.750 M 624 418.500 C 624 425.500, 624.391 430, 625 430 C 625.550 430, 626 428.032, 626 425.627 L 626 421.254 630.967 420.777 C 637.138 420.184, 639 418.701, 639 414.378 C 639 409.209, 636.155 407, 629.500 407 L 624 407 624 418.500 M 751 408 C 751 408.550, 752.575 409, 754.500 409 L 758 409 758 419.500 C 758 428.167, 758.262 430, 759.500 430 C 760.738 430, 761 428.167, 761 419.500 L 761 409 764.500 409 C 766.425 409, 768 408.550, 768 408 C 768 407.412, 764.500 407, 759.500 407 C 754.500 407, 751 407.412, 751 408 M 796 418.500 C 796 425.500, 796.391 430, 797 430 C 797.550 430, 798 428.255, 798 426.122 C 798 423.772, 798.636 421.717, 799.616 420.904 C 801.026 419.733, 801.829 420.245, 805.934 424.925 C 812.159 432.023, 814.418 431.214, 808.505 424.006 C 806.027 420.985, 804 418.123, 804 417.646 C 804 417.168, 805.842 414.578, 808.093 411.889 C 813.491 405.442, 810.880 405.523, 804.500 412 C 801.791 414.750, 799.221 417, 798.788 417 C 798.354 417, 798 414.750, 798 412 C 798 409.250, 797.550 407, 797 407 C 796.391 407, 796 411.500, 796 418.500 M 816 408 C 816 408.550, 816.675 409, 817.500 409 C 818.325 409, 819 408.550, 819 408 C 819 407.450, 818.325 407, 817.500 407 C 816.675 407, 816 407.450, 816 408 M 846 418.500 L 846 430 852.500 430 C 856.167 430, 859 429.564, 859 429 C 859 428.450, 856.525 428, 853.500 428 L 848 428 848 417.500 C 848 411.167, 847.603 407, 847 407 C 846.391 407, 846 411.500, 846 418.500 M 862 408 C 862 408.550, 862.675 409, 863.500 409 C 864.325 409, 865 408.550, 865 408 C 865 407.450, 864.325 407, 863.500 407 C 862.675 407, 862 407.450, 862 408 M 886.589 410.500 C 886.226 411.947, 885.233 413.009, 884.231 413.022 C 882.739 413.041, 882.794 413.283, 884.630 414.772 C 886.372 416.186, 886.711 417.410, 886.491 421.500 C 886.343 424.250, 886.638 427.288, 887.146 428.250 C 888.124 430.101, 892 430.700, 892 429 C 892 428.450, 891.325 428, 890.500 428 C 889.321 428, 889 426.611, 889 421.500 C 889 416.389, 889.321 415, 890.500 415 C 891.325 415, 892 414.550, 892 414 C 892 413.450, 891.325 413, 890.500 413 C 889.567 413, 889 412.056, 889 410.500 C 889 409.125, 888.599 408, 888.108 408 C 887.618 408, 886.934 409.125, 886.589 410.500 M 626 414 C 626 418.983, 626.011 419, 629.277 419 C 633.191 419, 637 416.583, 637 414.098 C 637 411.300, 633.694 409, 629.671 409 L 626 409 626 414 M 1116.667 410.667 C 1115.600 411.734, 1115.898 426.819, 1117 427.500 C 1117.639 427.895, 1118 424.844, 1118 419.059 C 1118 409.991, 1117.910 409.424, 1116.667 410.667 M 1146.750 411.080 C 1145.718 411.681, 1145 413.293, 1145 415.010 C 1145 417.540, 1145.524 418.077, 1149.012 419.122 C 1154.053 420.632, 1155.719 422.429, 1154 424.500 C 1153.315 425.325, 1151.942 426, 1150.949 426 C 1149.956 426, 1148.468 425.325, 1147.643 424.500 C 1145.956 422.813, 1144 422.515, 1144 423.943 C 1144 425.525, 1148.289 428, 1151.031 428 C 1154.991 428, 1157.226 425.873, 1156.836 422.477 C 1156.553 420.016, 1155.788 419.306, 1152.008 417.997 C 1149.512 417.133, 1147.376 415.715, 1147.201 414.806 C 1146.735 412.386, 1150.632 411.529, 1153.514 413.417 C 1156.293 415.238, 1157 415.371, 1157 414.071 C 1157 410.758, 1150.540 408.873, 1146.750 411.080 M 1168.532 416.164 C 1167.547 419.452, 1166.416 421.772, 1166.018 421.321 C 1165.620 420.869, 1164.720 418.363, 1164.017 415.750 C 1163.311 413.122, 1162.149 411, 1161.418 411 C 1160.340 411, 1160.365 411.879, 1161.551 415.750 C 1162.352 418.363, 1163.472 422.188, 1164.042 424.250 C 1164.611 426.313, 1165.449 428, 1165.903 428 C 1166.592 428, 1168.732 423.045, 1170.607 417.107 C 1171.228 415.141, 1171.766 415.953, 1173.792 421.913 C 1174.770 424.791, 1176.005 427.226, 1176.535 427.323 C 1177.620 427.522, 1181.814 415.752, 1181.927 412.191 C 1182.049 408.350, 1180.128 410.753, 1178.442 416.551 C 1177.571 419.548, 1176.707 422, 1176.522 422 C 1176.337 422, 1175.416 419.553, 1174.476 416.562 C 1172.112 409.047, 1170.692 408.952, 1168.532 416.164 M 1186 418.941 C 1186 424.314, 1186.407 428, 1187 428 C 1187.588 428, 1188 424.520, 1188 419.559 C 1188 414.916, 1187.550 410.840, 1187 410.500 C 1186.361 410.105, 1186 413.156, 1186 418.941 M 1204.073 412.635 C 1199.649 418.259, 1202.819 428, 1209.073 428 C 1211.904 428, 1216 425.044, 1216 423 C 1216 421.403, 1214.584 421.837, 1212.732 424 C 1211.790 425.100, 1210.340 426, 1209.510 426 C 1206.995 426, 1204 422.195, 1204 419 C 1204 415.805, 1206.995 412, 1209.510 412 C 1210.340 412, 1211.790 412.900, 1212.732 414 C 1214.584 416.163, 1216 416.597, 1216 415 C 1216 412.956, 1211.904 410, 1209.073 410 C 1207.101 410, 1205.468 410.860, 1204.073 412.635 M 564.877 416.469 C 563.994 418.926, 563.510 421.176, 563.802 421.469 C 564.666 422.333, 569.836 422.074, 570.415 421.138 C 571.011 420.173, 568.038 412, 567.090 412 C 566.757 412, 565.761 414.011, 564.877 416.469 M 646 412.954 L 642.500 413.500 642.281 421.750 C 642.107 428.321, 642.352 430, 643.486 430 C 644.546 430, 644.984 428.286, 645.204 423.275 C 645.463 417.398, 645.791 416.406, 647.813 415.402 C 649.892 414.369, 650.742 413.200, 649.833 412.621 C 649.650 412.504, 647.925 412.654, 646 412.954 M 674.375 412.984 C 672.257 413.840, 670 418.593, 670 422.199 C 670 423.244, 670.709 425.470, 671.575 427.144 C 673.024 429.947, 673.502 430.161, 677.575 429.838 C 682.469 429.448, 683.220 430.586, 679.996 433.504 C 678.303 435.036, 677.584 435.132, 675.367 434.121 C 672.127 432.645, 670.802 433.651, 673.443 435.582 C 675.972 437.431, 679.012 437.380, 681.777 435.443 C 683.833 434.004, 684 433.101, 684 423.443 C 684 413.065, 683.985 413, 681.582 413 C 680.252 413, 678.564 412.803, 677.832 412.563 C 677.099 412.322, 675.544 412.512, 674.375 412.984 M 692.250 412.789 L 689 413.127 689 421.563 C 689 426.521, 689.412 430, 690 430 C 690.550 430, 691 427.495, 691 424.434 C 691 418.405, 692.255 415, 694.476 415 C 696.069 415, 697.435 413.318, 696.266 412.795 C 695.845 412.606, 694.038 412.604, 692.250 412.789 M 721 413 C 720.175 413.525, 718.712 413.709, 717.750 413.410 C 716.177 412.920, 716 413.732, 716 421.433 C 716 426.478, 716.411 430, 717 430 C 717.550 430, 718 427.562, 718 424.582 C 718 418.097, 718.598 416.285, 721.201 414.893 C 722.719 414.080, 723.603 414.235, 725.083 415.575 C 726.589 416.938, 727 418.672, 727 423.655 C 727 427.218, 727.438 430, 728 430 C 728.556 430, 729 427.333, 729 424 C 729 419.333, 729.444 417.556, 731 416 C 732.100 414.900, 733.424 414, 733.943 414 C 736.154 414, 738 418.652, 738 424.223 C 738 427.408, 738.449 430, 739 430 C 740.635 430, 740.256 415.457, 738.585 414.070 C 737.782 413.404, 734.858 413.014, 731.835 413.169 C 728.901 413.319, 725.600 413.128, 724.500 412.744 C 723.400 412.360, 721.825 412.475, 721 413 M 774.357 413.001 C 769.093 415.102, 767.367 422.654, 771.073 427.365 C 772.657 429.380, 774.033 430, 776.918 430 C 782.012 430, 784.500 427.186, 784.500 421.423 C 784.500 415.046, 779.543 410.931, 774.357 413.001 M 872.352 413.018 C 867.084 415.083, 868.137 420.212, 874.248 422.249 C 877.279 423.260, 878.500 424.217, 878.500 425.583 C 878.500 428.242, 873.103 428.861, 871.310 426.409 C 869.701 424.209, 868.180 425.473, 869.638 427.798 C 870.333 428.906, 872.305 429.605, 875.289 429.802 C 879.094 430.053, 880.064 429.749, 880.992 428.014 C 882.754 424.723, 881.289 422.276, 876.453 420.429 C 873.517 419.308, 872 418.130, 872 416.971 C 872 414.194, 875.077 413.681, 878.142 415.947 C 881.064 418.107, 882.761 417.329, 880.718 414.767 C 879.145 412.795, 875.087 411.946, 872.352 413.018 M 655.400 413.765 C 651.686 416.245, 650.984 423.438, 654.073 427.365 C 655.657 429.380, 657.033 430, 659.918 430 C 664.986 430, 667.500 427.181, 667.500 421.500 C 667.500 415.890, 664.973 412.995, 660.095 413.015 C 658.118 413.024, 656.005 413.361, 655.400 413.765 M 700.200 414.200 C 698.988 415.412, 698.540 418, 699.542 418 C 699.840 418, 701.050 417.100, 702.230 416 C 704.916 413.498, 706.224 413.485, 708.443 415.937 C 710.689 418.419, 709.691 420, 705.875 420 C 701.037 420, 699 421.620, 699 425.468 C 699 429.429, 700.242 430.077, 707.253 429.772 L 712 429.565 712 423.217 C 712 414.608, 711.003 413, 705.665 413 C 703.319 413, 700.860 413.540, 700.200 414.200 M 816 421.500 C 816 426.500, 816.412 430, 817 430 C 817.588 430, 818 426.500, 818 421.500 C 818 416.500, 817.588 413, 817 413 C 816.412 413, 816 416.500, 816 421.500 M 862.667 413.667 C 861.580 414.753, 861.891 430, 863 430 C 863.588 430, 864 426.500, 864 421.500 C 864 412.983, 863.905 412.428, 862.667 413.667 M 583.655 415.829 C 581.721 417.965, 581.429 425.029, 583.200 426.800 C 583.860 427.460, 585.345 428, 586.500 428 C 589.600 428, 591 426.071, 591 421.800 C 591 419.333, 590.298 417.298, 589 416 C 586.533 413.533, 585.755 413.508, 583.655 415.829 M 601.753 415.390 C 599.124 417.386, 598.439 422.496, 600.400 425.488 C 602.163 428.178, 605.780 428.820, 607.800 426.800 C 609.752 424.848, 609.264 418.264, 607 416 C 604.670 413.670, 604.105 413.604, 601.753 415.390 M 656.909 415.873 C 655.205 417.253, 654.624 418.707, 654.700 421.402 C 654.827 425.887, 656.448 428, 659.762 428 C 664.915 428, 666.976 419.918, 662.811 416.039 C 660.128 413.539, 659.802 413.530, 656.909 415.873 M 675.204 415.570 C 673.521 416.749, 673 418.116, 673 421.357 C 673 426.079, 674.323 428, 677.578 428 C 680.777 428, 682.162 425.690, 681.811 420.938 C 681.411 415.520, 678.570 413.212, 675.204 415.570 M 774.065 415.667 C 771.779 417.269, 771.240 422.711, 773.035 426.066 C 774.734 429.240, 779.622 428.632, 781.493 425.013 C 784.544 419.113, 779.037 412.185, 774.065 415.667 M 510.450 420.883 C 510.203 421.131, 510 422.833, 510 424.667 C 510 427.810, 509.800 428, 506.500 428 C 503.433 428, 503 428.310, 503 430.500 C 503 432.690, 503.433 433, 506.500 433 C 509.833 433, 510 433.167, 510 436.500 C 510 439.567, 510.310 440, 512.500 440 C 514.682 440, 515 439.563, 515 436.560 C 515 433.308, 515.204 433.104, 518.750 432.810 C 521.762 432.561, 522.563 432.057, 522.820 430.250 C 523.106 428.233, 522.718 428, 519.070 428 L 515 428 515 424.062 C 515 420.709, 514.696 420.147, 512.950 420.279 C 511.823 420.364, 510.698 420.636, 510.450 420.883 M 702.152 422.885 C 700.091 424.191, 701.208 427.456, 703.843 427.830 C 706.350 428.187, 710 425.528, 710 423.345 C 710 421.825, 704.347 421.494, 702.152 422.885 M 601.822 569.920 C 585.647 575.164, 582.411 598.427, 596.500 608.180 C 598.700 609.704, 602.300 611.208, 604.500 611.524 C 608.488 612.097, 608.510 612.081, 611.750 606.469 C 616.111 598.916, 616.094 598.089, 611.621 600.127 C 606.190 602.602, 599 597.451, 599 591.086 C 599 583.815, 605.169 579.352, 612.838 581.075 C 616.649 581.931, 626.733 581.600, 627.748 580.585 C 628.651 579.682, 624.669 575.047, 620.777 572.471 C 616.301 569.509, 606.965 568.253, 601.822 569.920 M 744 590.500 C 744 598.167, 744.387 603, 745 603 C 745.613 603, 746 598.167, 746 590.500 C 746 582.833, 745.613 578, 745 578 C 744.387 578, 744 582.833, 744 590.500 M 796 590.500 C 796 600.186, 796.294 603.070, 797.250 602.755 C 798.013 602.503, 798.695 599.729, 799 595.634 C 799.331 591.192, 800.007 588.605, 801 587.978 C 805.068 585.409, 807 588.294, 807 596.934 C 807 600.270, 807.410 603, 807.911 603 C 809.290 603, 809.796 590.854, 808.536 588 C 807.603 585.886, 806.789 585.513, 803.267 585.583 C 799.210 585.663, 799.093 585.573, 798.800 582.160 C 798.635 580.232, 797.938 578.470, 797.250 578.244 C 796.294 577.930, 796 580.814, 796 590.500 M 670.646 581.452 C 668.264 583.660, 668 584.612, 668 590.998 C 668 597.195, 668.310 598.401, 670.455 600.545 C 672.309 602.400, 673.974 603, 677.263 603 C 683.515 603, 685.207 601.424, 684.818 595.964 C 684.508 591.612, 684.414 591.500, 681.085 591.500 C 679.206 591.500, 677.481 592.063, 677.251 592.750 C 676.977 593.570, 677.894 594, 679.917 594 C 682.547 594, 683 594.371, 683 596.525 C 683 598.336, 682.251 599.334, 680.349 600.058 C 676.055 601.690, 672.716 599.969, 671.063 595.271 C 668.136 586.954, 673.752 578.642, 679.677 582.524 C 681.014 583.400, 682.356 584.765, 682.661 585.558 C 683.462 587.647, 685 587.328, 685 585.073 C 685 582.348, 680.320 579, 676.511 579 C 674.480 579, 672.315 579.905, 670.646 581.452 M 777.646 581.452 C 775.264 583.660, 775 584.612, 775 590.998 C 775 597.195, 775.310 598.401, 777.455 600.545 C 780.777 603.868, 786.772 603.936, 789.826 600.686 C 792.092 598.273, 792.750 595, 790.969 595 C 790.401 595, 789.642 595.788, 789.281 596.750 C 787.710 600.937, 783.522 602.079, 780.112 599.250 C 777.677 597.230, 776.649 590.305, 778.146 586.011 C 779.920 580.922, 786.472 580.276, 788.970 584.944 C 790.356 587.534, 792 587.604, 792 585.073 C 792 582.348, 787.320 579, 783.511 579 C 781.480 579, 779.315 579.905, 777.646 581.452 M 604.881 584.007 C 603.991 584.527, 602.713 586.280, 602.041 587.902 C 599.641 593.695, 604.986 599.224, 611.425 597.608 C 614.494 596.838, 617.413 591.278, 616.309 588.306 C 614.644 583.821, 608.898 581.659, 604.881 584.007 M 691.455 587.455 C 688.290 590.619, 688.113 596.603, 691.073 600.365 C 693.757 603.778, 699.737 604.053, 702.595 600.895 C 705.516 597.667, 705.248 589.429, 702.139 586.912 C 698.853 584.250, 694.434 584.475, 691.455 587.455 M 709.073 587.635 C 704.258 593.755, 707.713 603, 714.814 603 C 719.629 603, 722 600.030, 722 594 C 722 587.852, 719.646 585, 714.573 585 C 712.061 585, 710.591 585.704, 709.073 587.635 M 727.018 587.694 C 725.211 589.984, 724.889 591.405, 725.271 595.418 C 725.845 601.453, 727.935 603.353, 733.250 602.671 C 737.311 602.150, 737.724 602.628, 735.656 605.455 C 734.330 607.270, 731.956 607.289, 727.750 605.522 C 726.534 605.011, 726 605.244, 726 606.286 C 726 608.125, 728.100 609, 732.510 609 C 738.242 609, 739.107 607.171, 738.784 595.726 L 738.500 585.662 733.866 585.275 C 729.754 584.932, 728.983 585.205, 727.018 587.694 M 753.229 585.669 C 751.300 586.445, 749 591.518, 749 594.996 C 749 599.276, 752.876 603, 757.332 603 C 759.215 603, 761.324 602.314, 762.020 601.476 C 763.735 599.409, 762.649 598.582, 760.048 599.974 C 757.413 601.384, 754.332 600.489, 752.953 597.912 C 751.336 594.891, 752.642 594, 758.684 594 L 764.250 594 763.622 590.858 C 762.658 586.038, 758.041 583.733, 753.229 585.669 M 813.505 585.829 C 813.227 586.106, 813 590.083, 813 594.667 C 813 601.407, 813.287 603, 814.500 603 C 815.672 603, 816.003 601.632, 816.015 596.750 C 816.032 589.753, 816.512 588.578, 819.765 587.563 C 821.010 587.174, 821.780 586.453, 821.475 585.960 C 820.905 585.036, 814.404 584.929, 813.505 585.829 M 825.189 587.039 C 823.528 588.586, 823 590.229, 823 593.850 C 823 599.900, 825.554 603, 830.539 603 C 835.636 603, 838 600.161, 838 594.039 C 838 588.126, 835.406 585, 830.500 585 C 828.739 585, 826.422 585.889, 825.189 587.039 M 842 594.221 C 842 599.407, 842.409 603, 843 603 C 843.562 603, 844 600.218, 844 596.655 C 844 591.520, 844.393 589.955, 846.059 588.447 C 849.536 585.300, 851.414 587.537, 852 595.524 C 852.307 599.708, 852.983 602.502, 853.750 602.755 C 854.663 603.056, 855 601.434, 855 596.738 C 855 589.527, 857.077 586.255, 860.886 587.464 C 862.637 588.020, 862.955 589.092, 863.207 595.304 C 863.569 604.197, 865.392 604.792, 865.800 596.151 C 866.207 587.543, 864.360 584.551, 859.162 585.400 C 857.148 585.728, 854.825 585.964, 854 585.922 C 853.175 585.881, 850.138 585.756, 847.250 585.644 L 842 585.442 842 594.221 M 871.073 587.635 C 866.517 593.426, 869.825 603, 876.381 603 C 879.792 603, 883.998 600.665, 882.780 599.447 C 882.386 599.053, 880.688 599.301, 879.007 599.997 C 876.351 601.097, 875.689 601.029, 873.974 599.477 C 872.889 598.494, 872 596.860, 872 595.845 C 872 594.253, 872.838 594, 878.108 594 L 884.217 594 883.530 591.250 C 881.885 584.658, 874.989 582.656, 871.073 587.635 M 895.952 586.838 C 894.570 587.957, 893.981 589.160, 894.446 589.913 C 895.012 590.828, 895.832 590.567, 897.596 588.910 C 899.634 586.995, 900.344 586.836, 902.490 587.814 C 906.358 589.576, 905.596 591.649, 900.800 592.416 C 895.528 593.259, 894 594.514, 894 598 C 894 601.880, 895.829 602.967, 902.080 602.802 L 907.522 602.659 907.175 595.080 C 906.796 586.788, 905.687 585, 900.920 585 C 899.436 585, 897.200 585.827, 895.952 586.838 M 912.004 597.250 C 912.001 607.030, 912.252 609, 913.500 609 C 914.528 609, 915 607.969, 915 605.724 C 915 602.521, 915.088 602.456, 918.878 602.817 C 923.862 603.292, 926 600.578, 926 593.777 C 926 587.093, 923.630 584.846, 916.975 585.221 L 912.009 585.500 912.004 597.250 M 929.426 585.917 C 929.192 586.146, 929 591.433, 929 597.667 C 929 607.074, 929.255 609, 930.500 609 C 931.530 609, 932 607.967, 932 605.701 C 932 602.511, 932.118 602.415, 935.545 602.815 C 940.801 603.429, 943 600.997, 943 594.568 C 943 587.019, 941.131 584.876, 934.851 585.224 C 932.101 585.376, 929.660 585.688, 929.426 585.917 M 693.655 588.829 C 690.320 592.513, 692.533 601, 696.829 601 C 699.047 601, 702 597.003, 702 594 C 702 590.896, 699.025 587, 696.655 587 C 695.915 587, 694.565 587.823, 693.655 588.829 M 711.591 588.899 C 709.027 591.732, 709.212 596.943, 711.954 599.164 C 713.201 600.174, 714.622 601, 715.111 601 C 717.084 601, 720 596.825, 720 594 C 720 590.896, 717.025 587, 714.655 587 C 713.915 587, 712.536 587.855, 711.591 588.899 M 729.571 588.571 C 727.510 590.633, 727.531 597.388, 729.605 599.463 C 731.292 601.149, 734.866 600.692, 736.235 598.615 C 737.680 596.421, 737.030 590.338, 735.171 588.655 C 732.888 586.589, 731.574 586.569, 729.571 588.571 M 755.239 587.666 C 754.545 587.946, 753.516 589.035, 752.953 590.087 C 752.015 591.840, 752.308 592, 756.465 592 C 761.259 592, 762 591.143, 759.429 588.571 C 757.787 586.930, 757.318 586.829, 755.239 587.666 M 828.400 587.765 C 824.816 590.158, 824.534 597.118, 827.916 599.718 C 830.183 601.461, 831.720 601.280, 834 599 C 838.673 594.327, 833.653 584.258, 828.400 587.765 M 873.655 588.829 C 871.180 591.564, 871.571 592, 876.500 592 C 881.382 592, 882.005 591.220, 879.171 588.655 C 876.828 586.534, 875.700 586.570, 873.655 588.829 M 916.750 588.080 C 915.466 588.828, 915 590.384, 915 593.927 C 915 599.829, 916.804 601.866, 920.530 600.168 C 922.618 599.217, 923 598.355, 923 594.593 C 923 591.881, 922.386 589.529, 921.429 588.571 C 919.607 586.750, 919.121 586.699, 916.750 588.080 M 933.750 588.080 C 932.455 588.835, 932 590.391, 932 594.071 C 932 598.423, 932.316 599.187, 934.537 600.199 C 937.775 601.674, 939.824 599.862, 940.646 594.793 C 941.100 591.995, 940.770 590.770, 939.113 589.113 C 936.737 586.737, 936.226 586.638, 933.750 588.080 M 897.861 595.999 C 895.544 597.961, 895.536 598.027, 897.441 599.499 C 899.913 601.410, 900.301 601.387, 903.056 599.156 C 904.513 597.976, 905.105 596.715, 904.698 595.656 C 903.838 593.413, 900.730 593.570, 897.861 595.999 M 886.694 600.639 C 885.761 601.573, 886.888 603, 888.559 603 C 889.352 603, 890 602.325, 890 601.500 C 890 599.994, 887.889 599.444, 886.694 600.639 M 602.512 696.451 C 600.319 697.264, 598.377 698.369, 598.197 698.908 C 598.018 699.447, 597.225 699.640, 596.435 699.337 C 594.458 698.578, 594.595 701.419, 596.616 703.096 C 597.505 703.834, 599.715 704.948, 601.528 705.571 C 604.220 706.496, 604.729 706.456, 604.305 705.352 C 604.019 704.608, 603.384 704, 602.893 704 C 602.402 704, 602 703.564, 602 703.030 C 602 701.657, 609.238 702.095, 610.699 703.556 C 611.636 704.493, 611.647 705.475, 610.747 707.858 C 609.380 711.481, 607.363 712.539, 605.200 710.767 C 603.867 709.675, 603.736 709.820, 604.249 711.811 C 604.649 713.362, 604.349 714.312, 603.339 714.700 C 602.106 715.173, 602.075 715.450, 603.166 716.222 C 604.053 716.850, 603.210 716.986, 600.645 716.629 C 597.191 716.148, 596.844 716.295, 597.302 718.046 C 597.936 720.470, 597.129 720.559, 595.442 718.252 C 593.933 716.187, 593.088 716.785, 592.436 720.377 C 592.017 722.689, 592.290 723.002, 594.730 723.014 C 600.714 723.043, 602 723.946, 602 728.117 C 602 731.026, 601.595 732, 600.383 732 C 599.259 732, 598.926 732.609, 599.290 734.001 C 599.801 735.955, 599.742 735.961, 596.788 734.251 C 595.124 733.288, 593.049 731.425, 592.176 730.112 C 590.605 727.748, 590.380 726.449, 590.129 718.321 C 590.054 715.884, 589.298 713.441, 588.314 712.457 C 586.733 710.876, 586.573 710.918, 585.732 713.136 C 583.765 718.323, 587.114 729.027, 592.153 733.657 C 606.093 746.470, 628.563 739.599, 631.911 721.500 C 632.420 718.750, 632.601 715.290, 632.313 713.812 L 631.790 711.123 629.568 713.521 C 627.491 715.762, 627.238 715.809, 625.673 714.245 C 624.240 712.812, 624 712.790, 624 714.095 C 624 714.932, 623.425 716.404, 622.722 717.365 C 621.584 718.922, 621.150 718.959, 618.738 717.708 C 617.249 716.935, 616.323 716.010, 616.682 715.652 C 617.040 715.293, 616.856 715, 616.274 715 C 615.691 715, 614.955 715.675, 614.638 716.500 C 613.687 718.979, 610.949 718.339, 611.432 715.750 C 611.663 714.513, 611.885 712.743, 611.926 711.817 C 611.967 710.892, 612.934 709.838, 614.076 709.476 C 616.877 708.587, 623 702.535, 623 700.657 C 623 696.684, 609.414 693.896, 602.512 696.451 M 598 701.393 C 598 701.609, 598.698 702.054, 599.552 702.382 C 600.442 702.723, 600.843 702.555, 600.493 701.989 C 599.906 701.038, 598 700.583, 598 701.393 M 666.244 706.250 C 666.470 706.938, 668.307 707.640, 670.327 707.810 L 674 708.121 674 718.644 C 674 726.616, 674.303 729.066, 675.250 728.752 C 676.115 728.465, 676.588 725.203, 676.785 718.169 L 677.070 708 680.535 708 C 682.948 708, 684 707.545, 684 706.500 C 684 705.277, 682.324 705, 674.917 705 C 668.098 705, 665.936 705.312, 666.244 706.250 M 715 717 L 715 729 719.865 729 C 725.923 729, 730 726.204, 730 722.050 C 730 720.507, 729.306 718.669, 728.458 717.965 C 727.388 717.077, 727.234 716.366, 727.958 715.642 C 728.531 715.069, 729 713.141, 729 711.357 C 729 707.078, 725.985 705, 719.777 705 L 715 705 715 717 M 717 711.500 C 717 714.909, 717.102 715, 720.950 715 C 725.418 715, 727.497 712.797, 725.880 709.776 C 725.215 708.533, 723.739 708, 720.965 708 C 717.100 708, 717 708.089, 717 711.500 M 596.980 711.524 C 596.284 712.362, 596.009 713.342, 596.368 713.701 C 596.727 714.060, 597.728 713.487, 598.592 712.427 C 599.880 710.847, 600.068 710.806, 599.633 712.199 C 599.262 713.387, 599.538 713.731, 600.551 713.342 C 602.454 712.612, 602.394 711.365, 600.418 710.607 C 598.327 709.804, 598.430 709.777, 596.980 711.524 M 686.557 713.223 C 684.104 716.724, 684.521 724.201, 687.314 726.826 C 690.389 729.714, 695.039 729.652, 697.826 726.686 C 700.769 723.552, 700.867 715.867, 698 713 C 695.131 710.131, 688.633 710.258, 686.557 713.223 M 704 720.059 C 704 725.844, 704.361 728.895, 705 728.500 C 705.550 728.160, 706 725.241, 706 722.012 C 706 716.024, 707.534 713, 710.571 713 C 711.357 713, 712 712.550, 712 712 C 712 711.450, 710.200 711, 708 711 L 704 711 704 720.059 M 733.789 711.750 C 733.608 712.163, 733.515 713.400, 733.582 714.500 C 733.649 715.600, 733.771 719.313, 733.852 722.750 C 734.050 731.115, 736 730.846, 736 722.453 C 736 716.229, 736.147 715.823, 738.994 714.203 C 743.033 711.905, 742.769 711, 738.059 711 C 735.891 711, 733.970 711.337, 733.789 711.750 M 745.073 713.635 C 738.583 721.885, 748.040 733.647, 755.988 727.211 C 759.309 724.522, 759.862 717.345, 757.025 713.750 C 753.997 709.913, 748.045 709.855, 745.073 713.635 M 761 711.929 C 761 713.440, 764.720 726.737, 765.491 727.986 C 766.766 730.049, 767.728 728.853, 769.500 723 C 770.499 719.700, 771.622 717, 771.994 717 C 772.367 717, 773.432 719.734, 774.361 723.075 C 775.388 726.769, 776.514 728.995, 777.234 728.755 C 778.571 728.310, 783.629 712.296, 782.720 711.387 C 781.419 710.085, 780.075 712.323, 778.974 717.624 C 777.665 723.931, 776.803 723.703, 774.730 716.500 C 772.851 709.972, 770.926 710.057, 769.021 716.750 C 768.199 719.638, 767.240 722, 766.891 722 C 766.542 722, 765.607 719.665, 764.813 716.812 C 764.019 713.958, 762.836 711.445, 762.185 711.228 C 761.533 711.011, 761 711.327, 761 711.929 M 787.200 712.200 C 786.540 712.860, 786 714.642, 786 716.160 C 786 718.515, 786.589 719.096, 790.012 720.122 C 795.330 721.715, 797.060 723.751, 794.615 725.540 C 792.677 726.957, 790.501 726.553, 787.849 724.283 C 785.341 722.135, 784.545 724.545, 786.964 726.964 C 791.382 731.382, 800.015 728.179, 798.624 722.637 C 798.176 720.852, 796.863 719.830, 793.755 718.847 C 790.616 717.853, 789.500 716.976, 789.500 715.500 C 789.500 712.991, 793.164 712.287, 794.960 714.452 C 796.328 716.100, 799 716.566, 799 715.155 C 799 711.808, 789.877 709.523, 787.200 712.200 M 804.039 713.189 C 802.582 714.753, 802 716.729, 802 720.116 C 802 724.044, 802.451 725.209, 804.635 726.927 C 807.971 729.551, 812.164 729.581, 814.502 726.998 C 816.295 725.017, 816.266 725.002, 811.796 725.615 C 807.846 726.156, 807.076 725.947, 805.680 723.954 C 803.430 720.741, 804.343 720, 810.559 720 C 815.872 720, 816 719.933, 816 717.155 C 816 711.344, 808.175 708.749, 804.039 713.189 M 819.357 712.511 C 818.377 715.067, 819.515 728.345, 820.750 728.753 C 821.663 729.055, 822 727.435, 822 722.738 C 822 716.308, 823.640 713, 826.829 713 C 827.473 713, 828 712.553, 828 712.007 C 828 710.609, 819.906 711.081, 819.357 712.511 M 836.571 712.571 C 835.707 713.436, 835 714.561, 835 715.071 C 835 716.487, 836.964 716.179, 838.643 714.500 C 840.725 712.417, 843.730 712.626, 844.968 714.939 C 846.174 717.193, 845.797 717.503, 840.742 718.415 C 838.351 718.847, 836.401 719.985, 835.377 721.547 C 833.897 723.806, 833.901 724.200, 835.427 726.530 C 836.942 728.841, 837.569 729.023, 842.706 728.637 L 848.327 728.215 848.089 720.870 C 847.958 716.830, 847.379 712.957, 846.803 712.262 C 845.323 710.479, 838.457 710.686, 836.571 712.571 M 853 723.215 C 853 730.405, 853.390 735, 854 735 C 854.550 735, 855 733.468, 855 731.595 C 855 728.224, 855.038 728.195, 858.841 728.705 C 862.154 729.150, 862.978 728.843, 864.841 726.475 C 867.438 723.173, 867.737 716.498, 865.434 713.210 C 864.099 711.303, 863.070 711.008, 858.434 711.202 L 853 711.429 853 723.215 M 870.369 712.480 C 870.126 713.115, 870.055 718.293, 870.213 723.986 C 870.412 731.166, 870.883 734.465, 871.750 734.752 C 872.592 735.031, 873 734.017, 873 731.646 C 873 728.177, 873.051 728.134, 876.523 728.697 C 879.088 729.114, 880.577 728.788, 882.003 727.497 C 885.620 724.224, 885.846 715.989, 882.412 712.555 C 880.550 710.693, 871.078 710.634, 870.369 712.480 M 689.828 714.036 C 685.980 716.282, 686.726 723.712, 691.030 726.016 C 692.646 726.881, 693.476 726.615, 695.507 724.584 C 698.515 721.576, 698.714 717.714, 696 715 C 693.795 712.795, 692.344 712.568, 689.828 714.036 M 747.655 714.829 C 745.378 717.345, 745.555 722.555, 748 725 C 750.465 727.465, 751.181 727.484, 754.056 725.156 C 756.867 722.880, 757.092 717.864, 754.512 715.013 C 752.247 712.510, 749.812 712.445, 747.655 714.829 M 806.750 714.080 C 803.505 715.970, 804.670 718, 809 718 C 813.122 718, 814.173 716.573, 811.800 714.200 C 810.355 712.755, 809.078 712.724, 806.750 714.080 M 856.571 714.571 C 854.186 716.957, 854.518 723.549, 857.115 725.368 C 860.978 728.074, 863.960 725.666, 863.985 719.821 C 864 716.087, 861.971 713, 859.500 713 C 858.754 713, 857.436 713.707, 856.571 714.571 M 874.571 714.571 C 872.963 716.179, 872.443 722.641, 873.765 724.573 C 875.280 726.785, 878.037 726.963, 880.023 724.977 C 883.625 721.375, 881.861 713, 877.500 713 C 876.754 713, 875.436 713.707, 874.571 714.571 M 717 722 C 717 725.965, 717.033 726, 720.800 726 C 725.108 726, 727 724.598, 727 721.407 C 727 718.892, 725.276 718, 720.418 718 C 717.097 718, 717 718.113, 717 722 M 611.750 720.080 C 609.307 721.503, 609.415 726, 611.893 726 C 613.862 726, 615 727.839, 615 731.023 C 615 736.352, 619.637 733.051, 619.792 727.612 C 619.840 725.922, 620.356 724.381, 620.940 724.187 C 622.860 723.547, 622.046 721.342, 619.453 720.161 C 616.360 718.751, 614.072 718.727, 611.750 720.080 M 838.529 721.355 C 835.849 723.315, 837.239 726, 840.933 726 C 843.781 726, 846 723.839, 846 721.066 C 846 719.543, 840.728 719.747, 838.529 721.355 M 626.446 723.442 C 625.566 724.785, 625.008 726.923, 625.207 728.192 C 625.546 730.360, 625.702 730.287, 627.780 727 C 628.997 725.075, 629.994 722.938, 629.996 722.250 C 630.002 720.206, 628.161 720.825, 626.446 723.442 M 828.229 727.188 C 828.847 729.042, 831 729.349, 831 727.583 C 831 726.712, 830.288 726, 829.417 726 C 828.546 726, 828.011 726.534, 828.229 727.188 M 602.312 820.850 C 597.773 822.199, 591.277 827.795, 589.151 832.189 C 586.629 837.397, 586.271 846.319, 588.380 851.368 C 589.139 853.185, 591.469 856.331, 593.558 858.359 C 607.571 871.969, 630.956 861.739, 630.956 842 C 630.956 832.627, 625.872 824.948, 617.282 821.348 C 613.969 819.960, 606.178 819.701, 602.312 820.850 M 603.170 821.942 C 596.014 823.743, 589.388 831.685, 588.305 839.762 C 586.729 851.513, 597.297 863.032, 609.616 862.990 C 611.202 862.985, 614.858 861.883, 617.740 860.541 C 626.391 856.513, 631.510 846.128, 629.116 837.459 C 625.975 826.084, 614.346 819.129, 603.170 821.942 M 598.131 827.342 C 596.986 828.722, 597.564 830, 599.333 830 C 599.883 830, 600.037 829.704, 599.675 829.342 C 599.313 828.980, 599.519 828.080, 600.131 827.342 C 600.811 826.523, 600.855 826, 600.245 826 C 599.695 826, 598.744 826.604, 598.131 827.342 M 593.568 832.206 C 591.895 834.596, 591.498 837, 592.778 837 C 593.797 837, 597 833.243, 597 832.048 C 597 830.004, 595.047 830.094, 593.568 832.206 M 758 842 C 758 851.289, 758.296 854.068, 759.250 853.750 C 760.034 853.489, 760.543 851.227, 760.615 847.682 C 760.736 841.759, 762.105 839, 764.922 839 C 767.943 839, 769 841.255, 769 847.700 C 769 851.233, 769.439 854, 770 854 C 770.578 854, 771 850.841, 771 846.523 C 771 839.765, 770.773 838.897, 768.635 837.496 C 766.837 836.319, 765.638 836.187, 763.635 836.949 C 760.819 838.019, 760.815 838.015, 760.625 833.588 C 760.556 831.986, 759.938 830.486, 759.250 830.254 C 758.295 829.933, 758 832.709, 758 842 M 668 842.500 L 668 854 674 854 C 677.300 854, 680.326 854.034, 680.725 854.075 C 681.124 854.116, 681.611 853.666, 681.808 853.075 C 682.035 852.394, 680.121 852, 676.583 852 L 671 852 671 841.500 C 671 832.833, 670.738 831, 669.500 831 C 668.254 831, 668 832.944, 668 842.500 M 685.192 832.075 C 685.389 832.666, 685.977 833.150, 686.500 833.150 C 687.023 833.150, 687.611 832.666, 687.808 832.075 C 688.005 831.484, 687.417 831, 686.500 831 C 685.583 831, 684.995 831.484, 685.192 832.075 M 739.224 833.261 C 736.483 836.179, 735.506 842.452, 736.955 847.832 C 738.868 854.937, 746.865 857.135, 752.025 851.975 C 753.111 850.889, 754 849.325, 754 848.500 C 754 846.204, 751.598 846.717, 750.487 849.250 C 749.766 850.894, 748.506 851.583, 745.805 851.807 C 742.569 852.076, 741.918 851.741, 740.555 849.107 C 735.416 839.169, 743.925 827.569, 750.163 836.007 C 752.722 839.468, 754.898 838.568, 752.943 834.857 C 751.226 831.600, 750.117 831.033, 745.424 831.015 C 742.471 831.004, 740.763 831.623, 739.224 833.261 M 793.588 834.507 C 793.243 835.878, 792.295 837, 791.481 837 C 789.298 837, 789.680 838.683, 792 839.290 C 793.759 839.750, 794 840.654, 794 846.799 C 794 854.211, 795.281 856.123, 798.836 854.018 C 800.307 853.146, 800.239 852.959, 798.250 852.399 C 796.218 851.828, 796 851.149, 796 845.383 C 796 840.376, 796.323 839, 797.500 839 C 798.325 839, 799 838.550, 799 838 C 799 837.450, 798.325 837, 797.500 837 C 796.675 837, 796 836.127, 796 835.059 C 796 832.088, 794.293 831.697, 793.588 834.507 M 623.207 835.040 C 621.949 837.054, 622.584 837.552, 624.697 836.208 C 625.356 835.790, 625.565 834.915, 625.163 834.263 C 624.650 833.433, 624.066 833.665, 623.207 835.040 M 696.500 836.942 C 695.400 837.371, 693.938 837.512, 693.250 837.255 C 692.311 836.902, 692 838.924, 692 845.393 C 692 850.464, 692.411 854, 693 854 C 693.554 854, 694 851.357, 694 848.071 C 694 841.749, 695.526 839, 699.036 839 C 701.733 839, 703.118 842.250, 702.504 847.137 C 702.213 849.452, 702.238 852.174, 702.559 853.187 C 703.669 856.685, 705 853.863, 705 848.012 C 705 841.751, 706.537 839, 710.036 839 C 712.732 839, 714 842.019, 714 848.434 C 714 851.495, 714.450 854, 715 854 C 716.605 854, 716.260 839.460, 714.623 838.102 C 713.865 837.473, 710.828 837.048, 707.873 837.156 C 704.918 837.265, 701.600 837.085, 700.500 836.757 C 699.400 836.428, 697.600 836.512, 696.500 836.942 M 723.894 837.124 C 717.310 839.515, 717.474 851.297, 724.130 854.054 C 727.454 855.431, 733 853.758, 733 851.379 C 733 849.779, 731.404 849.538, 730.500 851 C 729.392 852.793, 724.143 852.136, 723.035 850.066 C 721.152 846.547, 721.820 846, 728 846 C 733.659 846, 734 845.864, 734 843.611 C 734 838.679, 728.801 835.342, 723.894 837.124 M 778.228 837.064 C 775.893 837.976, 774.273 840.606, 775.370 841.704 C 775.710 842.043, 776.853 841.538, 777.911 840.580 C 780.532 838.209, 784.410 838.866, 784.820 841.750 C 785.096 843.699, 784.691 844, 781.792 844 C 774.745 844, 771.319 850.197, 776.493 853.587 C 778.234 854.728, 779.817 854.989, 781.743 854.451 C 783.259 854.028, 785.288 853.782, 786.250 853.904 C 787.780 854.098, 788 853.189, 788 846.685 C 788 841.925, 787.550 838.890, 786.750 838.260 C 784.738 836.675, 780.680 836.106, 778.228 837.064 M 814.095 836.968 C 811.491 837.593, 809.132 840.465, 810.279 841.613 C 810.669 842.002, 811.813 841.574, 812.823 840.661 C 815.262 838.453, 818.691 838.554, 819.930 840.869 C 821.228 843.294, 820.417 844, 816.333 844 C 812.811 844, 809 846.858, 809 849.500 C 809 850.325, 809.939 851.939, 811.087 853.087 C 812.667 854.667, 813.820 854.997, 815.837 854.447 C 817.301 854.048, 819.625 853.784, 821 853.860 C 823.478 853.997, 823.497 853.936, 823.161 846.749 C 822.974 842.762, 822.398 838.987, 821.880 838.361 C 820.653 836.875, 817.118 836.243, 814.095 836.968 M 833.538 836.796 C 833.257 837.076, 831.658 837.266, 829.983 837.219 L 826.938 837.132 827.219 848.734 C 827.417 856.920, 827.868 860.459, 828.750 860.752 C 829.597 861.033, 830 859.996, 830 857.538 C 830 853.975, 830.059 853.921, 833.298 854.528 C 839.969 855.780, 844.310 847.368, 840.648 840.287 C 839.222 837.528, 834.918 835.415, 833.538 836.796 M 851.692 836.642 C 851.327 837.007, 849.658 837.266, 847.983 837.219 L 844.938 837.132 845.219 848.734 C 845.417 856.920, 845.868 860.459, 846.750 860.752 C 847.592 861.031, 848 860.017, 848 857.646 C 848 854.237, 848.102 854.142, 851.250 854.634 C 855.404 855.284, 857.894 853.434, 858.870 848.973 C 859.661 845.355, 858.838 839.392, 857.357 838.020 C 856.020 836.780, 852.428 835.906, 851.692 836.642 M 685 845.500 C 685 852.389, 685.284 854, 686.500 854 C 687.716 854, 688 852.389, 688 845.500 C 688 838.611, 687.716 837, 686.500 837 C 685.284 837, 685 838.611, 685 845.500 M 591.015 841.250 C 591.028 843.069, 591.216 843.213, 592 842 C 593.253 840.061, 593.253 839, 592 839 C 591.450 839, 591.007 840.013, 591.015 841.250 M 621.250 840.220 C 618.116 841.732, 618.435 842.866, 622.468 844.551 C 627.077 846.477, 627 846.511, 627 842.500 C 627 838.696, 625.579 838.133, 621.250 840.220 M 723.562 840.581 C 721.395 842.748, 722.470 844, 726.500 844 C 730.352 844, 731.733 842.588, 729.964 840.456 C 728.381 838.549, 725.539 838.604, 723.562 840.581 M 831.200 840.200 C 830.540 840.860, 830 843.245, 830 845.500 C 830 850.121, 831.348 852, 834.665 852 C 837.320 852, 839 849.341, 839 845.137 C 839 840.188, 834.231 837.169, 831.200 840.200 M 849.200 840.200 C 847.938 841.462, 847.574 847.727, 848.607 850.418 C 849.487 852.712, 854.682 852.463, 855.965 850.066 C 859.251 843.926, 853.647 835.753, 849.200 840.200 M 616.716 846.651 C 615.870 848.020, 621.943 854.236, 623.531 853.627 C 624.884 853.107, 626.674 848.341, 625.833 847.499 C 624.902 846.568, 617.209 845.853, 616.716 846.651 M 778.529 847.355 C 776.115 849.120, 777.194 852, 780.269 852 C 783.055 852, 785 850.274, 785 847.800 C 785 845.611, 781.265 845.355, 778.529 847.355 M 813.529 847.355 C 811.099 849.132, 812.202 852, 815.314 852 C 818.009 852, 821.533 848.671, 820.539 847.063 C 819.620 845.576, 815.741 845.738, 813.529 847.355 M 614 854.441 C 614 859.304, 614.463 859.657, 618.453 857.839 C 621.573 856.418, 621.608 855.896, 618.750 853.323 C 614.448 849.450, 614 849.556, 614 854.441 M 803.639 851.694 C 802.513 852.820, 802.954 854, 804.500 854 C 805.325 854, 806 853.577, 806 853.059 C 806 851.798, 804.438 850.895, 803.639 851.694 M 609 858.500 C 607.960 859.753, 608.104 860, 609.878 860 C 611.098 860, 612 859.362, 612 858.500 C 612 857.675, 611.605 857, 611.122 857 C 610.640 857, 609.685 857.675, 609 858.500 " stroke="none" fill="black" fill-rule="evenodd"/>
</svg>