<svg xmlns="http://www.w3.org/2000/svg" width="607" height="1080" viewBox="0 0 607 1080" version="1.1">
	<path d="M 0 52.002 L 0 104.003 303.750 103.752 L 607.500 103.500 607.759 51.750 L 608.018 -0 304.009 -0 L 0 0 0 52.002 M 0.465 52.500 C 0.465 81.100, 0.593 92.656, 0.749 78.180 C 0.906 63.704, 0.906 40.304, 0.749 26.180 C 0.593 12.056, 0.465 23.900, 0.465 52.500 M 120 10 C 120 10.550, 120.477 11, 121.059 11 C 121.641 11, 121.840 10.550, 121.500 10 C 121.160 9.450, 120.684 9, 120.441 9 C 120.198 9, 120 9.450, 120 10 M 165.871 13.250 C 165.800 15.588, 165.666 18.767, 165.574 20.316 C 165.481 21.865, 165.764 23.354, 166.203 23.625 C 166.641 23.896, 167 20.716, 167 16.559 C 167 8.610, 166.093 5.950, 165.871 13.250 M 170.667 9.667 C 169.590 10.743, 169.897 23, 171 23 C 171.571 23, 172 20, 172 16 C 172 8.961, 171.891 8.443, 170.667 9.667 M 186.750 10.572 C 183.730 12.210, 182.882 14.680, 185.750 13.484 C 193.413 10.288, 192.587 10.288, 200.250 13.484 C 203.249 14.735, 202.203 12.156, 199.050 10.526 C 195.350 8.613, 190.327 8.632, 186.750 10.572 M 559.200 10.200 C 558.540 10.860, 558.053 12.547, 558.118 13.950 C 558.228 16.316, 558.283 16.284, 558.876 13.500 L 559.516 10.500 576.008 9.962 L 592.500 9.425 576.450 9.212 C 565.050 9.062, 560.052 9.348, 559.200 10.200 M 73 16.500 L 73 23 77.250 22.868 C 81.333 22.742, 81.371 22.712, 78.211 22.118 C 76.402 21.778, 74.939 21.163, 74.961 20.750 C 74.982 20.337, 75 19.354, 75 18.563 C 75 17.692, 76.279 16.968, 78.250 16.723 L 81.500 16.320 78.250 16.160 C 76.099 16.054, 75 15.493, 75 14.500 C 75 13.675, 74.985 12.662, 74.967 12.250 C 74.949 11.838, 76.636 11.226, 78.717 10.892 C 82.497 10.284, 82.496 10.284, 77.750 10.142 L 73 10 73 16.500 M 84 16.500 L 84 23 88.750 22.832 C 93.102 22.678, 93.186 22.631, 89.750 22.272 C 86.579 21.940, 86 21.513, 86 19.503 C 86 17.571, 86.608 17.051, 89.250 16.723 L 92.500 16.320 89.250 16.160 C 86.515 16.025, 86 15.613, 86 13.560 C 86 11.478, 86.549 11.063, 89.750 10.728 C 93.186 10.369, 93.102 10.322, 88.750 10.168 L 84 10 84 16.500 M 101 11.037 C 101 13.566, 104.199 23, 105.057 23 C 105.560 23, 106.481 20.975, 107.104 18.500 C 107.728 16.025, 108.541 14, 108.911 14 C 109.282 14, 110.127 16.025, 110.789 18.500 C 111.451 20.975, 112.412 23, 112.925 23 C 113.796 23, 117 13.594, 117 11.037 C 117 8.353, 115.119 11.335, 114.500 15 C 113.861 18.783, 112.006 21.602, 111.994 18.809 C 111.983 16.137, 109.874 10, 108.967 10 C 108.451 10, 107.517 12.033, 106.891 14.517 C 105.364 20.584, 104.360 20.884, 103.554 15.513 C 102.957 11.530, 101 8.101, 101 11.037 M 125 16.500 C 125 20.167, 125.436 23, 126 23 C 126.550 23, 127 21.875, 127 20.500 C 127 19, 127.600 17.950, 128.500 17.875 C 131.324 17.640, 131.834 17.499, 132.583 16.750 C 132.996 16.337, 131.908 16, 130.167 16 C 127.476 16, 127 15.633, 127 13.560 C 127 11.478, 127.549 11.063, 130.750 10.728 C 134.186 10.369, 134.102 10.322, 129.750 10.168 L 125 10 125 16.500 M 141.977 12.042 C 140.052 15.640, 141.166 21.250, 144.135 22.909 C 146.502 24.232, 147.044 24.202, 149.472 22.611 C 150.958 21.637, 151.902 20.569, 151.570 20.237 C 151.238 19.905, 150.434 20.166, 149.783 20.817 C 146.197 24.403, 141.019 20.043, 142.388 14.589 C 143.240 11.195, 147.737 9.919, 149.645 12.530 C 150.379 13.533, 151.230 14.103, 151.537 13.796 C 151.844 13.489, 151.367 12.510, 150.476 11.619 C 148.151 9.293, 143.320 9.534, 141.977 12.042 M 281.200 11.200 C 279.465 12.935, 279.722 14.476, 281.500 13 C 282.803 11.919, 283 12.493, 283 17.378 C 283 21.709, 283.345 23, 284.500 23 C 285.679 23, 286 21.611, 286 16.500 C 286 10.907, 285.749 10, 284.200 10 C 283.210 10, 281.860 10.540, 281.200 11.200 M 290 11.500 C 288.993 12.714, 289.027 13, 290.178 13 C 290.960 13, 292.101 12.499, 292.713 11.887 C 293.325 11.275, 294.315 11.077, 294.913 11.446 C 296.703 12.553, 296.148 14.623, 293.750 15.780 C 292.138 16.557, 291.962 16.884, 293.128 16.932 C 294.023 16.970, 295.266 17.615, 295.890 18.367 C 297.622 20.454, 294.787 22.492, 292.130 21.069 C 289.480 19.652, 288.955 19.720, 289.601 21.401 C 290.334 23.311, 293.708 24.062, 296.607 22.959 C 299.150 21.992, 299.762 19.162, 297.842 17.242 C 296.966 16.366, 296.995 15.711, 297.965 14.542 C 299.741 12.403, 297.644 10, 294 10 C 292.485 10, 290.685 10.675, 290 11.500 M 309.241 11.986 C 307.378 14.970, 307.739 19.739, 310 22 C 312.408 24.408, 312.917 24.447, 315.777 22.443 C 317.480 21.251, 318 19.895, 318 16.643 C 318 14.309, 317.460 11.860, 316.800 11.200 C 314.922 9.322, 310.625 9.769, 309.241 11.986 M 322.035 11.934 C 320.368 15.049, 320.826 19.826, 323 22 C 325.408 24.408, 325.917 24.447, 328.777 22.443 C 331.221 20.732, 331.823 15.406, 329.965 11.934 C 328.568 9.325, 323.432 9.325, 322.035 11.934 M 516.386 11.436 C 516.056 12.296, 516.058 13.708, 516.389 14.572 C 516.721 15.437, 516.499 17.067, 515.896 18.194 C 515.008 19.854, 515.185 20.629, 516.828 22.273 C 518.635 24.079, 519.194 24.162, 521.929 23.030 C 524.842 21.823, 525.930 19.268, 524.250 17.580 C 523.837 17.166, 523.500 15.403, 523.500 13.663 C 523.500 10.824, 523.166 10.468, 520.243 10.186 C 518 9.970, 516.799 10.359, 516.386 11.436 M 529.243 11.157 C 527.192 13.208, 527.843 14.452, 529.963 12.534 C 532.037 10.657, 535.001 11.060, 534.999 13.219 C 534.999 13.923, 533.424 16.269, 531.499 18.432 C 529.575 20.594, 528 22.507, 528 22.682 C 528 22.857, 529.913 22.947, 532.250 22.882 C 535.950 22.779, 536.125 22.682, 533.602 22.132 L 530.704 21.500 533.424 18.270 C 536.802 14.258, 536.608 10.630, 532.993 10.207 C 531.614 10.046, 529.927 10.473, 529.243 11.157 M 539.362 11.500 C 538.569 13.564, 539.644 16, 541.346 16 C 543.393 16, 545.135 13.514, 544.410 11.627 C 543.626 9.584, 540.131 9.496, 539.362 11.500 M 545.526 16.181 C 543.052 19.580, 541.247 22.580, 541.514 22.847 C 541.781 23.115, 542.139 23.146, 542.309 22.917 C 543.556 21.232, 549.753 12.254, 550.361 11.250 C 550.777 10.563, 550.872 10, 550.570 10 C 550.269 10, 547.999 12.781, 545.526 16.181 M 518 13 C 518 14.646, 518.518 15.065, 520.250 14.820 C 521.487 14.644, 522.500 13.825, 522.500 13 C 522.500 12.175, 521.487 11.356, 520.250 11.180 C 518.518 10.935, 518 11.354, 518 13 M 540.500 12 C 539.771 13.180, 540.717 15, 542.059 15 C 542.577 15, 543 14.100, 543 13 C 543 10.891, 541.545 10.309, 540.500 12 M 560 16.393 C 560 19.795, 560.462 21.956, 561.250 22.248 C 561.938 22.502, 568.237 22.803, 575.250 22.917 L 588 23.125 588 17.063 L 588 11 574 11 L 560 11 560 16.393 M 594.185 16.667 C 594.070 20.513, 593.530 23.023, 592.750 23.338 C 591.771 23.733, 591.778 23.859, 592.781 23.921 C 594.650 24.036, 595.161 21.943, 594.742 15.881 L 594.370 10.500 594.185 16.667 M 12.046 13.445 C 10.446 15.373, 11.080 19.032, 13.250 20.393 C 17.167 22.848, 21.154 16.048, 17.404 13.306 C 15.090 11.614, 13.532 11.654, 12.046 13.445 M 23.571 13.571 C 20.205 16.938, 22.841 21.759, 27.420 20.609 C 30.673 19.793, 31.690 16.420, 29.435 13.928 C 27.318 11.589, 25.655 11.488, 23.571 13.571 M 38.750 13.220 C 39.987 13.817, 41.052 15.249, 41.116 16.403 C 41.223 18.341, 41.269 18.353, 41.725 16.566 C 42.215 14.643, 39.703 11.931, 37.559 12.068 C 36.976 12.105, 37.513 12.624, 38.750 13.220 M 60.648 12.993 C 61.829 13.470, 63.095 14.345, 63.462 14.939 C 64.598 16.777, 63.016 19.852, 60.703 20.300 L 58.500 20.728 60.771 20.864 C 64.189 21.069, 65.934 16.689, 63.504 14.004 C 62.506 12.902, 60.972 12.029, 60.095 12.063 C 59.007 12.107, 59.182 12.402, 60.648 12.993 M 303 13.500 C 303 14.325, 303.450 15, 304 15 C 304.550 15, 305 14.325, 305 13.500 C 305 12.675, 304.550 12, 304 12 C 303.450 12, 303 12.675, 303 13.500 M 310.620 14.377 C 309.945 17.067, 311.390 22, 312.853 22 C 314.701 22, 316.126 19.026, 315.818 15.815 C 315.406 11.521, 311.601 10.468, 310.620 14.377 M 323.844 13.680 C 323.568 16.913, 324.113 20.477, 325.025 21.408 C 326.757 23.174, 329.116 19.848, 328.801 16.086 C 328.562 13.241, 328.035 12.434, 326.250 12.180 C 324.664 11.955, 323.954 12.398, 323.844 13.680 M 51.564 14.293 C 51.940 15.279, 52.499 15.834, 52.807 15.526 C 53.115 15.219, 52.808 14.412, 52.124 13.733 C 51.136 12.753, 51.022 12.868, 51.564 14.293 M 56.667 13.667 C 55.759 14.574, 55.821 18.771, 56.750 19.345 C 57.163 19.600, 57.500 18.277, 57.500 16.405 C 57.500 14.532, 57.462 13, 57.417 13 C 57.371 13, 57.033 13.300, 56.667 13.667 M 120 18 C 120 20.750, 120.450 23, 121 23 C 121.550 23, 122 20.750, 122 18 C 122 15.250, 121.550 13, 121 13 C 120.450 13, 120 15.250, 120 18 M 136.070 18.191 C 136.122 22.080, 136.370 22.965, 137 21.500 C 138.198 18.713, 138.198 14.240, 137 13.500 C 136.378 13.116, 136.027 14.890, 136.070 18.191 M 155.667 13.667 C 154.425 14.909, 154.991 15.579, 157.250 15.539 C 160.651 15.480, 160.804 17.428, 157.443 18.010 C 155.342 18.374, 154.500 19.089, 154.500 20.510 C 154.500 22.088, 155.277 22.564, 158.250 22.810 C 161.924 23.114, 162 23.050, 162 19.642 C 162 17.729, 161.727 15.452, 161.393 14.582 C 160.789 13.009, 156.940 12.394, 155.667 13.667 M 187.980 15.524 C 186.196 17.673, 187.279 18.286, 190.371 16.877 C 192.413 15.946, 193.587 15.946, 195.629 16.877 C 198.872 18.355, 200.200 17.350, 197.557 15.418 C 194.999 13.547, 189.571 13.607, 187.980 15.524 M 596 16.500 C 596 17.875, 596.450 19, 597 19 C 597.550 19, 598 17.875, 598 16.500 C 598 15.125, 597.550 14, 597 14 C 596.450 14, 596 15.125, 596 16.500 M 33.079 16.583 C 33.127 17.748, 33.364 17.985, 33.683 17.188 C 33.972 16.466, 33.936 15.603, 33.604 15.271 C 33.272 14.939, 33.036 15.529, 33.079 16.583 M 518.250 17.651 C 517.563 17.935, 517 19.029, 517 20.083 C 517 21.556, 517.711 22, 520.070 22 C 522.677 22, 523.091 21.663, 522.820 19.760 C 522.501 17.531, 520.632 16.668, 518.250 17.651 M 548.250 17.662 C 546.662 18.303, 546.633 21.233, 548.200 22.800 C 549.897 24.497, 550.769 24.301, 552.034 21.936 C 552.854 20.404, 552.832 19.502, 551.947 18.436 C 550.695 16.928, 550.283 16.842, 548.250 17.662 M 558.195 19.500 C 558.215 21.150, 558.439 21.704, 558.693 20.731 C 558.947 19.758, 558.930 18.408, 558.656 17.731 C 558.382 17.054, 558.175 17.850, 558.195 19.500 M 548.674 19.408 C 548.111 20.874, 548.759 22, 550.167 22 C 551.283 22, 551.234 19.263, 550.105 18.565 C 549.612 18.260, 548.968 18.640, 548.674 19.408 M 38 20 C 35.673 20.745, 35.651 20.808, 37.691 20.900 C 38.896 20.955, 40.160 20.550, 40.500 20 C 40.840 19.450, 40.979 19.045, 40.809 19.100 C 40.639 19.155, 39.375 19.560, 38 20 M 156 20.500 C 156 21.325, 156.852 22, 157.893 22 C 158.934 22, 160.045 21.325, 160.362 20.500 C 160.777 19.416, 160.252 19, 158.469 19 C 156.941 19, 156 19.572, 156 20.500 M 190 19.878 C 190 20.360, 190.675 21.315, 191.500 22 C 192.697 22.993, 193.303 22.993, 194.500 22 C 196.823 20.072, 196.287 19, 193 19 C 191.350 19, 190 19.395, 190 19.878 M 303.583 19.866 C 303.152 20.563, 303.070 21.403, 303.400 21.733 C 304.295 22.628, 305.271 21.312, 304.787 19.862 C 304.449 18.846, 304.213 18.846, 303.583 19.866 M 207.655 46.829 C 206.232 48.401, 206.004 51.381, 206.032 68.079 C 206.056 82.642, 206.396 87.938, 207.392 89.250 C 208.641 90.895, 214.396 91, 303.289 91 C 387.927 91, 398.022 90.835, 399.429 89.429 C 401.770 87.087, 401.770 48.913, 399.429 46.571 C 398.022 45.165, 387.953 45, 303.584 45 C 213.523 45, 209.236 45.082, 207.655 46.829 M 304 68 L 304 90 350.345 90 C 393.973 90, 396.787 89.893, 398.345 88.171 C 399.760 86.608, 400 83.653, 400 67.826 C 400 51.158, 399.817 49.145, 398.171 47.655 C 396.525 46.165, 391.731 46, 350.171 46 L 304 46 304 68 M 591.628 48.793 C 591.321 49.290, 592.006 50.703, 593.151 51.932 C 595.646 54.610, 598.260 53.222, 596.370 50.222 C 595.132 48.256, 592.458 47.450, 591.628 48.793 M 50.818 53.500 C 49.597 56.181, 47.982 56.596, 44.995 54.997 C 42.642 53.738, 41.456 55.372, 41.868 59.306 C 42.113 61.642, 41.646 62.307, 39.081 63.275 C 35.538 64.613, 35.116 66.456, 38 68 C 40.218 69.187, 40.659 72.941, 38.800 74.800 C 37.204 76.396, 38.699 77.759, 42.500 78.173 C 44.948 78.440, 45.559 79.017, 45.822 81.309 C 46.218 84.757, 48.470 85.790, 50.866 83.621 C 51.851 82.730, 53.037 82, 53.500 82 C 53.963 82, 55.149 82.730, 56.134 83.621 C 58.530 85.790, 60.782 84.757, 61.178 81.309 C 61.441 79.017, 62.052 78.440, 64.500 78.173 C 68.301 77.759, 69.796 76.396, 68.200 74.800 C 66.341 72.941, 66.782 69.187, 69 68 C 71.772 66.516, 71.504 65.312, 68 63.500 C 65.555 62.236, 65 61.317, 65 58.533 C 65 54.816, 63.475 53.125, 61.713 54.887 C 59.820 56.780, 57.011 56.119, 55.818 53.500 C 55.192 52.125, 54.067 51, 53.318 51 C 52.570 51, 51.445 52.125, 50.818 53.500 M 581.788 58.750 C 577.379 63.207, 573.822 67.730, 573.416 69.395 C 572.736 72.184, 572.816 72.263, 575.596 71.565 C 578.798 70.762, 594.808 55.475, 593.655 54.322 C 593.262 53.928, 589.367 57.159, 585 61.500 C 580.633 65.841, 576.733 69.066, 576.333 68.667 C 575.934 68.267, 579.070 64.456, 583.303 60.198 C 587.536 55.940, 591 52.128, 591 51.728 C 591 49.946, 588.950 51.509, 581.788 58.750 M 560 69.500 L 560 85 575.500 85 L 591 85 591 72.941 C 591 65.156, 590.646 61.101, 590 61.500 C 589.434 61.850, 589.001 66.758, 589.002 72.809 L 589.003 83.500 575.502 83.196 L 562 82.892 562 69.446 L 562 56 572.441 56 C 578.323 56, 583.152 55.563, 583.500 55 C 583.899 54.354, 579.844 54, 572.059 54 L 560 54 560 69.500 M 46.923 61.923 C 38.344 70.502, 50.494 83.501, 59.694 75.587 C 62.024 73.583, 62.500 72.380, 62.500 68.500 C 62.500 64.620, 62.024 63.417, 59.694 61.413 C 55.682 57.962, 50.685 58.161, 46.923 61.923 M 229.667 60.667 C 228.587 61.747, 228.895 75, 230 75 C 230.578 75, 231 71.833, 231 67.500 C 231 59.969, 230.896 59.437, 229.667 60.667 M 247 60.316 C 246.725 60.596, 246.647 63.951, 246.827 67.771 L 247.153 74.717 251.242 74.609 C 254.781 74.515, 255.455 74.126, 256.259 71.718 C 257.656 67.535, 254.818 63.586, 250.970 64.356 C 248.487 64.853, 248.086 64.600, 247.813 62.367 C 247.641 60.959, 247.275 60.037, 247 60.316 M 351.111 67.500 C 351.069 75.445, 352.672 77.947, 353.193 70.750 C 353.466 66.965, 353.774 66.500, 356 66.500 C 358.226 66.500, 358.534 66.965, 358.807 70.750 C 359.227 76.541, 360.694 76.172, 360.387 70.353 C 360.119 65.283, 358.721 63.693, 355.250 64.509 C 353.372 64.951, 353 64.621, 353 62.519 C 353 61.134, 352.584 60, 352.075 60 C 351.566 60, 351.132 63.375, 351.111 67.500 M 364 61.059 C 364 61.641, 364.450 61.840, 365 61.500 C 365.550 61.160, 366 60.684, 366 60.441 C 366 60.198, 365.550 60, 365 60 C 364.450 60, 364 60.477, 364 61.059 M 319.871 68.013 C 318.426 71.856, 317.680 75, 318.215 75 C 318.750 75, 319.423 74.100, 319.710 73 C 320.498 69.986, 326.518 70.181, 327.451 73.250 C 327.909 74.756, 328.315 75.057, 328.681 74.158 C 329.376 72.452, 324.876 60.996, 323.517 61.013 C 322.958 61.020, 321.317 64.170, 319.871 68.013 M 322.752 64.665 C 322.463 65.674, 321.903 67.287, 321.506 68.250 C 320.954 69.591, 321.279 70, 322.893 70 C 324.416 70, 324.996 69.376, 324.985 67.750 C 324.962 64.434, 323.426 62.311, 322.752 64.665 M 234.134 69.611 C 233.987 75.964, 235.745 76.936, 236.193 70.750 C 236.447 67.239, 236.885 66.445, 238.715 66.185 C 240.388 65.947, 241.087 66.500, 241.577 68.451 C 241.933 69.871, 241.991 71.925, 241.706 73.016 C 241.410 74.150, 241.683 75, 242.344 75 C 243.524 75, 243.689 66.356, 242.531 65.198 C 242.210 64.877, 240.217 64.526, 238.103 64.418 L 234.258 64.221 234.134 69.611 M 260.571 65.571 C 258.712 67.431, 258.501 72.101, 260.200 73.800 C 260.860 74.460, 262.570 75, 264 75 C 267.341 75, 269 73.299, 269 69.871 C 269 66.719, 266.685 64, 264 64 C 262.979 64, 261.436 64.707, 260.571 65.571 M 271.065 64.500 C 271.064 65.050, 271.724 66.374, 272.532 67.441 C 274.421 69.939, 274.394 70.200, 271.961 72.811 C 270.840 74.015, 270.453 75, 271.101 75 C 271.749 75, 272.886 74.213, 273.627 73.250 C 274.893 71.607, 275.085 71.640, 276.776 73.795 C 277.766 75.057, 278.882 75.785, 279.256 75.411 C 279.629 75.038, 279.043 73.598, 277.953 72.213 C 276.108 69.868, 276.082 69.524, 277.565 67.260 C 279.574 64.195, 278.904 63.343, 276.540 65.956 C 274.772 67.909, 274.745 67.907, 272.913 65.712 C 271.897 64.495, 271.066 63.950, 271.065 64.500 M 332.002 69.750 C 332 75.590, 333.454 77.091, 333.580 71.380 C 333.637 68.791, 334.347 67.241, 336.080 65.917 L 338.500 64.070 335.252 64.285 C 332.028 64.498, 332.004 64.539, 332.002 69.750 M 340.655 65.829 C 337.172 69.677, 339.600 75.405, 344.472 74.836 C 346.053 74.651, 347.542 73.903, 347.782 73.174 C 348.138 72.088, 347.849 72.077, 346.190 73.113 C 343.588 74.739, 341 72.860, 341 69.346 C 341 66.467, 343.540 65.232, 346.132 66.851 C 347.622 67.781, 348 67.733, 348 66.615 C 348 63.713, 343.049 63.183, 340.655 65.829 M 364 69.441 C 364 72.498, 364.450 75, 365 75 C 365.550 75, 366 72.777, 366 70.059 C 366 67.341, 365.550 64.840, 365 64.500 C 364.379 64.116, 364 65.990, 364 69.441 M 368.507 65.913 C 369.959 70.705, 372.045 75, 372.919 75 C 373.768 75, 377 66.781, 377 64.622 C 377 62.666, 375.252 65.466, 373.966 69.484 L 372.690 73.468 371.319 69.508 C 369.777 65.053, 367.277 61.858, 368.507 65.913 M 380.357 66.577 C 377.725 70.595, 379.492 74.500, 383.941 74.500 C 385.870 74.500, 387.524 73.928, 387.775 73.174 C 388.137 72.088, 387.849 72.077, 386.190 73.113 C 384.546 74.140, 383.863 74.131, 382.581 73.067 C 380.010 70.933, 380.746 70, 385 70 C 389.414 70, 389.738 69.499, 387.443 66.223 C 385.371 63.264, 382.432 63.411, 380.357 66.577 M 382.739 66.126 C 380.066 67.622, 380.671 69, 384 69 C 387.170 69, 387.832 67.935, 385.739 66.199 C 384.906 65.507, 383.889 65.483, 382.739 66.126 M 249.338 67.250 C 247.771 69.761, 248.070 71.967, 250.127 73.068 C 253.052 74.634, 255.512 72.174, 254.611 68.585 C 253.916 65.816, 250.735 65.011, 249.338 67.250 M 261.709 66.624 C 259.281 69.053, 262.444 74.811, 265.551 73.619 C 267.995 72.681, 267.096 66.585, 264.459 66.208 C 263.336 66.047, 262.099 66.235, 261.709 66.624 M 172 125 C 170.819 125.730, 170.770 126.170, 171.758 127.158 C 172.724 128.124, 173.267 128.133, 174.200 127.200 C 175.822 125.578, 174.005 123.761, 172 125 M 123.667 125.667 C 123.300 126.033, 123 129.891, 123 134.240 C 123 141.232, 123.202 142.108, 124.750 141.808 C 126.073 141.552, 126.421 140.680, 126.175 138.235 C 125.856 135.064, 125.930 135, 129.925 135 C 133.916 135, 134 135.073, 134 138.500 C 134 140.944, 134.452 142, 135.500 142 C 136.716 142, 137 140.389, 137 133.500 C 137 126.611, 136.716 125, 135.500 125 C 134.448 125, 134 126.062, 134 128.560 C 134 132.063, 133.939 132.116, 130.250 131.810 C 126.826 131.527, 126.473 131.217, 126.187 128.250 C 125.884 125.113, 125.063 124.271, 123.667 125.667 M 190.462 128.699 C 189.253 130.543, 189.059 131.520, 189.847 131.782 C 190.481 131.994, 191 133.509, 191 135.149 C 191 139.186, 192.657 142, 195.035 142 C 197.337 142, 197.686 139.477, 195.500 138.638 C 194.675 138.322, 194 136.910, 194 135.500 C 194 134.090, 194.675 132.678, 195.500 132.362 C 196.325 132.045, 197 131.159, 197 130.393 C 197 129.627, 196.325 129, 195.500 129 C 194.675 129, 194 128.325, 194 127.500 C 194 125.182, 192.414 125.720, 190.462 128.699 M 50.501 130.299 C 47.677 133.123, 47.101 134.546, 46.497 140.183 C 46.109 143.805, 46.087 147.698, 46.447 148.833 C 46.899 150.258, 46.455 151.456, 45.013 152.699 C 37.333 159.319, 37.002 159.786, 36.884 164.173 C 36.820 166.553, 36.557 167.686, 36.299 166.692 C 35.966 165.406, 35.061 164.973, 33.165 165.192 C 30.876 165.457, 30.456 166.027, 30.190 169.237 C 29.882 172.955, 29.897 172.971, 33.097 172.331 L 36.314 171.687 35.613 180.094 C 35.227 184.717, 34.659 189.509, 34.349 190.743 C 33.918 192.462, 34.336 193.189, 36.138 193.855 C 37.458 194.344, 38.492 195.548, 38.495 196.601 C 38.498 197.935, 40.087 199.120, 44 200.707 C 50.655 203.407, 63.007 203.781, 70.643 201.514 C 85.605 197.070, 97.486 183.093, 100.100 166.859 C 101.183 160.133, 99.442 149.747, 96.149 143.291 C 93.829 138.745, 88.093 131.648, 84.374 128.722 C 81.151 126.187, 80.325 127.247, 79.489 134.991 C 78.538 143.809, 78.231 144.537, 74.823 146.057 C 72.531 147.079, 71.347 148.449, 70.765 150.750 C 69.608 155.324, 68.034 154.790, 67.815 149.750 C 67.546 143.558, 67.336 141.679, 66.723 140 C 66.422 139.175, 65.733 137.150, 65.190 135.500 C 64.648 133.850, 63.907 131.770, 63.544 130.878 C 63.004 129.550, 63.395 129.348, 65.692 129.764 C 67.236 130.044, 68.267 130.016, 67.982 129.702 C 67.697 129.388, 66.252 128.968, 64.770 128.770 C 63.288 128.571, 61.759 128.092, 61.371 127.704 C 60.984 127.317, 59.122 127, 57.233 127 C 54.683 127, 52.952 127.848, 50.501 130.299 M 543.250 127.662 C 542.563 127.940, 542.007 128.917, 542.015 129.833 C 542.027 131.142, 542.214 131.210, 542.885 130.152 C 543.895 128.558, 547.154 128.960, 547.751 130.751 C 547.980 131.439, 547.150 132.379, 545.907 132.839 L 543.647 133.675 545.824 134.244 C 547.021 134.557, 548 135.544, 548 136.438 C 548 138.511, 545.216 139.616, 543.733 138.133 C 542.046 136.446, 540.558 136.762, 542 138.500 C 544.957 142.063, 551.603 138.797, 549.206 134.958 C 548.561 133.925, 548.300 132.381, 548.628 131.527 C 549.742 128.623, 546.552 126.330, 543.250 127.662 M 560 129 C 556.353 132.647, 558.024 140, 562.500 140 C 563.953 140, 565.386 139.147, 566.065 137.878 C 567.858 134.528, 565.652 127, 562.878 127 C 562.395 127, 561.100 127.900, 560 129 M 571.267 128.250 C 568.186 132.187, 569.603 140, 573.398 140 C 576.585 140, 578 138.115, 578 133.871 C 578 128.473, 573.822 124.985, 571.267 128.250 M 534.250 128.662 C 533.563 128.940, 533 129.565, 533 130.052 C 533 130.539, 533.675 130.678, 534.500 130.362 C 535.713 129.896, 536 130.764, 536 134.893 C 536 137.702, 536.450 140, 537 140 C 537.556 140, 538 137.333, 538 134 C 538 128.032, 537.517 127.344, 534.250 128.662 M 141.200 130.200 C 139.164 132.236, 139.864 133.189, 142.905 132.521 C 144.571 132.155, 146.089 132.334, 146.464 132.941 C 146.839 133.548, 146.286 134, 145.170 134 C 144.098 134, 142.159 134.872, 140.861 135.937 C 137.297 138.862, 139.321 141.446, 145.357 141.679 L 150 141.857 150 136.464 C 150 132.155, 149.611 130.862, 148.066 130.035 C 145.493 128.658, 142.674 128.726, 141.200 130.200 M 153 135.600 C 153 140.622, 153.323 142, 154.500 142 C 155.612 142, 156 140.831, 156 137.475 C 156 133.541, 156.334 132.824, 158.560 131.977 C 161.963 130.683, 160.864 129.200, 156.503 129.200 L 153 129.200 153 135.600 M 162.468 129.866 C 162.210 130.123, 162 132.958, 162 136.167 C 162 140.582, 162.351 142, 163.443 142 C 164.425 142, 164.983 140.644, 165.193 137.750 C 165.430 134.469, 166.013 133.275, 167.750 132.513 C 171.206 130.997, 170.483 129.184, 166.468 129.298 C 164.525 129.353, 162.725 129.609, 162.468 129.866 M 171.688 129.646 C 171.309 130.024, 171 132.958, 171 136.167 C 171 141.379, 171.218 142, 173.048 142 C 174.922 142, 175.070 141.478, 174.798 135.829 C 174.524 130.149, 173.406 127.927, 171.688 129.646 M 178.488 131.013 C 176.099 133.653, 176.119 138.882, 178.524 140.642 C 180.822 142.322, 185.194 142.406, 186.800 140.800 C 188.951 138.649, 188.074 137.965, 184 138.616 C 180.959 139.102, 180 138.925, 179.999 137.878 C 179.999 136.954, 181.226 136.500, 183.726 136.500 C 188.083 136.500, 189.268 134.059, 186.433 130.926 C 184.178 128.434, 180.789 128.471, 178.488 131.013 M 560.141 131.148 C 558.912 134.471, 560.244 138.500, 562.572 138.500 C 564.190 138.500, 564.500 137.778, 564.500 134.014 C 564.500 130.531, 564.107 129.452, 562.745 129.189 C 561.642 128.977, 560.675 129.704, 560.141 131.148 M 571.667 129.667 C 570.834 130.500, 570.797 135.307, 571.607 137.418 C 573.285 141.792, 577.630 136.357, 576.393 131.431 C 575.817 129.133, 573.183 128.150, 571.667 129.667 M 553 131.059 C 553 131.641, 553.450 131.840, 554 131.500 C 554.550 131.160, 555 130.684, 555 130.441 C 555 130.198, 554.550 130, 554 130 C 553.450 130, 553 130.477, 553 131.059 M 180.500 133 C 180.148 133.569, 181.009 134, 182.500 134 C 183.991 134, 184.852 133.569, 184.500 133 C 184.160 132.450, 183.260 132, 182.500 132 C 181.740 132, 180.840 132.450, 180.500 133 M 143 138 C 143 138.550, 143.648 139, 144.441 139 C 145.234 139, 146.160 138.550, 146.500 138 C 146.840 137.450, 146.191 137, 145.059 137 C 143.927 137, 143 137.450, 143 138 M 553 138.059 C 553 138.641, 553.450 138.840, 554 138.500 C 554.550 138.160, 555 137.684, 555 137.441 C 555 137.198, 554.550 137, 554 137 C 553.450 137, 553 137.477, 553 138.059 M 18.195 168.500 C 18.215 170.150, 18.439 170.704, 18.693 169.731 C 18.947 168.758, 18.930 167.408, 18.656 166.731 C 18.382 166.054, 18.175 166.850, 18.195 168.500 M 124.750 172.031 C 126.688 172.810, 127.023 173.738, 127.168 178.718 L 127.336 184.500 127.918 178.595 C 128.378 173.932, 128.920 172.527, 130.500 171.915 C 131.870 171.385, 130.925 171.138, 127.500 171.134 C 123.531 171.128, 122.964 171.313, 124.750 172.031 M 154.790 173.750 C 154.118 177.043, 156.245 184.001, 157.918 183.985 C 159.170 183.973, 159.221 183.793, 158.162 183.121 C 157.401 182.639, 156.905 180.812, 157.013 178.886 C 157.306 173.653, 157.081 172, 156.073 172 C 155.564 172, 154.986 172.787, 154.790 173.750 M 134.381 176.541 C 132.155 179.938, 133.810 184, 137.420 184 C 138.774 184, 140.110 183.631, 140.388 183.181 C 140.667 182.730, 139.568 182.557, 137.947 182.794 C 135.723 183.121, 135 182.831, 135 181.613 C 135 180.726, 135.563 179.993, 136.250 179.985 C 137.081 179.975, 136.997 179.649, 136 179.015 C 134.760 178.226, 134.718 177.709, 135.758 176.031 C 137.589 173.077, 136.350 173.537, 134.381 176.541 M 146.724 175.134 C 144.703 176.265, 144.410 179, 146.309 179 C 147.029 179, 148.491 179.647, 149.559 180.438 C 151.477 181.859, 151.476 181.895, 149.500 183.493 C 147.544 185.075, 147.549 185.086, 149.750 184.020 C 152.866 182.510, 152.562 180.475, 149 179 C 147.350 178.317, 146 177.399, 146 176.962 C 146 175.651, 148.379 175.208, 150.250 176.170 C 151.213 176.665, 152 176.845, 152 176.570 C 152 175.245, 148.317 174.243, 146.724 175.134 M 199 174.409 C 199 174.599, 199.675 175.315, 200.500 176 C 201.365 176.718, 202 176.815, 202 176.229 C 202 175.671, 201.325 174.955, 200.500 174.638 C 199.675 174.322, 199 174.219, 199 174.409 M 206.347 175.604 C 204.556 177.027, 204.555 177.107, 206.337 178.285 C 211.382 181.622, 211.597 181.897, 210 182.966 C 208.713 183.827, 208.749 183.972, 210.250 183.985 C 213.362 184.012, 212.369 180.024, 208.968 178.839 C 206.601 178.014, 206.178 177.490, 207.041 176.450 C 207.649 175.718, 208.788 175.365, 209.573 175.666 C 210.358 175.968, 211 175.989, 211 175.714 C 211 174.376, 207.984 174.305, 206.347 175.604 M 217.250 174.662 C 216.563 174.940, 216 175.669, 216 176.283 C 216 177.102, 216.299 177.101, 217.122 176.278 C 219.052 174.348, 221 176.021, 221 179.607 C 221 182.560, 220.675 183, 218.500 183 C 215.389 183, 215.245 181.257, 218.250 179.978 C 220.467 179.034, 220.464 179.023, 218 179.260 C 216.247 179.428, 215.500 180.097, 215.500 181.500 C 215.500 183.079, 216.268 183.564, 219.150 183.804 L 222.800 184.109 222.574 179.971 C 222.311 175.160, 220.498 173.352, 217.250 174.662 M 227.571 175.571 C 224.195 178.948, 226.716 184.831, 231.053 183.696 C 232.601 183.292, 233.033 183.575, 232.781 184.828 C 232.566 185.897, 231.489 186.488, 229.797 186.466 C 228.341 186.448, 227.367 186.785, 227.634 187.216 C 228.385 188.432, 232.796 188.140, 233.611 186.820 C 234.012 186.171, 234.469 183.206, 234.626 180.230 C 234.855 175.886, 234.631 174.928, 233.488 175.366 C 232.705 175.667, 231.798 175.482, 231.473 174.956 C 230.621 173.578, 229.367 173.776, 227.571 175.571 M 138.750 175.662 C 140.329 176.299, 140.396 179, 138.833 179 C 138.192 179, 137.947 179.281, 138.290 179.624 C 138.633 179.966, 139.628 179.973, 140.500 179.638 C 141.755 179.157, 141.861 178.609, 141.008 177.015 C 140.415 175.907, 139.383 175.036, 138.715 175.079 C 137.799 175.138, 137.808 175.282, 138.750 175.662 M 167 179.809 C 167 184.889, 168.244 184.852, 168.400 179.767 C 168.479 177.178, 168.967 176.434, 170.750 176.180 C 172.767 175.894, 173 176.282, 173 179.930 C 173 182.170, 173.484 184, 174.077 184 C 174.683 184, 175.030 182.574, 174.872 180.736 C 174.717 178.940, 174.875 177.012, 175.221 176.451 C 175.612 175.819, 174.166 175.402, 171.426 175.357 L 167 175.284 167 179.809 M 178.387 176.247 C 179.763 177.287, 180.149 178.532, 179.811 180.837 C 179.555 182.577, 179.744 184, 180.231 184 C 180.717 184, 180.977 182.091, 180.807 179.759 C 180.566 176.432, 180.069 175.442, 178.500 175.169 C 176.556 174.830, 176.553 174.861, 178.387 176.247 M 184.430 177.421 C 184.096 178.752, 183.975 180.614, 184.161 181.558 C 184.649 184.032, 188.401 185.159, 190.652 183.509 C 192.326 182.282, 192.171 182.171, 189 182.327 C 186.045 182.473, 185.449 182.141, 185.173 180.195 C 184.994 178.927, 185.386 177.240, 186.046 176.445 C 186.872 175.449, 186.902 175, 186.141 175 C 185.535 175, 184.765 176.089, 184.430 177.421 M 190.344 177.467 C 190.980 178.824, 191.655 179.484, 191.844 178.934 C 192.334 177.512, 191.237 175, 190.125 175 C 189.601 175, 189.698 176.088, 190.344 177.467 M 195.666 176.427 C 195.090 177.928, 196.329 179.272, 199.250 180.313 C 201.982 181.287, 201.363 183.303, 198.500 182.755 C 197.125 182.492, 196 182.693, 196 183.202 C 196 183.711, 197.463 183.986, 199.250 183.813 C 203.511 183.402, 203.503 180.992, 199.233 178.976 C 196.667 177.765, 196.227 177.173, 197.183 176.217 C 197.988 175.412, 198.030 175, 197.307 175 C 196.706 175, 195.968 175.642, 195.666 176.427 M 228.011 176.487 C 227.289 177.357, 227.045 179.044, 227.424 180.552 C 227.913 182.500, 228.612 183.053, 230.285 182.815 C 232.846 182.451, 233.828 178.703, 231.954 176.445 C 230.435 174.614, 229.557 174.624, 228.011 176.487 M 238.667 175.667 C 237.834 176.499, 237.800 180.316, 238.607 182.418 C 239.258 184.115, 244.487 184.639, 245.436 183.103 C 245.741 182.610, 244.530 182.272, 242.745 182.353 C 239.773 182.488, 239.500 182.247, 239.500 179.500 C 239.500 177.056, 239.917 176.500, 241.750 176.500 C 244.710 176.500, 244.750 178.322, 241.809 179.150 C 239.610 179.770, 239.629 179.805, 242.191 179.900 C 245.234 180.013, 246.291 178.922, 245.396 176.590 C 244.790 175.011, 239.982 174.351, 238.667 175.667 M 186.750 179.662 C 187.438 179.940, 188.563 179.940, 189.250 179.662 C 189.938 179.385, 189.375 179.158, 188 179.158 C 186.625 179.158, 186.063 179.385, 186.750 179.662 M 205.733 183.124 C 206.412 183.808, 207.219 184.115, 207.526 183.807 C 207.834 183.499, 207.279 182.940, 206.293 182.564 C 204.868 182.022, 204.753 182.136, 205.733 183.124 " stroke="none" fill="black" fill-rule="evenodd"/>
</svg>