<svg xmlns="http://www.w3.org/2000/svg" width="607" height="1080" viewBox="0 0 607 1080" version="1.1">
	<path d="M 0 52.002 L 0 104.003 303.750 103.752 L 607.500 103.500 607.759 51.750 L 608.018 -0 304.009 -0 L 0 0 0 52.002 M 0.465 52.500 C 0.465 81.100, 0.593 92.656, 0.749 78.180 C 0.906 63.704, 0.906 40.304, 0.749 26.180 C 0.593 12.056, 0.465 23.900, 0.465 52.500 M 490.455 10.455 C 485.243 15.666, 488.705 24.017, 496.064 23.985 C 499.809 23.968, 502.879 22.545, 501.704 21.371 C 501.299 20.965, 500.434 21.166, 499.783 21.817 C 496.544 25.056, 489 21.084, 489 16.140 C 489 13.372, 493.224 9, 495.899 9 C 498.789 9, 503.888 13.708, 502.203 14.820 C 501.168 15.503, 501.227 15.943, 502.495 16.996 C 504.780 18.892, 506.754 16.805, 504.867 14.488 C 498.856 7.108, 494.906 6.003, 490.455 10.455 M 120 10 C 120 10.550, 120.450 11, 121 11 C 121.550 11, 122 10.550, 122 10 C 122 9.450, 121.550 9, 121 9 C 120.450 9, 120 9.450, 120 10 M 136 10 C 136 10.550, 136.450 11, 137 11 C 137.550 11, 138 10.550, 138 10 C 138 9.450, 137.550 9, 137 9 C 136.450 9, 136 9.450, 136 10 M 144.079 10.265 C 138.749 12.984, 139.513 21.401, 145.274 23.427 C 147.577 24.237, 148.413 24.031, 150.244 22.201 C 151.454 20.990, 151.921 20, 151.281 20 C 150.641 20, 149.840 20.450, 149.500 21 C 149.160 21.550, 147.772 22, 146.416 22 C 141.692 22, 140.951 13.107, 145.529 11.351 C 146.379 11.024, 147.960 11.559, 149.043 12.539 C 150.126 13.519, 151.347 13.985, 151.756 13.574 C 152.456 12.872, 148.519 8.983, 147.139 9.015 C 146.788 9.023, 145.411 9.585, 144.079 10.265 M 165.667 9.667 C 164.604 10.729, 164.896 22.818, 166 23.500 C 166.633 23.891, 167 21.344, 167 16.559 C 167 8.970, 166.897 8.436, 165.667 9.667 M 170 15.941 C 170 19.759, 170.450 23.160, 171 23.500 C 171.633 23.891, 172 21.344, 172 16.559 C 172 12.186, 171.578 9, 171 9 C 170.429 9, 170 11.980, 170 15.941 M 186.199 10.672 C 183.934 11.789, 183.222 12.622, 183.929 13.329 C 184.636 14.036, 185.672 13.983, 187.230 13.159 C 190.985 11.173, 194.043 10.991, 197.738 12.535 C 201.846 14.252, 203 14.359, 203 13.026 C 203 11.358, 197.282 8.999, 193.300 9.023 C 191.210 9.035, 188.015 9.778, 186.199 10.672 M 325.213 10.117 C 323.026 10.926, 322.066 14, 324 14 C 324.550 14, 325 13.550, 325 13 C 325 12.450, 325.900 12, 327 12 C 328.111 12, 329 12.667, 329 13.500 C 329 14.325, 328.352 15, 327.559 15 C 324.843 15, 324.879 17.003, 327.613 18.043 C 330.164 19.013, 330.235 19.194, 328.680 20.748 C 327.379 22.050, 326.750 22.150, 325.807 21.207 C 325.143 20.543, 324.015 20, 323.300 20 C 321.110 20, 321.855 21.977, 324.500 23.182 C 328.074 24.810, 332 22.894, 332 19.521 C 332 18.135, 331.495 17, 330.878 17 C 330.086 17, 330.110 16.573, 330.960 15.548 C 333.742 12.196, 329.761 8.435, 325.213 10.117 M 559.223 10.177 C 557.884 11.516, 557.569 20.774, 558.797 22.705 C 559.328 23.541, 563.029 23.877, 570.857 23.800 L 582.152 23.690 581.826 16.843 L 581.500 9.995 587.750 9.998 L 594 10 594 16.450 L 594 22.900 588.250 23.290 L 582.500 23.679 588.500 23.590 L 594.500 23.500 594.500 16.500 L 594.500 9.500 577.473 9.227 C 565.074 9.029, 560.113 9.287, 559.223 10.177 M 73 16.880 L 73 23.761 76.963 23.584 C 82.051 23.356, 83.510 22, 78.667 22 C 75.448 22, 75 21.703, 75 19.563 C 75 17.564, 75.583 17.054, 78.250 16.723 L 81.500 16.320 78.250 16.160 C 75.515 16.025, 75 15.613, 75 13.560 C 75 11.478, 75.549 11.063, 78.750 10.728 C 82.186 10.369, 82.102 10.322, 77.750 10.168 L 73 10 73 16.880 M 84.204 16.746 L 84.500 23.493 88.316 23.544 C 90.415 23.572, 92.354 23.236, 92.625 22.798 C 92.896 22.359, 91.516 22, 89.559 22 C 86.429 22, 86 21.698, 86 19.500 C 86 17.301, 86.452 16.984, 89.750 16.868 L 93.500 16.737 90 16.118 C 87.373 15.654, 86.500 15.001, 86.500 13.500 C 86.500 11.999, 87.373 11.346, 90 10.882 C 93.273 10.303, 93.190 10.255, 88.704 10.132 L 83.909 10 84.204 16.746 M 101.979 16.196 C 102.911 19.603, 104.175 22.558, 104.788 22.763 C 105.400 22.967, 106.523 21, 107.283 18.392 C 108.758 13.333, 109.062 13.404, 110.946 19.250 C 111.611 21.313, 112.553 23, 113.039 23 C 113.909 23, 117 13.886, 117 11.318 C 117 8.298, 115.124 10.307, 114.501 13.995 C 113.567 19.521, 112.590 19.653, 111.195 14.441 C 110.542 11.998, 109.554 10, 109 10 C 108.446 10, 107.451 12.025, 106.789 14.500 C 106.127 16.975, 105.256 19, 104.854 19 C 104.452 19, 103.819 16.975, 103.448 14.500 C 103.063 11.937, 102.237 10, 101.528 10 C 100.583 10, 100.691 11.494, 101.979 16.196 M 125 16.500 C 125 20.167, 125.436 23, 126 23 C 126.550 23, 127 21.875, 127 20.500 C 127 18.516, 127.504 18, 129.441 18 C 130.784 18, 132.160 17.550, 132.500 17 C 132.861 16.417, 131.844 16, 130.059 16 C 125.912 16, 125.664 12.333, 129.750 11.432 C 134.597 10.362, 134.597 10.160, 129.750 10.079 L 125 10 125 16.500 M 279.116 11.360 C 278.358 12.274, 278.270 13.049, 278.882 13.427 C 279.421 13.760, 280.144 13.575, 280.490 13.016 C 281.385 11.568, 285.002 11.755, 284.991 13.250 C 284.987 13.938, 283.384 16.186, 281.431 18.247 C 279.477 20.309, 278.166 22.460, 278.517 23.027 C 279.321 24.328, 287.028 23.852, 287.057 22.500 C 287.069 21.950, 286.161 21.356, 285.040 21.180 C 282.501 20.783, 282.502 20.451, 285.044 17.723 C 286.247 16.431, 286.967 14.495, 286.794 13.015 C 286.560 11.016, 285.867 10.438, 283.415 10.199 C 281.604 10.022, 279.828 10.502, 279.116 11.360 M 290.975 12.565 C 289.460 16.550, 289.815 19.815, 292 22 C 295.202 25.202, 298.139 24.395, 299.872 19.837 C 301.795 14.780, 299.356 10, 294.853 10 C 292.658 10, 291.713 10.625, 290.975 12.565 M 311.595 14.428 C 308.205 20.213, 308.314 21, 312.500 21 C 314.944 21, 316 21.452, 316 22.500 C 316 23.325, 316.450 24, 317 24 C 317.550 24, 318 23.363, 318 22.583 C 318 21.804, 318.563 20.904, 319.250 20.583 C 320.250 20.117, 320.250 19.883, 319.250 19.417 C 318.527 19.079, 318 16.972, 318 14.417 C 318 8.319, 315.172 8.324, 311.595 14.428 M 519.035 11.934 C 515.291 18.931, 521.460 27.570, 526.345 22.171 C 529.618 18.555, 527.248 14.337, 522.457 15.253 C 520.554 15.617, 519.979 15.356, 520.202 14.228 C 520.633 12.042, 524.121 10.126, 524.712 11.750 C 524.962 12.438, 525.859 13, 526.706 13 C 527.960 13, 528.015 12.723, 527 11.500 C 525.195 9.325, 520.289 9.592, 519.035 11.934 M 531.229 11.171 C 529.452 12.948, 529.719 13.886, 531.843 13.331 C 533.440 12.913, 533.663 13.424, 533.518 17.175 C 533.331 22.012, 533.835 24.220, 534.966 23.521 C 535.382 23.264, 535.672 20.235, 535.611 16.791 C 535.527 12.041, 535.132 10.457, 533.979 10.235 C 533.143 10.073, 531.905 10.495, 531.229 11.171 M 539.362 11.500 C 538.478 13.802, 539.719 16, 541.901 16 C 543.931 16, 545.606 12.790, 544.506 11.009 C 543.554 9.469, 540.011 9.807, 539.362 11.500 M 548.366 12.254 C 544.338 16.835, 540.863 22.090, 541.198 23.095 C 541.388 23.664, 543.701 21.131, 546.338 17.465 C 551.050 10.916, 552.246 7.841, 548.366 12.254 M 569.750 10.706 C 570.987 10.944, 573.013 10.944, 574.250 10.706 C 575.487 10.467, 574.475 10.272, 572 10.272 C 569.525 10.272, 568.513 10.467, 569.750 10.706 M 493.975 13.565 C 492.170 18.313, 492.701 20, 496 20 C 498.533 20, 499 19.611, 499 17.500 C 499 15.667, 498.467 15, 497 15 C 495.900 15, 495 14.520, 495 13.933 C 495 13.320, 495.853 13.136, 497 13.500 C 499.352 14.246, 499.738 12.497, 497.418 11.607 C 495.112 10.722, 495.041 10.762, 493.975 13.565 M 541 12.500 C 541 13.325, 541.450 14, 542 14 C 542.550 14, 543 13.325, 543 12.500 C 543 11.675, 542.550 11, 542 11 C 541.450 11, 541 11.675, 541 12.500 M 11.631 14.116 C 10.484 15.753, 10.395 16.772, 11.235 18.616 C 13.131 22.778, 19 21.179, 19 16.500 C 19 12.006, 14.198 10.452, 11.631 14.116 M 23.750 13.080 C 20.198 15.149, 22.254 21.104, 26.450 20.900 C 28.165 20.817, 28.091 20.688, 26 20.111 C 22.635 19.182, 21.916 14.479, 24.990 13.503 C 27.967 12.558, 30.253 14.756, 29.591 17.926 C 29.067 20.432, 29.083 20.441, 30.180 18.248 C 31.097 16.417, 30.970 15.624, 29.499 13.998 C 27.482 11.770, 26.319 11.584, 23.750 13.080 M 34.571 13.571 C 32.562 15.581, 32.579 17.436, 34.625 19.482 C 38.237 23.094, 43.361 19.283, 41.217 14.578 C 39.884 11.650, 36.939 11.204, 34.571 13.571 M 46.200 13.200 C 45.540 13.860, 45.014 14.873, 45.030 15.450 C 45.047 16.027, 45.519 15.713, 46.080 14.750 C 46.641 13.787, 47.955 13, 49 13 C 50.045 13, 51.359 13.787, 51.920 14.750 C 52.481 15.713, 52.953 16.027, 52.970 15.450 C 53.015 13.898, 50.831 12, 49 12 C 48.120 12, 46.860 12.540, 46.200 13.200 M 57.200 13.200 C 54.543 15.857, 56.473 21, 60.129 21 C 62.190 21, 65 18.404, 65 16.500 C 65 13.002, 59.658 10.742, 57.200 13.200 M 293.701 12.632 C 292.380 13.954, 292.948 20.766, 294.427 21.334 C 296.570 22.156, 298.176 19.547, 297.818 15.824 C 297.515 12.670, 295.345 10.988, 293.701 12.632 M 303.694 12.639 C 302.895 13.438, 303.798 15, 305.059 15 C 305.577 15, 306 14.325, 306 13.500 C 306 11.954, 304.820 11.513, 303.694 12.639 M 559.116 16.691 C 559.052 19.546, 559.346 22.096, 559.768 22.357 C 560.191 22.618, 560.392 20.957, 560.216 18.666 C 559.696 11.937, 559.241 11.118, 559.116 16.691 M 34.930 14.584 C 33.978 15.732, 33.905 16.626, 34.665 17.834 C 36.999 21.540, 41.667 19.793, 40.616 15.607 C 39.869 12.630, 36.983 12.110, 34.930 14.584 M 58.163 13.878 C 57.427 14.345, 56.977 15.800, 57.163 17.113 C 57.568 19.981, 61.676 20.461, 63.333 17.834 C 65.238 14.813, 61.364 11.849, 58.163 13.878 M 120 17.941 C 120 20.659, 120.450 23.160, 121 23.500 C 121.621 23.884, 122 22.010, 122 18.559 C 122 15.502, 121.550 13, 121 13 C 120.450 13, 120 15.223, 120 17.941 M 136 17.941 C 136 20.723, 136.450 23, 137 23 C 137.550 23, 138 21.002, 138 18.559 C 138 16.116, 137.550 13.840, 137 13.500 C 136.384 13.119, 136 14.823, 136 17.941 M 155.713 13.621 C 154.300 15.034, 155.048 15.713, 157.500 15.245 C 161.011 14.574, 160.625 16.587, 157 17.850 C 152.006 19.591, 153.739 23.983, 159.293 23.662 C 161.998 23.505, 162.076 23.344, 161.793 18.500 C 161.528 13.983, 161.255 13.471, 158.963 13.204 C 157.567 13.041, 156.104 13.229, 155.713 13.621 M 313.388 15.531 C 311.581 18.288, 312.026 19.588, 314.457 18.655 C 315.306 18.329, 316 16.924, 316 15.531 C 316 12.348, 315.473 12.348, 313.388 15.531 M 188.250 14.662 C 187.563 14.940, 187 15.852, 187 16.690 C 187 17.774, 187.505 17.987, 188.750 17.429 C 190.992 16.422, 195.008 16.422, 197.250 17.429 C 198.488 17.984, 199 17.775, 199 16.714 C 199 15.889, 198.288 14.941, 197.418 14.607 C 195.573 13.899, 190.059 13.932, 188.250 14.662 M 596 16.500 C 596 17.875, 596.450 19, 597 19 C 597.550 19, 598 17.875, 598 16.500 C 598 15.125, 597.550 14, 597 14 C 596.450 14, 596 15.125, 596 16.500 M 520.994 17.507 C 519.887 18.841, 519.931 19.359, 521.258 20.687 C 523.403 22.831, 526.230 21.640, 525.820 18.765 C 525.429 16.026, 522.793 15.339, 520.994 17.507 M 547.701 17.632 C 546.365 18.969, 547.008 22.789, 548.678 23.430 C 551.173 24.387, 553.768 21.441, 552.376 19.231 C 551.184 17.338, 548.808 16.525, 547.701 17.632 M 45 18.882 C 45 19.432, 45.450 20.160, 46 20.500 C 46.550 20.840, 47 20.668, 47 20.118 C 47 19.568, 46.550 18.840, 46 18.500 C 45.450 18.160, 45 18.332, 45 18.882 M 49.500 20 C 48.181 20.567, 48.011 20.878, 49 20.914 C 49.825 20.945, 51.175 20.533, 52 20 C 53.828 18.819, 52.249 18.819, 49.500 20 M 156.667 19.667 C 155.399 20.934, 156.008 22, 158 22 C 159.111 22, 160 21.333, 160 20.500 C 160 18.978, 157.885 18.449, 156.667 19.667 M 190 19.878 C 190 20.360, 190.675 21.315, 191.500 22 C 192.697 22.993, 193.303 22.993, 194.500 22 C 196.823 20.072, 196.287 19, 193 19 C 191.350 19, 190 19.395, 190 19.878 M 303.694 19.639 C 302.895 20.438, 303.798 22, 305.059 22 C 305.577 22, 306 21.325, 306 20.500 C 306 18.954, 304.820 18.513, 303.694 19.639 M 549 20.500 C 549 21.325, 549.450 22, 550 22 C 550.550 22, 551 21.325, 551 20.500 C 551 19.675, 550.550 19, 550 19 C 549.450 19, 549 19.675, 549 20.500 M 304.431 58.112 C 303.677 59.332, 305.923 61.166, 307.202 60.375 C 307.641 60.104, 308 59.234, 308 58.441 C 308 56.744, 305.423 56.506, 304.431 58.112 M 28.667 58.667 C 28.300 59.033, 28 63.533, 28 68.667 L 28 78 32.435 78 C 39.006 78, 41.875 76.543, 43.646 72.304 C 45.746 67.279, 44.145 61.644, 40.011 59.506 C 37.057 57.978, 29.886 57.448, 28.667 58.667 M 253 60 C 249.385 63.615, 251.082 67.133, 257.500 69.331 C 260.282 70.284, 261.500 71.280, 261.500 72.601 C 261.500 74.921, 257.584 75.729, 255.344 73.871 C 253.201 72.092, 251 71.913, 251 73.517 C 251 77.956, 260.273 79.727, 264 76 C 267.877 72.123, 266.354 68.610, 259.858 66.453 C 256.257 65.257, 254.977 64.349, 255.204 63.152 C 255.627 60.920, 260.809 60.339, 261.613 62.433 C 262.471 64.670, 265 64.373, 265 62.035 C 265 57.925, 256.514 56.486, 253 60 M 285 61 C 285 62.111, 284.333 63, 283.500 63 C 282.675 63, 282 63.464, 282 64.031 C 282 64.599, 282.675 65.322, 283.500 65.638 C 284.538 66.037, 285 67.658, 285 70.907 C 285 75.881, 286.255 78, 289.200 78 C 291.376 78, 291.604 75.446, 289.500 74.638 C 288.510 74.258, 288 72.692, 288 70.031 C 288 67.115, 288.415 66, 289.500 66 C 290.325 66, 291 65.325, 291 64.500 C 291 63.675, 290.325 63, 289.500 63 C 288.667 63, 288 62.111, 288 61 C 288 59.889, 287.333 59, 286.500 59 C 285.667 59, 285 59.889, 285 61 M 295.290 61 C 295.002 62.100, 294.369 63, 293.883 63 C 293.398 63, 293 63.675, 293 64.500 C 293 65.325, 293.450 66, 294 66 C 294.550 66, 295 67.830, 295 70.066 C 295 75.078, 296.464 78, 298.976 78 C 301.578 78, 302.653 75.945, 300.640 74.819 C 298.479 73.609, 298.370 66.456, 300.500 65.638 C 302.384 64.915, 302.469 63, 300.617 63 C 299.856 63, 298.998 62.100, 298.710 61 C 298.423 59.900, 297.653 59, 297 59 C 296.347 59, 295.577 59.900, 295.290 61 M 32 68 C 32 71.850, 32.383 75, 32.851 75 C 33.319 75, 35.121 74.505, 36.857 73.900 C 42.467 71.944, 42.467 64.056, 36.857 62.100 C 35.121 61.495, 33.319 61, 32.851 61 C 32.383 61, 32 64.150, 32 68 M 48.655 64.829 C 46.332 67.395, 46.522 73.522, 49 76 C 53.123 80.123, 61 76.709, 61 70.799 C 61 68.563, 59.196 64.831, 57.600 63.765 C 55.516 62.373, 50.318 62.991, 48.655 64.829 M 63.406 64.423 C 63.187 65.015, 63.119 68.195, 63.254 71.488 C 63.448 76.206, 63.860 77.546, 65.198 77.802 C 66.612 78.072, 66.947 77.154, 67.198 72.313 C 67.481 66.860, 67.655 66.500, 70 66.500 C 72.345 66.500, 72.519 66.860, 72.802 72.313 C 73.054 77.162, 73.385 78.070, 74.802 77.783 C 76.200 77.501, 76.459 76.407, 76.270 71.596 C 76.143 68.382, 75.547 65.159, 74.946 64.434 C 73.629 62.847, 63.992 62.838, 63.406 64.423 M 81 65 C 79.770 66.230, 79 68.333, 79 70.461 C 79 76.386, 84.790 79.788, 90.066 76.965 C 93.305 75.231, 92.235 73.949, 87.787 74.232 C 84.447 74.444, 83.500 74.137, 83.214 72.750 C 82.908 71.265, 83.625 71, 87.946 71 C 92.989 71, 93.032 70.974, 92.399 68.250 C 92.048 66.737, 91.053 64.938, 90.189 64.250 C 87.828 62.372, 83.255 62.745, 81 65 M 269.655 64.829 C 267.120 67.630, 267.456 74.505, 270.223 76.443 C 273.335 78.623, 277.348 78.381, 279.595 75.878 L 281.500 73.756 277.126 74.487 C 273.896 75.027, 272.528 74.863, 271.892 73.859 C 270.342 71.413, 270.935 71, 276 71 C 281.544 71, 282.439 69.499, 279.443 65.223 C 277.481 62.421, 272.033 62.201, 269.655 64.829 M 305 70.500 C 305 76.500, 305.300 78, 306.500 78 C 307.700 78, 308 76.500, 308 70.500 C 308 64.500, 307.700 63, 306.500 63 C 305.300 63, 305 64.500, 305 70.500 M 311 70.671 C 311 77.271, 311.194 78, 312.950 78 C 314.622 78, 314.943 77.182, 315.200 72.260 C 315.445 67.571, 315.844 66.454, 317.380 66.161 C 319.960 65.670, 320.967 67.650, 320.985 73.250 C 320.996 76.799, 321.379 78, 322.500 78 C 324.477 78, 324.663 65.795, 322.710 64.174 C 322.001 63.586, 319.076 63.157, 316.210 63.222 L 311 63.341 311 70.671 M 328.538 64.604 C 327.692 65.451, 327 67.825, 327 69.880 C 327 75.691, 330.185 78.568, 334.750 76.881 C 336.588 76.202, 337 76.399, 337 77.957 C 337 80.281, 333.434 81.605, 331.500 80 C 330.728 79.359, 329.319 78.985, 328.369 79.167 C 325.067 79.804, 329.693 83, 333.916 83 C 339.709 83, 341 80.876, 341 71.348 L 341 63.353 335.538 63.210 C 331.801 63.111, 329.591 63.552, 328.538 64.604 M 345.750 64.080 C 343.711 65.268, 343.449 68.298, 345.256 69.797 C 345.946 70.370, 347.746 71.149, 349.256 71.528 C 350.765 71.907, 352 72.883, 352 73.696 C 352 74.875, 351.164 75.035, 347.881 74.480 C 344.640 73.932, 343.858 74.074, 344.212 75.142 C 344.921 77.275, 349.607 78.524, 352.750 77.419 C 354.917 76.657, 355.500 75.821, 355.500 73.476 C 355.500 70.964, 354.961 70.326, 352.044 69.383 C 347.247 67.832, 346.590 65.513, 351.193 66.376 C 355.095 67.108, 356.513 66.324, 354.869 64.342 C 353.564 62.769, 348.262 62.617, 345.750 64.080 M 272.690 66.154 C 270.062 67.625, 270.695 69, 274 69 C 275.898 69, 277 68.488, 277 67.607 C 277 65.739, 274.773 64.988, 272.690 66.154 M 51.238 67.162 C 48.526 69.874, 50.450 75, 54.181 75 C 56.060 75, 57.438 71.527, 56.828 68.329 C 56.411 66.141, 52.976 65.424, 51.238 67.162 M 83 67.434 C 83 68.517, 83.951 69, 86.083 69 C 89.909 69, 89.566 66.644, 85.673 66.184 C 83.779 65.959, 83 66.323, 83 67.434 M 331.051 67.439 C 329.465 69.349, 330.413 73.561, 332.618 74.407 C 335.130 75.371, 337.140 73.054, 336.801 69.585 C 336.457 66.058, 333.204 64.844, 331.051 67.439 M 217 153 C 217 154.333, 217.667 155, 219 155 C 220.333 155, 221 154.333, 221 153 C 221 151.667, 220.333 151, 219 151 C 217.667 151, 217 151.667, 217 153 M 314 155 C 314 159.076, 313.265 159.865, 311.299 157.899 C 309.392 155.992, 304.120 157.867, 302.483 161.034 C 299.113 167.551, 302.254 175, 308.373 175 C 310.148 175, 312.140 174.460, 312.800 173.800 C 313.733 172.867, 314 172.867, 314 173.800 C 314 174.460, 314.900 175, 316 175 C 317.889 175, 318 174.333, 318 163 C 318 151.667, 317.889 151, 316 151 C 314.333 151, 314 151.667, 314 155 M 401 163 L 401 175 403.500 175 C 404.875 175, 406 174.460, 406 173.800 C 406 172.867, 406.267 172.867, 407.200 173.800 C 409.051 175.651, 413.778 175.222, 416 173 C 418.428 170.572, 418.722 163.475, 416.523 160.337 C 414.690 157.719, 410.603 156.607, 407.979 158.011 C 406.159 158.985, 406 158.747, 406 155.035 C 406 151.398, 405.754 151, 403.500 151 L 401 151 401 163 M 158 163.500 L 158 175 160.500 175 C 162.805 175, 163 174.640, 163 170.393 C 163 166.603, 163.280 165.894, 164.582 166.393 C 165.452 166.727, 166.343 167, 166.561 167 C 166.780 167, 167.878 168.800, 169 171 C 170.548 174.034, 171.636 175, 173.507 175 L 175.974 175 173.803 170.532 C 171.687 166.176, 171.679 166.012, 173.483 164.019 C 176.089 161.139, 175.879 156.130, 173.056 153.844 C 171.374 152.482, 169.109 152, 164.389 152 L 158 152 158 163.500 M 329.572 153.250 C 329.372 153.938, 329.273 159, 329.354 164.500 C 329.494 174.058, 329.599 174.514, 331.750 174.820 C 333.917 175.127, 334 174.853, 334 167.419 L 334 159.699 339.301 167.100 C 342.680 171.816, 345.400 174.616, 346.801 174.820 C 348.958 175.133, 349 174.918, 349 163.570 C 349 152.667, 348.885 152, 347 152 C 345.190 152, 345 152.667, 345 159 C 345 162.850, 344.629 166, 344.177 166 C 343.724 166, 341.201 162.850, 338.570 159 C 333.972 152.271, 330.505 150.055, 329.572 153.250 M 243 155.140 C 243 155.767, 242.275 156.810, 241.389 157.457 C 239.908 158.541, 239.908 158.765, 241.389 160.246 C 242.470 161.328, 243 163.623, 243 167.229 C 243 173.057, 244.161 175, 247.641 175 C 250.823 175, 251.589 173.101, 249.108 171.363 C 246.135 169.280, 246.055 161.480, 249 160.710 C 250.100 160.423, 251 159.653, 251 159 C 251 158.347, 250.100 157.577, 249 157.290 C 247.900 157.002, 247 156.144, 247 155.383 C 247 154.623, 246.100 154, 245 154 C 243.900 154, 243 154.513, 243 155.140 M 163 159.500 C 163 162.689, 163.256 163, 165.878 163 C 169.363 163, 171.397 160.827, 170.515 158.048 C 170.026 156.508, 169.014 156, 166.433 156 C 163.176 156, 163 156.180, 163 159.500 M 182.364 158.131 C 177.851 160.398, 176.629 167.987, 180.073 172.365 C 181.665 174.389, 183.030 175, 185.962 175 C 190.429 175, 195.175 171.830, 193.407 170.028 C 192.605 169.210, 191.481 169.391, 189.191 170.705 C 186.287 172.372, 185.953 172.381, 184.416 170.845 C 181.922 168.351, 183.361 167.310, 188.956 167.561 C 193.861 167.781, 194 167.711, 194 165.005 C 194 159.432, 187.463 155.570, 182.364 158.131 M 199.635 159.073 C 197.430 160.807, 197 161.944, 197 166.034 C 197 173.324, 201.592 176.894, 207.145 173.922 C 208.922 172.972, 209.121 173.119, 208.830 175.172 C 208.465 177.746, 204.561 178.961, 202.685 177.085 C 201.143 175.543, 198 175.740, 198 177.378 C 198 181.586, 207.609 182.834, 211.336 179.110 C 213.188 177.260, 213.550 175.582, 213.846 167.479 C 214.139 159.492, 213.941 157.915, 212.584 157.394 C 211.699 157.054, 210.403 157.251, 209.704 157.831 C 208.900 158.498, 207.894 158.545, 206.966 157.958 C 204.661 156.500, 202.485 156.831, 199.635 159.073 M 217 166 C 217 174.333, 217.148 175, 219 175 C 220.852 175, 221 174.333, 221 166 C 221 157.667, 220.852 157, 219 157 C 217.148 157, 217 157.667, 217 166 M 227.223 158.557 C 223.206 161.370, 224.573 166.642, 229.561 167.577 C 233.993 168.409, 235.900 170.580, 233.005 171.499 C 231.849 171.865, 230.275 171.644, 229.507 171.006 C 228.739 170.368, 227.073 169.994, 225.805 170.173 L 223.500 170.500 225.750 172.750 C 230.381 177.381, 239.655 174.621, 238.830 168.857 C 238.587 167.159, 237.321 166.114, 234.044 164.907 C 231.593 164.004, 229.418 162.755, 229.211 162.133 C 228.719 160.656, 233.256 160.656, 234.733 162.133 C 236.220 163.620, 239.120 162.475, 238.428 160.673 C 237.811 159.066, 233.732 157, 231.175 157 C 230.224 157, 228.445 157.701, 227.223 158.557 M 257.206 158.048 C 252.109 160.093, 251.145 170.116, 255.712 173.580 C 259.717 176.618, 268 174.493, 268 170.429 C 268 168.571, 266.512 168.619, 263.532 170.571 C 261.670 171.791, 260.672 171.895, 259.067 171.036 C 255.478 169.115, 256.649 167.511, 261.751 167.356 C 264.363 167.277, 267.063 167.164, 267.750 167.106 C 270.694 166.856, 268.015 159.783, 264.343 158.110 C 261.489 156.810, 260.315 156.800, 257.206 158.048 M 272 166 C 272 174.333, 272.148 175, 274 175 C 275.770 175, 276 174.333, 276 169.200 C 276 163.186, 277.120 161, 280.200 161 C 282.382 161, 282.605 158.169, 280.487 157.357 C 279.655 157.037, 278.345 157.298, 277.576 157.937 C 276.619 158.731, 275.974 158.767, 275.530 158.049 C 275.174 157.472, 274.234 157, 273.441 157 C 272.293 157, 272 158.830, 272 166 M 287 158.294 C 283.105 160.264, 281.522 164.460, 282.917 169.117 C 284.233 173.511, 286.371 175, 291.363 175 C 294.978 175, 298 172.919, 298 170.429 C 298 168.629, 297.824 168.639, 293.514 170.695 C 290.258 172.247, 289.827 172.255, 288.362 170.791 C 285.915 168.344, 287.414 167.290, 293.059 167.489 C 298.883 167.694, 299.903 166.594, 298.046 162.112 C 296.936 159.432, 293.406 156.982, 290.703 157.015 C 290.041 157.023, 288.375 157.599, 287 158.294 M 353.701 157.632 C 352.521 158.812, 352.951 169.344, 354.288 172 C 355.711 174.829, 361.131 175.966, 363.565 173.946 C 364.586 173.099, 365 173.079, 365 173.878 C 365 174.495, 365.900 175, 367 175 C 368.852 175, 369 174.333, 369 166 C 369 157.667, 368.852 157, 367 157 C 365.234 157, 364.998 157.672, 364.985 162.750 C 364.967 169.574, 364.096 171.291, 360.887 170.837 C 358.713 170.530, 358.455 169.920, 358 164.009 C 357.631 159.213, 357.096 157.441, 355.951 157.224 C 355.099 157.063, 354.087 157.246, 353.701 157.632 M 372.667 157.667 C 372.300 158.033, 372 162.083, 372 166.667 C 372 174.333, 372.160 175, 374 175 C 375.100 175, 376.069 174.438, 376.152 173.750 C 376.236 173.063, 376.409 172.050, 376.537 171.500 C 376.665 170.950, 376.821 168.573, 376.885 166.219 C 376.965 163.243, 377.502 161.745, 378.645 161.306 C 381.205 160.324, 383 163.780, 383 169.691 C 383 174.292, 383.261 175, 384.954 175 C 386.671 175, 386.945 174.180, 387.204 168.260 C 387.453 162.590, 387.798 161.464, 389.380 161.162 C 392.062 160.650, 392.967 162.682, 392.985 169.250 C 392.998 174.328, 393.234 175, 395 175 C 396.822 175, 397 174.333, 397 167.523 C 397 160.665, 396.795 159.911, 394.517 158.419 C 392.533 157.119, 391.421 157.006, 388.979 157.857 C 386.782 158.623, 385.232 158.607, 383.462 157.801 C 381.636 156.969, 380.354 156.973, 378.500 157.818 C 376.979 158.511, 376 158.574, 376 157.979 C 376 156.871, 373.680 156.654, 372.667 157.667 M 424.364 158.131 C 419.610 160.519, 418.536 168.627, 422.455 172.545 C 425.447 175.538, 430.765 175.821, 434.048 173.162 C 437.472 170.390, 435.754 168.787, 431.336 170.633 C 428.144 171.967, 427.542 171.971, 426.240 170.669 C 423.869 168.297, 425.637 167.146, 431.005 167.568 C 435.929 167.955, 436 167.919, 436 165.091 C 436 159.437, 429.502 155.550, 424.364 158.131 M 439.500 157.833 C 439.225 158.108, 439 162.083, 439 166.667 C 439 174.889, 439.033 175, 441.500 175 C 443.910 175, 444 174.765, 444 168.519 C 444 162.440, 444.155 161.999, 446.500 161.411 C 447.958 161.045, 449 160.064, 449 159.058 C 449 157.681, 448.094 157.333, 444.500 157.333 C 442.025 157.333, 439.775 157.558, 439.500 157.833 M 183.667 161.667 C 182.176 163.158, 183.187 164, 186.469 164 C 189.141 164, 189.805 163.656, 189.362 162.500 C 188.783 160.991, 184.909 160.424, 183.667 161.667 M 201.818 163.500 C 200.218 167.012, 202.107 171, 205.372 171 C 207.895 171, 209 169.361, 209 165.618 C 209 160.835, 203.739 159.284, 201.818 163.500 M 257.659 162.446 C 257.189 163.672, 257.813 164, 260.615 164 C 263.009 164, 264.033 163.592, 263.756 162.750 C 263.132 160.849, 258.363 160.611, 257.659 162.446 M 287.659 162.446 C 287.189 163.672, 287.813 164, 290.615 164 C 293.009 164, 294.033 163.592, 293.756 162.750 C 293.132 160.849, 288.363 160.611, 287.659 162.446 M 307.054 162.435 C 306.399 163.224, 306.007 165.361, 306.182 167.185 C 306.448 169.963, 306.946 170.551, 309.250 170.816 C 311.459 171.071, 312.201 170.602, 313.026 168.431 C 314.850 163.633, 310.056 158.818, 307.054 162.435 M 407.200 162.200 C 405.906 163.494, 405.629 166.869, 406.607 169.418 C 407.586 171.969, 411.874 171.371, 413.182 168.500 C 415.404 163.623, 410.715 158.685, 407.200 162.200 M 425.667 161.667 C 424.159 163.174, 425.205 164, 428.622 164 C 431.729 164, 432.068 163.786, 431 162.500 C 429.712 160.949, 426.834 160.499, 425.667 161.667 M 116 293.500 C 116 302.167, 116.262 304, 117.500 304 C 118.500 304, 119 303, 119 301 C 119 299.350, 119.437 298, 119.970 298 C 120.504 298, 121.938 299.350, 123.158 301 C 124.378 302.650, 125.966 304, 126.688 304 C 128.636 304, 128.267 302.885, 125.033 299 L 122.120 295.500 125.256 292.250 C 127.592 289.829, 127.971 289, 126.742 289 C 125.834 289, 123.966 290.125, 122.591 291.500 C 121.216 292.875, 119.845 294, 119.545 294 C 119.245 294, 119 291.525, 119 288.500 C 119 284.278, 118.652 283, 117.500 283 C 116.262 283, 116 284.833, 116 293.500 M 26.832 285.750 C 25.885 289.879, 26.539 303.344, 27.705 303.734 C 28.555 304.018, 28.997 301.983, 29.205 296.826 L 29.500 289.516 34.761 296.758 C 40.274 304.347, 41.951 305.492, 42.073 301.750 C 42.250 296.317, 41.817 284.484, 41.428 284.094 C 40.457 283.124, 40.069 284.937, 39.895 291.264 C 39.794 294.936, 39.423 297.761, 39.070 297.543 C 38.717 297.325, 36.420 294.200, 33.964 290.597 C 29.405 283.909, 27.544 282.644, 26.832 285.750 M 138.655 285.829 C 136.670 288.022, 136.505 291.344, 138.308 292.840 C 139.027 293.437, 141.389 294.507, 143.558 295.217 C 146.293 296.113, 147.500 297.085, 147.500 298.390 C 147.500 301.356, 143.582 302.246, 140.656 299.944 C 137.709 297.626, 137 297.526, 137 299.429 C 137 301.985, 140.049 304, 143.916 304 C 148.557 304, 151.287 301.370, 150.825 297.345 C 150.548 294.928, 149.724 294.235, 145.204 292.615 C 139.698 290.641, 138.788 288.793, 142.250 286.612 C 143.550 285.794, 144.450 285.832, 145.750 286.761 C 150.171 289.923, 152.607 289.433, 149.506 286.006 C 147.139 283.392, 140.952 283.290, 138.655 285.829 M 460.315 285.007 C 457.370 286.194, 456 289.042, 456 293.980 C 456 299.640, 459.727 303.505, 464.303 302.589 C 467.658 301.918, 470.818 299.485, 469.738 298.405 C 469.385 298.051, 468.367 298.490, 467.476 299.381 C 463.856 303.001, 458.293 300.583, 457.387 294.996 C 456.356 288.646, 463.395 283.157, 467 287.500 C 468.555 289.374, 470.114 289.462, 469.414 287.635 C 468.918 286.344, 464.716 283.927, 463.203 284.063 C 462.816 284.098, 461.517 284.523, 460.315 285.007 M 579.177 287.250 C 579.007 290.854, 577.797 292.098, 576.500 290 C 575.515 288.406, 572.455 288.839, 570.655 290.829 C 565.940 296.039, 571.947 306.653, 576.842 301.758 C 577.830 300.770, 578.252 300.790, 578.913 301.860 C 580.151 303.862, 580.604 298.774, 579.927 290.500 C 579.611 286.650, 579.274 285.188, 579.177 287.250 M 62 286.917 C 62 287.971, 61.438 289.096, 60.750 289.417 C 59.750 289.883, 59.750 290.117, 60.750 290.583 C 61.516 290.941, 62 293.188, 62 296.383 C 62 299.252, 62.540 302.140, 63.200 302.800 C 64.889 304.489, 68 304.294, 68 302.500 C 68 301.675, 67.325 301, 66.500 301 C 65.367 301, 65 299.778, 65 296 C 65 292.222, 65.367 291, 66.500 291 C 67.325 291, 68 290.550, 68 290 C 68 289.450, 67.325 289, 66.500 289 C 65.667 289, 65 288.111, 65 287 C 65 285.889, 64.333 285, 63.500 285 C 62.675 285, 62 285.863, 62 286.917 M 155 286.917 C 155 287.971, 154.438 289.096, 153.750 289.417 C 152.750 289.883, 152.750 290.117, 153.750 290.583 C 154.516 290.941, 155 293.188, 155 296.383 C 155 301.848, 156.186 304, 159.200 304 C 161.380 304, 161.589 302.163, 159.500 301.362 C 158.449 300.958, 158 299.320, 158 295.893 C 158 292.210, 158.371 291, 159.500 291 C 160.325 291, 161 290.550, 161 290 C 161 289.450, 160.325 289, 159.500 289 C 158.667 289, 158 288.111, 158 287 C 158 285.889, 157.333 285, 156.500 285 C 155.675 285, 155 285.863, 155 286.917 M 179 287 C 179 288.111, 178.333 289, 177.500 289 C 176.675 289, 176 289.402, 176 289.893 C 176 290.384, 176.675 291.045, 177.500 291.362 C 178.585 291.778, 179 293.478, 179 297.500 C 179 303.365, 180.229 304.922, 183.750 303.514 C 185.334 302.881, 185.287 302.670, 183.250 301.285 C 180.168 299.191, 179.990 292.077, 183 291.290 C 184.100 291.002, 185 290.369, 185 289.883 C 185 289.398, 184.100 289, 183 289 C 181.667 289, 181 288.333, 181 287 C 181 285.900, 180.550 285, 180 285 C 179.450 285, 179 285.900, 179 287 M 546.842 287.750 C 546.656 289.826, 546.730 291.070, 547.393 296.908 C 547.844 300.881, 549.152 302.942, 551.250 302.985 C 552.604 303.012, 552.034 301.227, 550.500 300.638 C 549.472 300.244, 549 298.637, 549 295.531 C 549 292.170, 549.387 291, 550.500 291 C 551.325 291, 552 290.550, 552 290 C 552 289.450, 551.325 289, 550.500 289 C 549.675 289, 549 288.325, 549 287.500 C 549 285.392, 547.034 285.620, 546.842 287.750 M 47 291 C 42.539 295.461, 45.722 304, 51.845 304 C 54.649 304, 58.600 300.934, 57.375 299.709 C 57.029 299.363, 55.552 299.697, 54.092 300.452 C 51.145 301.976, 48 300.943, 48 298.450 C 48 297.377, 49.298 297, 53 297 C 57.125 297, 58 296.689, 58 295.223 C 58 289.671, 51.012 286.988, 47 291 M 69.004 289.750 C 69.020 292.765, 72.924 303.500, 74.005 303.500 C 74.732 303.500, 76.094 301.250, 77.031 298.500 L 78.734 293.500 80.222 298.500 C 81.061 301.319, 82.303 303.500, 83.069 303.500 C 84.370 303.500, 87.808 294.499, 87.939 290.750 C 88.060 287.273, 85.965 289.102, 84.789 293.500 C 84.127 295.975, 83.282 298, 82.911 298 C 82.541 298, 81.728 295.975, 81.104 293.500 C 79.576 287.432, 77.517 287.676, 75.974 294.106 C 74.638 299.678, 73.559 299.268, 72.461 292.770 C 72.076 290.491, 71.266 289, 70.412 289 C 69.635 289, 69.002 289.337, 69.004 289.750 M 91.571 290.571 C 89.332 292.811, 89.494 300.233, 91.829 302.345 C 96.169 306.273, 103 302.834, 103 296.723 C 103 291.889, 100.574 289, 96.515 289 C 94.660 289, 92.436 289.707, 91.571 290.571 M 105.657 291.411 C 104.760 295.327, 105.468 303.324, 106.750 303.751 C 107.639 304.047, 108 302.719, 108 299.155 C 108 294.040, 109.704 291, 112.571 291 C 113.357 291, 114 290.553, 114 290.007 C 114 289.461, 112.231 289.084, 110.068 289.168 C 106.968 289.290, 106.035 289.765, 105.657 291.411 M 163.980 290.524 C 162.185 292.687, 163.535 293.533, 166.571 292.150 C 169.418 290.852, 171 291.356, 171 293.559 C 171 294.486, 169.955 295, 168.071 295 C 164.986 295, 162 297.213, 162 299.500 C 162 303.108, 168.176 305.424, 170.800 302.800 C 171.733 301.867, 172 301.867, 172 302.800 C 172 303.460, 172.450 304, 173 304 C 174.434 304, 174.255 291.655, 172.800 290.200 C 171.103 288.503, 165.486 288.709, 163.980 290.524 M 187 294.929 C 187 298.985, 187.496 301.353, 188.571 302.429 C 190.436 304.294, 194.117 304.483, 195.800 302.800 C 196.733 301.867, 197 301.867, 197 302.800 C 197 303.460, 197.450 304, 198 304 C 198.578 304, 199 300.833, 199 296.500 C 199 292.167, 198.578 289, 198 289 C 197.450 289, 196.994 290.688, 196.986 292.750 C 196.963 299.275, 196.065 301.145, 193.119 300.804 C 190.674 300.520, 190.480 300.119, 190.200 294.750 C 189.980 290.531, 189.514 289, 188.450 289 C 187.346 289, 187 290.416, 187 294.929 M 203.571 290.571 C 202.707 291.436, 202.007 292.448, 202.015 292.821 C 202.055 294.582, 204.196 296.556, 207.140 297.547 C 208.921 298.147, 210.537 299.112, 210.731 299.692 C 211.302 301.405, 207.297 301.896, 205.130 300.379 C 202.470 298.515, 200.916 300.734, 203.538 302.652 C 207.204 305.332, 214 303.172, 214 299.326 C 214 297.835, 210.588 295, 208.794 295 C 207.942 295, 206.728 294.378, 206.097 293.617 C 204.565 291.771, 207.393 290.605, 210.007 292.004 C 212.486 293.330, 213 293.262, 213 291.607 C 213 288.769, 206.129 288.014, 203.571 290.571 M 475 291 C 470.703 295.297, 474.317 303.860, 479.863 302.525 C 483.214 301.719, 485 299.384, 485 295.809 C 485 292.540, 481.880 289, 479 289 C 477.900 289, 476.100 289.900, 475 291 M 489.155 295.500 L 489.250 302.500 490.044 297.017 C 490.485 293.972, 490.443 290.859, 489.950 290.017 C 489.377 289.039, 489.094 290.986, 489.155 295.500 M 492.395 290.170 C 491.917 290.943, 492.205 291.135, 493.242 290.737 C 495.719 289.787, 497.836 293.069, 498.255 298.507 C 498.628 303.356, 498.645 303.321, 498.820 297.285 C 498.971 292.055, 498.694 290.906, 497.066 290.035 C 494.554 288.691, 493.287 288.727, 492.395 290.170 M 507 290.167 C 507 290.808, 507.284 291.049, 507.631 290.702 C 507.979 290.355, 509.104 290.520, 510.131 291.070 C 511.571 291.841, 512 293.210, 512 297.035 C 512 299.766, 512.450 302, 513 302 C 514.671 302, 514.188 292.331, 512.429 290.571 C 510.595 288.738, 507 288.470, 507 290.167 M 519.073 291.635 C 516.263 295.207, 516.458 298.428, 519.635 300.927 C 522.766 303.390, 523.972 303.493, 526.559 301.518 C 528.370 300.134, 528.283 300.076, 525.252 300.642 C 521.849 301.278, 519 299.816, 519 297.432 C 519 296.564, 520.631 296.005, 523.750 295.805 C 527.836 295.543, 528.452 295.226, 528.159 293.544 C 527.757 291.243, 525.195 289.077, 522.823 289.032 C 521.900 289.014, 520.212 290.186, 519.073 291.635 M 533.807 290.750 C 530.283 294.854, 531.001 300.132, 535.353 302.115 C 537.946 303.296, 542 301.910, 542 299.842 C 542 299.111, 541.527 299.148, 540.555 299.954 C 536.727 303.132, 530.951 297.488, 533.641 293.197 C 534.972 291.073, 538.646 290.461, 540.555 292.046 C 541.527 292.852, 542 292.889, 542 292.158 C 542 290.909, 538.808 289, 536.721 289 C 535.945 289, 534.634 289.788, 533.807 290.750 M 556.655 290.829 C 554.316 293.413, 554.521 299.257, 557.030 301.527 C 558.618 302.964, 559.635 303.162, 561.699 302.432 C 563.149 301.920, 564.542 300.825, 564.793 300 C 565.162 298.789, 564.994 298.741, 563.925 299.750 C 561.961 301.603, 558.212 301.265, 557.070 299.131 C 555.712 296.593, 556.582 296, 561.667 296 C 566.583 296, 567.352 294.352, 564 291 C 561.509 288.509, 558.811 288.446, 556.655 290.829 M 503.130 295.931 C 503.177 299.277, 503.617 302.263, 504.108 302.566 C 504.598 302.870, 505 300.616, 505 297.559 C 505 294.502, 505.034 291.674, 505.075 291.275 C 505.116 290.876, 504.676 290.392, 504.097 290.199 C 503.431 289.977, 503.075 292.082, 503.130 295.931 M 558.155 291.604 C 554.924 293.867, 555.540 295, 560 295 C 562.846 295, 564 294.577, 564 293.535 C 564 291.022, 560.593 289.896, 558.155 291.604 M 49.750 292.080 C 46.947 293.713, 47.719 295, 51.500 295 C 55.164 295, 55.812 294.212, 53.800 292.200 C 52.367 290.767, 52.022 290.757, 49.750 292.080 M 93.473 293.030 C 90.688 296.107, 92.483 300.500, 96.524 300.500 C 99.163 300.500, 99.536 300.124, 99.818 297.185 C 100.363 291.508, 96.902 289.241, 93.473 293.030 M 476.200 292.200 C 474.529 293.871, 474.700 298.506, 476.487 299.989 C 477.340 300.697, 479.046 300.954, 480.487 300.593 C 482.448 300.100, 483 299.325, 483 297.063 C 483 295.468, 482.727 293.452, 482.393 292.582 C 481.678 290.718, 477.914 290.486, 476.200 292.200 M 520.200 292.200 C 518.122 294.278, 518.872 295, 523.107 295 C 526.441 295, 527.100 294.702, 526.607 293.418 C 526.273 292.548, 526 291.648, 526 291.418 C 526 290.461, 521.306 291.094, 520.200 292.200 M 570.919 293.278 C 569.502 296.389, 571.284 301, 573.904 301 C 576.219 301, 579 298.470, 579 296.363 C 579 291.221, 572.915 288.898, 570.919 293.278 M 166.250 297.662 C 165.563 297.940, 165 298.834, 165 299.650 C 165 301.829, 170.389 300.995, 170.815 298.750 C 171.144 297.013, 169.079 296.521, 166.250 297.662 M 63.459 355.067 C 62.539 356.556, 63.606 357.365, 65.520 356.631 C 66.404 356.292, 66.847 355.561, 66.504 355.007 C 65.694 353.696, 64.289 353.723, 63.459 355.067 M 189 355.417 C 189 356.288, 189.713 357, 190.583 357 C 192.349 357, 192.042 354.847, 190.188 354.229 C 189.534 354.011, 189 354.546, 189 355.417 M 236.667 354.667 C 236.300 355.033, 236 356.597, 236 358.142 C 236 360.728, 235.763 360.903, 233.002 360.350 C 227.713 359.293, 224.369 364.132, 226.088 370.357 C 227.168 374.269, 228.510 374.965, 234.750 374.845 L 239 374.764 239 364.382 C 239 354.874, 238.508 352.825, 236.667 354.667 M 28 365 C 28 373.222, 28.267 375, 29.500 375 C 30.733 375, 31 373.222, 31 365 C 31 356.778, 30.733 355, 29.500 355 C 28.267 355, 28 356.778, 28 365 M 100 355.639 C 100 355.991, 101.350 358.473, 103 361.154 C 105.163 364.669, 106 367.282, 106 370.515 C 106 373.835, 106.390 375, 107.500 375 C 108.586 375, 109 373.884, 109 370.952 C 109 368.034, 109.977 365.376, 112.500 361.433 C 116.444 355.267, 116.533 355, 114.633 355 C 113.881 355, 112.075 356.800, 110.619 359 C 109.163 361.200, 107.782 363, 107.550 363 C 107.318 363, 106.116 361.200, 104.880 359 C 103.643 356.800, 102.040 355, 101.316 355 C 100.592 355, 100 355.288, 100 355.639 M 164 365 C 164 373.222, 164.267 375, 165.500 375 C 166.580 375, 167 373.895, 167 371.057 C 167 367.134, 167.021 367.114, 171.250 366.807 C 173.588 366.638, 175.500 366.050, 175.500 365.500 C 175.500 364.950, 173.588 364.362, 171.250 364.193 C 167.283 363.905, 167 363.689, 167 360.943 C 167 358.122, 167.186 358, 171.500 358 C 174.833 358, 176 357.611, 176 356.500 C 176 355.333, 174.667 355, 170 355 L 164 355 164 365 M 70.316 357.899 C 70.014 359.055, 69.369 360, 68.883 360 C 68.398 360, 68 360.675, 68 361.500 C 68 362.325, 68.450 363, 69 363 C 69.550 363, 70 365.160, 70 367.800 C 70 372.874, 71.240 375, 74.200 375 C 76.382 375, 76.580 373.437, 74.500 372.638 C 73.479 372.247, 73 370.649, 73 367.638 C 73 364.628, 73.479 363.030, 74.500 362.638 C 75.325 362.322, 76 361.599, 76 361.031 C 76 360.464, 75.325 360, 74.500 360 C 73.675 360, 73 359.352, 73 358.559 C 73 356.163, 70.905 355.648, 70.316 357.899 M 34 367.621 C 34 373.401, 34.314 375, 35.450 375 C 36.514 375, 36.980 373.469, 37.200 369.250 C 37.471 364.052, 37.729 363.468, 39.887 363.163 C 42.986 362.724, 43.966 364.419, 43.985 370.250 C 43.996 373.799, 44.379 375, 45.500 375 C 47.413 375, 47.557 366.659, 45.707 363 C 44.617 360.845, 43.722 360.482, 39.221 360.371 L 34 360.242 34 367.621 M 48 360.878 C 48 363.432, 52.996 374.543, 54.259 374.798 C 55.271 375.002, 56.557 372.871, 58.366 367.990 C 61.456 359.655, 61.406 360, 59.528 360 C 58.597 360, 57.441 362.112, 56.382 365.750 C 55.017 370.440, 54.558 371.131, 53.893 369.500 C 53.445 368.400, 52.409 365.813, 51.590 363.750 C 50.261 360.400, 48 358.591, 48 360.878 M 63.857 362.250 C 63.337 370.461, 63.616 374.359, 64.750 374.743 C 65.677 375.057, 66 373.209, 66 367.583 C 66 363.194, 65.579 360, 65 360 C 64.450 360, 63.936 361.012, 63.857 362.250 M 80.073 362.635 C 74.451 369.782, 82.325 378.870, 89.557 373.582 C 92.181 371.663, 90.636 370.389, 87.447 371.842 C 85.636 372.667, 84.317 372.705, 82.943 371.969 C 79.950 370.368, 80.632 369.013, 84.500 368.875 C 90.296 368.668, 90.488 368.586, 90.830 366.168 C 91.645 360.415, 83.836 357.850, 80.073 362.635 M 117.458 362.046 C 115.131 364.618, 115.184 370.441, 117.558 373.064 C 120.030 375.796, 125.439 375.639, 127.443 372.777 C 129.630 369.656, 129.414 364.414, 127 362 C 124.412 359.412, 119.822 359.434, 117.458 362.046 M 131.185 366.568 C 131.670 374.182, 132.541 375.086, 139 374.684 L 143.500 374.404 143.500 367.535 C 143.500 362.929, 143.088 360.529, 142.250 360.250 C 141.350 359.950, 141 361.387, 141 365.381 C 141 369.963, 140.641 371.122, 138.936 372.034 C 135.618 373.810, 134 371.627, 134 365.378 C 134 361.092, 133.672 360, 132.384 360 C 131.016 360, 130.832 361.014, 131.185 366.568 M 147 367.712 C 147 373.524, 147.304 375, 148.500 375 C 149.652 375, 150 373.719, 150 369.475 C 150 364.502, 150.250 363.856, 152.500 363 C 156.296 361.557, 155.490 360.086, 151 360.265 L 147 360.425 147 367.712 M 179 367.618 C 179 373.400, 179.314 375, 180.450 375 C 181.514 375, 181.980 373.469, 182.200 369.250 C 182.466 364.156, 182.757 363.464, 184.750 363.180 C 188.821 362.602, 187.373 360.120, 183 360.181 L 179 360.236 179 367.618 M 189 367.417 C 189 373.586, 189.288 375, 190.544 375 C 191.819 375, 192.037 373.754, 191.794 367.830 C 191.604 363.205, 191.056 360.513, 190.250 360.247 C 189.324 359.940, 189 361.796, 189 367.417 M 196.557 362.223 C 194.407 365.291, 194.554 371.286, 196.829 373.345 C 199.121 375.420, 204.345 375.494, 206.020 373.476 C 207.836 371.288, 206.419 370.438, 203.533 371.983 C 201.534 373.052, 200.778 373.061, 199.534 372.028 C 197.049 369.966, 197.751 369.001, 201.750 368.985 C 206.887 368.964, 208.266 367.909, 207.443 364.629 C 206.222 359.765, 199.343 358.244, 196.557 362.223 M 211 367.583 C 211 373.203, 211.324 375.060, 212.250 374.756 C 212.955 374.524, 213.718 371.981, 214 368.922 C 214.460 363.939, 214.702 363.500, 217 363.500 C 219.342 363.500, 219.519 363.863, 219.800 369.250 C 220.020 373.469, 220.486 375, 221.550 375 C 223.302 375, 223.618 365.024, 221.965 361.934 C 220.792 359.742, 216.101 359.299, 214.200 361.200 C 213.267 362.133, 213 362.133, 213 361.200 C 213 360.540, 212.550 360, 212 360 C 211.421 360, 211 363.194, 211 367.583 M 243.582 361.316 C 240.976 363.222, 241.992 366.243, 245.898 368.195 C 250.828 370.658, 251.568 371.685, 249 372.500 C 247.769 372.891, 246.314 372.714, 245.699 372.099 C 244.158 370.558, 242 370.729, 242 372.393 C 242 375.649, 250.182 376.005, 252.396 372.845 C 254.381 370.010, 252.978 367.374, 249.020 366.504 C 247.372 366.142, 245.735 365.380, 245.383 364.811 C 244.338 363.120, 247.133 362.104, 249.662 363.256 C 252.498 364.548, 253.760 363.621, 252.020 361.524 C 250.466 359.652, 246.009 359.542, 243.582 361.316 M 82.569 363.573 C 80.367 365.776, 80.545 366, 84.500 366 C 88.352 366, 89.070 364.643, 86.069 363.037 C 84.612 362.257, 83.754 362.389, 82.569 363.573 M 199.724 363.134 C 196.932 364.697, 197.740 366, 201.500 366 C 205.275 366, 206.083 364.650, 203.224 363.120 C 202.098 362.517, 200.818 362.522, 199.724 363.134 M 119.243 364.157 C 116.855 366.545, 118.780 373, 121.880 373 C 124.287 373, 126.135 370.172, 125.829 366.956 C 125.559 364.119, 125.051 363.448, 122.993 363.207 C 121.614 363.046, 119.927 363.473, 119.243 364.157 M 228.980 365.038 C 226.818 369.077, 230.294 373.984, 233.936 372.034 C 235.984 370.938, 236.608 367.747, 235.393 364.582 C 234.521 362.309, 230.279 362.611, 228.980 365.038 M 54.419 426.131 C 53.567 427.510, 55.524 429.412, 56.913 428.554 C 57.511 428.184, 58 427.507, 58 427.048 C 58 425.718, 55.129 424.982, 54.419 426.131 M 28.742 426.592 C 28.334 427, 28 431.533, 28 436.667 C 28 444.296, 28.274 446, 29.500 446 C 30.539 446, 31 444.956, 31 442.600 C 31 439.370, 31.178 439.200, 34.561 439.200 C 36.552 439.200, 38.976 438.427, 40.061 437.445 C 42.522 435.218, 42.557 430.814, 40.130 428.618 C 38.131 426.809, 29.975 425.358, 28.742 426.592 M 31 433 C 31 436.376, 31.322 437, 33.066 437 C 36.152 437, 39 435.160, 39 433.165 C 39 430.601, 37.001 429, 33.800 429 C 31.200 429, 31 429.286, 31 433 M 44.426 431.917 C 44.192 432.146, 44 435.408, 44 439.167 C 44 444.470, 44.325 446, 45.450 446 C 46.514 446, 46.980 444.469, 47.200 440.250 C 47.466 435.156, 47.757 434.464, 49.750 434.180 C 53.611 433.632, 52.448 431.120, 48.426 431.321 C 46.461 431.419, 44.661 431.688, 44.426 431.917 M 54.829 438.528 C 54.576 444.317, 54.801 445.991, 55.803 445.778 C 56.519 445.625, 57.082 445.163, 57.053 444.750 C 57.024 444.337, 57 441.075, 57 437.500 C 57 428.479, 55.232 429.316, 54.829 438.528 M 59.697 431.701 C 59.433 432.141, 60.352 435.559, 61.739 439.298 C 63.504 444.053, 64.720 446.007, 65.783 445.798 C 67.182 445.524, 71.829 435.250, 71.948 432.167 C 72.061 429.247, 69.540 431.893, 68.066 436.241 C 65.914 442.585, 65.464 442.731, 64.013 437.548 C 62.760 433.070, 60.619 430.171, 59.697 431.701 M 75.441 432.433 C 73.987 433.506, 73.785 434.155, 74.637 435.020 C 75.446 435.841, 75.968 435.861, 76.446 435.087 C 76.816 434.489, 78.216 434, 79.559 434 C 83.372 434, 82.486 436.686, 78.350 437.664 C 73.946 438.706, 72.005 441.201, 73.616 443.750 C 74.421 445.024, 76.118 445.523, 79.861 445.584 L 85 445.668 85 439.369 C 85 434.165, 84.664 432.890, 83.066 432.035 C 80.389 430.603, 77.733 430.741, 75.441 432.433 M 90 433 C 87.386 435.614, 87.288 442.046, 89.829 444.345 C 92.432 446.701, 98.648 446.526, 99.968 444.061 C 101.250 441.665, 99.701 440.450, 97.991 442.511 C 95.452 445.571, 91 443.578, 91 439.382 C 91 434.176, 93.711 432.554, 97.968 435.212 C 100.880 437.031, 101.855 435.116, 99.139 432.914 C 96.093 430.445, 92.522 430.478, 90 433 M 103 431.798 C 103 432.328, 104.116 435.727, 105.480 439.351 C 108.006 446.062, 107.954 449, 105.310 449 C 104.498 449, 103.995 449.484, 104.192 450.075 C 104.389 450.666, 104.876 451.116, 105.275 451.075 C 105.674 451.034, 106.607 451, 107.348 451 C 109.581 451, 116.609 433.209, 115.008 431.608 C 114.392 430.992, 113.485 432.057, 112.484 434.573 C 111.625 436.733, 110.573 439.363, 110.146 440.418 C 109.516 441.976, 109.008 441.335, 107.436 436.995 C 105.736 432.305, 103 429.100, 103 431.798 M 76.446 441.087 C 76.077 441.685, 76.227 442.627, 76.781 443.181 C 78.258 444.658, 81.425 443.750, 81.812 441.739 C 82.058 440.459, 81.482 440, 79.632 440 C 78.249 440, 76.816 440.489, 76.446 441.087 M 72 498.500 C 72 499.325, 72.675 500, 73.500 500 C 74.325 500, 75 499.325, 75 498.500 C 75 497.675, 74.325 497, 73.500 497 C 72.675 497, 72 497.675, 72 498.500 M 80.200 498.200 C 79.540 498.860, 79 500.172, 79 501.117 C 79 502.061, 78.438 503.062, 77.750 503.341 C 76.790 503.730, 76.777 504.045, 77.693 504.698 C 78.350 505.165, 79.025 508.130, 79.193 511.286 C 79.609 519.068, 81.426 519.043, 81.798 511.250 C 82.020 506.589, 82.465 505, 83.548 505 C 84.346 505, 85 504.550, 85 504 C 85 503.450, 84.325 503, 83.500 503 C 82.675 503, 82 502.325, 82 501.500 C 82 500.675, 82.675 500, 83.500 500 C 84.325 500, 85 499.325, 85 498.500 C 85 496.706, 81.889 496.511, 80.200 498.200 M 87.543 497.931 C 87.226 498.443, 87.425 499.144, 87.984 499.490 C 89.177 500.227, 91 499.291, 91 497.941 C 91 496.724, 88.293 496.716, 87.543 497.931 M 132 498.500 C 132 499.325, 132.675 500, 133.500 500 C 134.325 500, 135 499.325, 135 498.500 C 135 497.675, 134.325 497, 133.500 497 C 132.675 497, 132 497.675, 132 498.500 M 28.213 507.425 C 28.546 518.557, 30.258 520.301, 31 510.265 L 31.500 503.500 34.900 508.500 C 39.425 515.155, 42.106 518.052, 43.145 517.410 C 43.615 517.120, 44 512.634, 44 507.441 C 44 499.842, 43.716 498, 42.544 498 C 41.438 498, 41.017 499.661, 40.794 504.904 L 40.500 511.807 35.956 505.159 C 33.456 501.502, 30.627 498.359, 29.668 498.175 C 28.094 497.871, 27.953 498.763, 28.213 507.425 M 64 500.393 C 64 501.159, 63.325 502.045, 62.500 502.362 C 61.675 502.678, 61 503.401, 61 503.969 C 61 504.536, 61.675 505, 62.500 505 C 63.650 505, 64 506.274, 64 510.465 C 64 514.925, 64.372 516.128, 66.021 517.011 C 69.079 518.648, 70.521 517.134, 68.075 514.856 C 65.233 512.207, 65.184 506.026, 68 505.290 C 70.381 504.667, 70.677 503, 68.406 503 C 67.530 503, 66.577 502.100, 66.290 501 C 65.696 498.728, 64 498.279, 64 500.393 M 124 500.917 C 124 501.971, 123.438 503.096, 122.750 503.417 C 121.750 503.883, 121.750 504.117, 122.750 504.583 C 123.498 504.932, 124 507.113, 124 510.012 C 124 514.958, 125.741 518, 128.571 518 C 130.465 518, 130.410 515.371, 128.500 514.638 C 127.472 514.244, 127 512.637, 127 509.531 C 127 506.170, 127.387 505, 128.500 505 C 129.325 505, 130 504.550, 130 504 C 130 503.450, 129.325 503, 128.500 503 C 127.667 503, 127 502.111, 127 501 C 127 499.889, 126.333 499, 125.500 499 C 124.675 499, 124 499.863, 124 500.917 M 51.028 503.177 C 47.819 504.375, 47.034 505.721, 47.015 510.059 C 46.996 514.533, 48.663 516.811, 52.500 517.555 C 56.738 518.378, 60.005 515.172, 59.985 510.211 C 59.976 508.170, 59.630 505.966, 59.214 505.313 C 57.925 503.285, 53.697 502.182, 51.028 503.177 M 98.028 503.181 C 94.791 504.384, 94.034 505.718, 94.015 510.250 C 93.997 514.645, 96.774 518, 100.429 518 C 102.847 518, 106 515.696, 106 513.929 C 106 512.692, 104.278 512.741, 103.500 514 C 103.160 514.550, 101.772 515, 100.416 515 C 97.330 515, 95.596 511.193, 97 507.500 C 98.101 504.604, 100.061 504.339, 103.535 506.615 C 105.666 508.011, 106 508.028, 106 506.737 C 106 503.763, 101.666 501.830, 98.028 503.181 M 112.189 502.714 C 109.967 503.138, 108.188 505.521, 109.279 506.612 C 109.568 506.902, 110.689 506.586, 111.770 505.911 C 114.029 504.501, 117.365 505.396, 116.756 507.251 C 116.530 507.938, 115.030 508.652, 113.423 508.838 C 111.815 509.025, 109.938 509.642, 109.250 510.211 C 106.138 512.785, 109.521 518.718, 113.399 517.490 C 114.555 517.124, 116.513 516.859, 117.750 516.901 C 119.839 516.972, 120 516.553, 120 511.046 C 120 506.049, 119.649 504.868, 117.777 503.557 C 116.555 502.701, 115.318 502.061, 115.027 502.136 C 114.737 502.211, 113.460 502.471, 112.189 502.714 M 159.139 502.900 C 158.391 503.370, 156.908 503.527, 155.843 503.249 C 154.039 502.777, 153.927 503.246, 154.204 510.121 C 154.513 517.813, 156.291 519.998, 156.767 513.271 C 157.230 506.709, 157.909 505, 160.050 505 C 162.660 505, 163.759 507.766, 163.923 514.750 C 163.966 516.538, 164.421 518, 164.937 518 C 166.612 518, 166.559 505.084, 164.877 503.585 C 163.738 502.569, 160.316 502.161, 159.139 502.900 M 170.984 503.812 C 167.830 506.366, 169.065 509.329, 174.109 511.311 C 176.661 512.313, 177.913 513.332, 177.470 514.048 C 176.777 515.170, 174.190 514.968, 170.750 513.522 C 167.935 512.338, 168.591 515.856, 171.426 517.148 C 174.568 518.580, 178.648 517.527, 180.041 514.924 C 181.420 512.347, 180.016 510.452, 175.258 508.463 C 173.387 507.681, 172.140 506.582, 172.487 506.021 C 173.297 504.710, 176.694 504.696, 177.500 506 C 178.440 507.521, 180 507.194, 180 505.475 C 180 504.637, 178.846 503.512, 177.435 502.975 C 173.984 501.663, 173.572 501.717, 170.984 503.812 M 72.206 510.170 C 72.396 514.795, 72.944 517.487, 73.750 517.753 C 74.676 518.060, 75 516.204, 75 510.583 C 75 504.414, 74.712 503, 73.456 503 C 72.181 503, 71.963 504.246, 72.206 510.170 M 88 510.583 C 88 516.204, 88.324 518.060, 89.250 517.753 C 90.056 517.487, 90.604 514.795, 90.794 510.170 C 91.037 504.246, 90.819 503, 89.544 503 C 88.288 503, 88 504.414, 88 510.583 M 132.206 510.250 C 132.368 514.237, 132.950 517.500, 133.500 517.500 C 134.050 517.500, 134.632 514.237, 134.794 510.250 C 135.040 504.171, 134.831 503, 133.500 503 C 132.169 503, 131.960 504.171, 132.206 510.250 M 139.557 505.223 C 138.701 506.445, 138 508.715, 138 510.268 C 138 513.614, 141.971 518, 145 518 C 148.029 518, 152 513.614, 152 510.268 C 152 505.626, 149.471 503, 145 503 C 142.117 503, 140.711 503.574, 139.557 505.223 M 51.267 506.250 C 48.121 510.271, 49.800 515.446, 54.056 514.845 C 56.705 514.471, 57.641 511.691, 56.564 507.398 C 55.910 504.794, 52.914 504.145, 51.267 506.250 M 142.238 506.162 C 140.549 507.851, 140.676 512.486, 142.452 513.960 C 145.961 516.872, 150.080 512.982, 148.441 508.303 C 147.371 505.247, 144.235 504.165, 142.238 506.162 M 111.667 511.667 C 109.965 513.368, 111.118 515.119, 113.741 514.816 C 117.343 514.401, 118.233 511, 114.740 511 C 113.416 511, 112.033 511.300, 111.667 511.667 M 42 569.500 C 42 570.530, 42.655 571.020, 43.750 570.810 C 45.858 570.404, 45.725 568.629, 43.553 568.177 C 42.647 567.988, 42 568.539, 42 569.500 M 64.422 569.343 C 63.362 572.106, 64.472 588.328, 65.750 588.752 C 66.569 589.024, 67 588.104, 67 586.083 C 67 582.208, 68.138 582.187, 71.347 586 C 73.666 588.756, 76 589.932, 76 588.344 C 76 587.984, 74.875 586.214, 73.500 584.411 C 70.399 580.345, 70.401 580.234, 73.687 576.805 C 75.590 574.819, 75.933 574, 74.861 574 C 74.029 574, 72.292 575.125, 71 576.500 C 69.708 577.875, 68.280 579, 67.826 579 C 67.372 579, 67 576.525, 67 573.500 C 67 568.375, 65.637 566.177, 64.422 569.343 M 103 571.405 C 103 574.780, 102.966 574.805, 99.136 574.291 C 95.893 573.856, 95.009 574.149, 93.636 576.109 C 91.379 579.332, 91.553 584.553, 94 587 C 96.237 589.237, 99.979 589.621, 101.800 587.800 C 102.733 586.867, 103 586.867, 103 587.800 C 103 588.460, 103.450 589, 104 589 C 104.603 589, 105 584.833, 105 578.500 C 105 572.167, 104.603 568, 104 568 C 103.450 568, 103 569.532, 103 571.405 M 164.543 568.931 C 163.803 570.128, 165.684 571.313, 167.016 570.490 C 168.135 569.799, 167.400 568, 166 568 C 165.515 568, 164.859 568.419, 164.543 568.931 M 28 579 L 28 589 34 589 C 38.667 589, 40 588.667, 40 587.500 C 40 586.389, 38.833 586, 35.500 586 L 31 586 31 577.500 C 31 570.611, 30.716 569, 29.500 569 C 28.267 569, 28 570.778, 28 579 M 116.214 578.750 L 116.500 588.500 120.694 588.805 C 126.767 589.246, 130.681 586.899, 131.992 582.030 C 132.829 578.922, 132.740 577.313, 131.577 574.530 C 129.877 570.462, 126.923 569, 120.399 569 L 115.928 569 116.214 578.750 M 119 579 L 119 586 122.345 586 C 126.702 586, 129.200 583.220, 129.200 578.370 C 129.200 573.927, 127.116 572, 122.309 572 L 119 572 119 579 M 42.363 581.165 C 42.453 585.902, 42.923 588.471, 43.750 588.748 C 44.677 589.058, 45 587.207, 45 581.583 C 45 575.783, 44.674 574, 43.613 574 C 42.546 574, 42.257 575.655, 42.363 581.165 M 49 581.801 C 49 587.247, 49.326 589.059, 50.250 588.755 C 50.975 588.516, 51.626 586.204, 51.799 583.253 C 52.358 573.761, 57.704 573.232, 58.199 582.620 C 58.381 586.078, 58.995 588.505, 59.750 588.754 C 61.554 589.349, 61.474 576.639, 59.665 575.137 C 58.931 574.528, 56.231 574.120, 53.665 574.232 L 49 574.435 49 581.801 M 80.313 574.786 C 78.480 575.951, 76.876 581.023, 77.593 583.382 C 79.201 588.673, 85.013 590.844, 88.429 587.429 C 90.894 584.963, 90.278 584.069, 86.975 585.316 C 83.834 586.501, 81.039 585.616, 80.226 583.179 C 79.955 582.366, 81.600 582, 85.524 582 C 90.302 582, 91.117 581.746, 90.607 580.418 C 90.273 579.548, 90 578.455, 90 577.990 C 90 574.999, 83.407 572.818, 80.313 574.786 M 136.557 576.223 C 134.370 579.344, 134.586 584.586, 137 587 C 139.369 589.369, 144.236 589.626, 146.020 587.476 C 147.753 585.388, 146.501 584.450, 143.690 585.731 C 141.032 586.943, 138 585.727, 138 583.450 C 138 582.377, 139.298 582, 143 582 C 147.125 582, 148 581.689, 148 580.223 C 148 576.787, 145.088 574, 141.500 574 C 139.134 574, 137.644 574.670, 136.557 576.223 M 149 574.443 C 149 576.685, 154.536 589, 155.544 589 C 156.266 589, 157.731 586.638, 158.801 583.750 C 162.097 574.850, 162.267 574, 160.750 574 C 159.942 574, 158.609 576.393, 157.547 579.750 L 155.729 585.500 153.671 579.750 C 152.539 576.587, 151.024 574, 150.306 574 C 149.588 574, 149 574.199, 149 574.443 M 165 581.583 C 165 587.206, 165.323 589.059, 166.250 588.750 C 167.494 588.335, 168.224 579.366, 167.308 575.750 C 166.235 571.510, 165 574.631, 165 581.583 M 172.599 575.891 C 170.281 578.452, 170.257 584.522, 172.555 587.061 C 175.375 590.177, 183 589.012, 183 585.465 C 183 583.795, 181.425 583.503, 180.500 585 C 180.160 585.550, 178.774 586, 177.420 586 C 174.404 586, 172.026 581.767, 173.621 579.239 C 175.632 576.051, 177.741 575.455, 179.948 577.453 C 182.313 579.593, 183.955 578.743, 182.363 576.202 C 180.765 573.649, 174.800 573.459, 172.599 575.891 M 186.557 576.223 C 184.370 579.344, 184.586 584.586, 187 587 C 189.527 589.527, 194.169 589.576, 196.410 587.099 C 198.294 585.018, 197.273 583.583, 194.952 585.051 C 191.782 587.056, 188 585.624, 188 582.418 C 188 582.188, 190.250 582, 193 582 C 197.579 582, 198 581.802, 198 579.655 C 198 574.328, 189.640 571.821, 186.557 576.223 M 201.200 575.200 C 198.429 577.971, 200.257 581.274, 205.256 582.528 C 208.074 583.235, 208.978 585.496, 206.750 586.265 C 206.063 586.502, 204.486 586.242, 203.246 585.686 C 202.006 585.130, 200.704 584.962, 200.353 585.313 C 199.153 586.514, 202.241 589, 204.931 589 C 211.703 589, 213.319 582.411, 207.044 580.383 C 205.144 579.769, 203.433 578.798, 203.242 578.225 C 202.631 576.392, 205.112 575.722, 207.594 577.050 C 210.429 578.567, 211.820 577.692, 210.020 575.524 C 208.514 573.709, 202.897 573.503, 201.200 575.200 M 81.571 577.571 C 79.367 579.776, 79.545 580, 83.500 580 C 87.179 580, 88.441 577.767, 85.418 576.607 C 83.301 575.795, 83.364 575.779, 81.571 577.571 M 96.750 577.080 C 94.909 578.152, 94.417 582.532, 95.878 584.837 C 97.296 587.074, 101.356 585.796, 102.412 582.780 C 103.166 580.628, 102.981 579.637, 101.527 578.030 C 99.443 575.727, 99.167 575.672, 96.750 577.080 M 139.200 577.200 C 137.188 579.212, 137.836 580, 141.500 580 C 143.425 580, 145 579.640, 145 579.200 C 145 578.032, 142.777 576, 141.500 576 C 140.895 576, 139.860 576.540, 139.200 577.200 M 189.750 577.080 C 186.947 578.713, 187.719 580, 191.500 580 C 195.164 580, 195.812 579.212, 193.800 577.200 C 192.367 575.767, 192.022 575.757, 189.750 577.080 M 55 642.925 C 55 646.655, 54.837 646.915, 53.151 645.862 C 50.432 644.164, 46.099 645.610, 44.965 648.593 C 42.228 655.791, 45.209 659.950, 52.978 659.773 L 58.066 659.657 57.783 649.660 C 57.588 642.761, 57.113 639.534, 56.250 639.248 C 55.386 638.961, 55 640.097, 55 642.925 M 145 642.322 C 145 645.793, 144.982 645.807, 141.136 645.291 C 137.893 644.856, 137.009 645.149, 135.636 647.109 C 133.564 650.067, 133.537 654.894, 135.575 657.804 C 136.924 659.730, 137.892 660.007, 142.325 659.734 L 147.500 659.416 147.500 649.542 C 147.500 642.533, 147.137 639.548, 146.250 639.251 C 145.409 638.970, 145 639.975, 145 642.322 M 33.651 640.756 C 32.847 642.056, 27 658.264, 27 659.191 C 27 661.219, 29.673 659.704, 30.647 657.125 C 31.494 654.880, 32.364 654.247, 34.616 654.235 C 38.096 654.217, 40 655.592, 40 658.122 C 40 659.167, 40.701 660, 41.579 660 C 43.565 660, 42.893 656.468, 39.139 647.182 C 36.628 640.973, 34.823 638.859, 33.651 640.756 M 34.028 647.426 C 32.530 651.366, 32.727 652, 35.448 652 C 37.768 652, 37.839 651.830, 36.800 648.750 C 35.322 644.371, 35.210 644.317, 34.028 647.426 M 60.560 647.250 C 62.876 654.748, 65.323 660, 66.500 660 C 67.246 660, 68.731 657.638, 69.801 654.750 C 73.097 645.850, 73.267 645, 71.750 645 C 70.948 645, 69.635 647.316, 68.632 650.500 C 67.678 653.525, 66.719 656, 66.500 656 C 66.281 656, 65.322 653.525, 64.368 650.500 C 63.365 647.316, 62.052 645, 61.250 645 C 60.275 645, 60.071 645.665, 60.560 647.250 M 76.200 646.200 C 74.049 648.351, 74.926 649.035, 79 648.384 C 82.173 647.877, 83 648.054, 83 649.244 C 83 650.220, 81.608 650.967, 79.017 651.381 C 75.856 651.887, 74.904 652.535, 74.405 654.522 C 73.441 658.362, 75.472 659.976, 81.106 659.849 L 86 659.739 86 653.569 C 86 646.598, 84.975 645, 80.500 645 C 78.795 645, 76.860 645.540, 76.200 646.200 M 89 652.621 C 89 658.513, 89.302 660, 90.500 660 C 91.607 660, 92 658.842, 92 655.582 C 92 649.673, 92.772 648, 95.500 648 C 98.228 648, 99 649.673, 99 655.582 C 99 658.842, 99.393 660, 100.500 660 C 102.413 660, 102.557 651.659, 100.707 648 C 99.617 645.845, 98.722 645.482, 94.221 645.371 L 89 645.242 89 652.621 M 106 647 C 101.505 651.495, 104.730 660, 110.929 660 C 113.763 660, 117 657.829, 117 655.929 C 117 654.638, 116.294 654.761, 113.606 656.523 C 109.518 659.201, 106.062 655.874, 107.399 650.547 C 108.090 647.793, 111.458 646.642, 113.086 648.603 C 114.354 650.132, 117 650.505, 117 649.155 C 117 647.450, 113.268 645, 110.671 645 C 109.202 645, 107.100 645.900, 106 647 M 120.655 646.829 C 118.371 649.353, 118.474 656.214, 120.829 658.345 C 123.121 660.420, 128.345 660.494, 130.020 658.476 C 131.823 656.303, 130.460 655.469, 127.392 656.867 C 125.415 657.768, 124.437 657.778, 123.388 656.907 C 120.729 654.701, 121.914 653.500, 126.750 653.500 C 131.408 653.500, 131.496 653.442, 131.279 650.507 C 131.157 648.862, 130.283 646.949, 129.337 646.257 C 126.844 644.434, 122.567 644.716, 120.655 646.829 M 47.445 650.365 C 46.252 655.116, 48.883 658.749, 52.509 657.358 C 54.473 656.605, 55.573 652.135, 54.296 650.095 C 53.747 649.218, 52.122 648.359, 50.684 648.187 C 48.606 647.938, 47.942 648.385, 47.445 650.365 M 122.667 648.667 C 121.176 650.158, 122.187 651, 125.469 651 C 128.141 651, 128.805 650.656, 128.362 649.500 C 127.783 647.991, 123.909 647.424, 122.667 648.667 M 137.607 649.582 C 135.774 654.357, 138.567 658.871, 142.436 657.386 C 144.565 656.569, 145.428 652.669, 144.050 650.093 C 142.724 647.615, 138.491 647.279, 137.607 649.582 M 79.750 653.816 C 76.747 654.162, 75.983 656.672, 78.578 657.668 C 80.242 658.307, 83.490 655.793, 82.866 654.348 C 82.665 653.882, 81.263 653.642, 79.750 653.816 M 33.307 712.750 C 32.960 713.712, 31.399 717.865, 29.838 721.977 C 26.557 730.622, 26.500 731, 28.481 731 C 29.295 731, 30.244 729.875, 30.589 728.500 C 31.124 726.372, 31.793 726, 35.089 726 C 38.386 726, 39.055 726.372, 39.589 728.500 C 39.966 730.001, 40.932 731, 42.005 731 C 43.607 731, 43.443 730.058, 40.435 721.966 C 38.587 716.997, 36.807 712.497, 36.479 711.966 C 35.542 710.450, 33.998 710.832, 33.307 712.750 M 46 721.067 C 46 730.196, 46.163 731.084, 47.750 730.590 C 48.712 730.291, 50.137 730.446, 50.917 730.935 C 52.515 731.938, 57.032 730.547, 58.214 728.687 C 58.630 728.034, 58.976 725.813, 58.985 723.750 C 59.005 718.752, 55.941 715.562, 51.896 716.371 C 49.221 716.906, 49 716.723, 49 713.975 C 49 711.997, 48.497 711, 47.500 711 C 46.266 711, 46 712.785, 46 721.067 M 94 713.834 C 94 714.908, 93.213 716.091, 92.250 716.464 C 90.612 717.099, 90.608 717.222, 92.191 718.389 C 93.335 719.231, 93.983 721.394, 94.191 725.067 C 94.489 730.303, 94.609 730.509, 97.500 730.751 L 100.500 731.001 98.250 729.379 C 95.083 727.095, 94.977 719.501, 98.101 718.684 C 100.352 718.095, 99.837 716, 97.441 716 C 96.648 716, 96 715.352, 96 714.559 C 96 713.766, 95.550 712.840, 95 712.500 C 94.450 712.160, 94 712.760, 94 713.834 M 34.028 718.426 C 32.530 722.366, 32.727 723, 35.448 723 C 37.768 723, 37.839 722.830, 36.800 719.750 C 35.322 715.371, 35.210 715.317, 34.028 718.426 M 63.455 718.455 C 60.623 721.286, 60.257 725.495, 62.557 728.777 C 63.711 730.426, 65.117 731, 68 731 C 72.471 731, 75 728.374, 75 723.732 C 75 720.386, 71.029 716, 68 716 C 66.850 716, 64.805 717.105, 63.455 718.455 M 77 722.294 C 77 729.989, 77.951 731.094, 84.368 730.851 L 89 730.676 89 723.338 C 89 719.113, 88.576 716, 88 716 C 86.893 716, 86.715 716.980, 86.970 721.683 C 87.210 726.137, 85.372 729.194, 82.682 728.811 C 80.788 728.541, 80.434 727.717, 80 722.578 C 79.281 714.058, 77 713.842, 77 722.294 M 49.713 719.621 C 48.442 720.891, 48.959 726.721, 50.452 727.960 C 51.257 728.628, 52.841 728.868, 54.005 728.498 C 55.770 727.938, 56.058 727.164, 55.803 723.666 C 55.540 720.046, 55.167 719.461, 52.963 719.204 C 51.567 719.041, 50.104 719.229, 49.713 719.621 M 65.050 720.440 C 62.048 724.056, 65.999 730.743, 69.750 728.394 C 73.400 726.108, 72.076 719, 68 719 C 67.035 719, 65.707 719.648, 65.050 720.440 M 24 838.500 L 24 879 298.500 879 C 449.475 879, 573.337 879.112, 573.750 879.250 C 574.163 879.388, 574.618 861.163, 574.761 838.750 L 575.022 798 299.511 798 L 24 798 24 838.500 M 236.688 828.646 C 236.309 829.024, 236 833.533, 236 838.667 C 236 847.389, 236.133 848, 238.036 848 C 239.964 848, 240.057 847.484, 239.786 838.331 C 239.523 829.423, 238.647 826.686, 236.688 828.646 M 201 838.360 L 201 848 206.545 848 C 213.679 848, 217 845.174, 217 839.101 C 217 832.995, 213.911 830.044, 206.750 829.310 L 201 828.720 201 838.360 M 297.526 829.958 C 297.161 830.549, 295.572 834.849, 293.995 839.516 C 291.314 847.446, 291.249 848, 292.996 848 C 294.024 848, 295.151 847.100, 295.500 846 C 295.993 844.447, 297.013 844, 300.067 844 C 303.333 844, 304 844.339, 304 846 C 304 847.333, 304.667 848, 306 848 C 308.540 848, 308.542 848.026, 305.164 837.955 C 302.937 831.314, 301.884 829.434, 300.259 829.193 C 299.120 829.024, 297.890 829.368, 297.526 829.958 M 261 831.450 C 261 832.248, 260.212 833.365, 259.250 833.932 C 257.748 834.817, 257.708 835.099, 258.967 835.925 C 259.811 836.478, 260.660 839.140, 260.967 842.193 C 261.458 847.085, 261.715 847.525, 264.250 847.816 C 267.149 848.150, 268.067 846.347, 265.500 845.362 C 264.532 844.990, 264 843.443, 264 841 C 264 838.557, 264.532 837.010, 265.500 836.638 C 266.325 836.322, 267 835.599, 267 835.031 C 267 834.464, 266.325 834, 265.500 834 C 264.667 834, 264 833.111, 264 832 C 264 830.889, 263.333 830, 262.500 830 C 261.675 830, 261 830.653, 261 831.450 M 393 831.450 C 393 832.248, 392.234 833.329, 391.297 833.854 C 389.982 834.589, 389.855 835.120, 390.737 836.183 C 391.366 836.941, 392.253 839.797, 392.708 842.530 C 393.445 846.955, 393.835 847.535, 396.268 847.816 C 399.279 848.165, 399.821 846.926, 397.500 845 C 396.675 844.315, 396 842.283, 396 840.485 C 396 838.500, 396.590 836.988, 397.500 836.638 C 398.325 836.322, 399 835.599, 399 835.031 C 399 834.464, 398.325 834, 397.500 834 C 396.667 834, 396 833.111, 396 832 C 396 830.889, 395.333 830, 394.500 830 C 393.675 830, 393 830.653, 393 831.450 M 204.754 833.250 C 204.501 833.938, 204.340 836.750, 204.397 839.500 C 204.492 844.121, 204.699 844.523, 207.124 844.804 C 210.609 845.208, 213 842.637, 213 838.485 C 213 836.135, 212.327 834.642, 210.777 833.557 C 208.098 831.680, 205.383 831.542, 204.754 833.250 M 330.224 834.113 C 326.103 835.637, 324.713 841.717, 327.557 845.777 C 330.004 849.271, 339 848.503, 339 844.800 C 339 843.644, 335.584 843.816, 334.367 845.033 C 332.452 846.948, 330 844.974, 330 841.515 C 330 837.184, 332.361 835.112, 334.792 837.311 C 337.073 839.376, 340.031 837.948, 338.155 835.687 C 336.619 833.836, 332.944 833.107, 330.224 834.113 M 220.887 836.113 C 219.248 837.752, 218.901 839.004, 219.339 841.702 C 219.649 843.614, 220.430 845.813, 221.074 846.589 C 222.710 848.561, 229.427 848.396, 231.128 846.343 C 232.379 844.833, 232.155 844.751, 228.604 845.416 C 225.810 845.939, 224.471 845.771, 223.869 844.823 C 222.340 842.410, 222.956 842, 228.108 842 C 233.179 842, 233.212 841.980, 232.528 839.256 C 232.149 837.746, 231.370 835.946, 230.797 835.256 C 229.118 833.233, 223.261 833.739, 220.887 836.113 M 244.655 835.829 C 242.559 838.145, 242.510 844.367, 244.571 846.429 C 246.497 848.354, 253.335 848.506, 254.869 846.658 C 256.545 844.639, 255.250 844.079, 251.861 845.358 C 249.227 846.353, 248.649 846.242, 247.369 844.500 C 245.957 842.577, 246.096 842.488, 250.950 842.198 C 255.460 841.928, 256 841.650, 256 839.603 C 256 834.603, 248.132 831.986, 244.655 835.829 M 272.313 834.786 C 270.488 835.946, 269.065 840.516, 269.710 843.143 C 270.622 846.856, 271.995 848, 275.541 848 C 279.829 848, 282 847.124, 282 845.393 C 282 843.706, 281.775 843.690, 278.577 845.147 C 276.634 846.032, 275.710 846.004, 274.530 845.025 C 271.885 842.830, 272.837 842, 278 842 C 283.544 842, 284.439 840.499, 281.443 836.223 C 279.863 833.966, 274.844 833.176, 272.313 834.786 M 298.206 836.839 C 297.039 840.186, 297.444 841, 300.275 841 C 301.891 841, 302.103 840.539, 301.538 838.250 C 300.496 834.032, 299.353 833.548, 298.206 836.839 M 312.655 835.829 C 310.559 838.145, 310.510 844.367, 312.571 846.429 C 314.887 848.744, 321.221 848.478, 322.768 846 C 323.812 844.329, 323.767 844, 322.495 844 C 321.658 844, 320.116 844.535, 319.068 845.190 C 315.073 847.685, 312.048 841.095, 315.571 837.571 C 317.529 835.614, 317.919 835.616, 320.108 837.598 C 322.612 839.864, 324.642 838.367, 322.410 835.901 C 320.196 833.454, 314.840 833.414, 312.655 835.829 M 343.016 836.470 C 341.298 839.680, 341.468 844.611, 343.362 846.505 C 344.929 848.072, 350.653 848.508, 352.687 847.214 C 354.442 846.099, 356.037 841.279, 355.320 839.259 C 354.053 835.688, 351.708 834, 348.014 834 C 345.128 834, 344.054 834.531, 343.016 836.470 M 358 839.878 C 358 843.457, 358.504 846.174, 359.290 846.826 C 359.999 847.414, 362.924 847.843, 365.790 847.778 L 371 847.659 371 840.829 C 371 835.425, 370.687 834, 369.500 834 C 368.372 834, 368 835.209, 368 838.878 C 368 844.079, 366.397 846.473, 363.627 845.410 C 362.403 844.941, 362 843.451, 362 839.393 C 362 834.667, 361.753 834, 360 834 C 358.227 834, 358 834.667, 358 839.878 M 375 841 C 375 847.271, 375.203 848, 376.948 848 C 378.592 848, 378.943 847.183, 379.198 842.750 C 379.477 837.897, 379.689 837.500, 382 837.500 C 384.311 837.500, 384.523 837.897, 384.802 842.750 C 385.020 846.527, 385.511 848, 386.552 848 C 387.638 848, 388 846.644, 388 842.582 C 388 839.602, 387.727 836.452, 387.393 835.582 C 386.658 833.667, 380.409 833.399, 379.662 835.250 C 379.259 836.250, 379.142 836.250, 379.079 835.250 C 379.036 834.563, 378.100 834, 377 834 C 375.190 834, 375 834.667, 375 841 M 224.200 837.200 C 222.239 839.161, 222.811 840, 226.107 840 C 228.529 840, 229.080 839.651, 228.607 838.418 C 228.273 837.548, 228 836.648, 228 836.418 C 228 835.517, 225.335 836.065, 224.200 837.200 M 247.131 837.342 C 245.756 838.999, 246.647 840, 249.500 840 C 250.692 840, 251.963 839.704, 252.325 839.342 C 253.192 838.474, 251.101 836, 249.500 836 C 248.810 836, 247.744 836.604, 247.131 837.342 M 274.167 837.299 C 272.723 839.039, 273.638 840, 276.740 840 C 278.488 840, 279.055 839.524, 278.812 838.261 C 278.386 836.052, 275.669 835.489, 274.167 837.299 M 346.616 837.527 C 343.456 840.687, 345.697 847.098, 349.457 845.655 C 351.380 844.917, 352.572 840.131, 351.326 838.155 C 349.903 835.900, 348.438 835.704, 346.616 837.527 " stroke="none" fill="black" fill-rule="evenodd"/>
</svg>